<svg width="24" height="24" viewBox="0 0 24 24" fill="none" xmlns="http://www.w3.org/2000/svg">
<path fill-rule="evenodd" clip-rule="evenodd" d="M12 4C12.2652 4 12.5196 4.10536 12.7071 4.29289L14.0503 5.63604C14.1352 5.72095 14.218 5.80715 14.2988 5.89457L17.7575 5.02992C18.2644 4.90318 18.7834 5.18811 18.9487 5.68383L19.7207 8H21C21.5523 8 22 8.44772 22 9V10.9188C22 15.8325 18.3925 20 13.7269 20H12.9304C12 20 11.364 20 10.8995 20H10.2731C5.60749 20 2 15.8325 2 10.9188V9C2 8.44772 2.44772 8 3 8H4.27927L5.05133 5.68383C5.21657 5.18811 5.73561 4.90318 6.24255 5.02992L9.70115 5.89457C9.78197 5.80715 9.86484 5.72095 9.94975 5.63604L11.2929 4.29289C11.4804 4.10536 11.7348 4 12 4ZM16.0647 8.70773C15.9218 8.3436 15.7543 7.98692 15.5622 7.64028L17.3441 7.1948L17.6694 8.1705C17.1118 8.29068 16.5748 8.47216 16.0647 8.70773ZM7.93533 8.70773C7.42519 8.47216 6.88823 8.29068 6.33063 8.1705L6.65586 7.1948L8.43779 7.64028C8.24572 7.98692 8.07822 8.3436 7.93533 8.70773ZM7.41059 10.6798C6.59382 10.242 5.6843 10 4.7269 10H4V10.9188C4 14.6469 6.50779 17.5602 9.56469 17.9545C7.75224 15.904 7.03511 13.2254 7.41059 10.6798ZM14.4353 17.9545C16.2478 15.904 16.9649 13.2254 16.5894 10.6798C17.4062 10.242 18.3157 10 19.2731 10H20V10.9188C20 14.6469 17.4922 17.5602 14.4353 17.9545ZM12 17.5858L11.364 16.9497C9.59127 15.1771 8.96694 12.6899 9.49526 10.4113C9.78072 9.18014 10.4027 8.01154 11.364 7.05025L12 6.41421L12.636 7.05025C13.5973 8.01153 14.2193 9.18014 14.5047 10.4113C15.0331 12.6899 14.4087 15.1771 12.636 16.9497L12 17.5858Z" fill="#2B2D33"/>
</svg>
