<svg width="24" height="24" viewBox="0 0 24 24" fill="none" xmlns="http://www.w3.org/2000/svg">
<path fill-rule="evenodd" clip-rule="evenodd" d="M7.01614 2.82111C7.10259 2.34562 7.51672 2 8.00001 2H16C16.4833 2 16.8974 2.34562 16.9839 2.82111L18.9839 13.8211C19.0369 14.1129 18.9578 14.4131 18.7678 14.6407C18.5778 14.8684 18.2965 15 18 15H17H15H13V20H15C15.5523 20 16 20.4477 16 21C16 21.5523 15.5523 22 15 22H9.00001C8.44772 22 8.00001 21.5523 8.00001 21C8.00001 20.4477 8.44772 20 9.00001 20H11V15H6.00001C5.70348 15 5.42225 14.8684 5.23226 14.6407C5.04226 14.4131 4.96309 14.1129 5.01614 13.8211L7.01614 2.82111ZM8.83458 4L7.19822 13H16.8018L15.1654 4H8.83458Z" fill="#2B2D33"/>
</svg>
