<svg width="64" height="64" viewBox="0 0 64 64" fill="none" xmlns="http://www.w3.org/2000/svg">
<rect width="64" height="64" rx="11.3537" fill="#EBF3FF"/>
<g clip-path="url(#clip0_2180_404809)">
<g filter="url(#filter0_dd_2180_404809)">
<g clip-path="url(#clip1_2180_404809)">
<rect x="11.5361" y="11.5361" width="19.1342" height="18.7438" rx="1.56198" fill="white"/>
<rect x="11.5359" y="11.1455" width="19.1342" height="17.5723" fill="url(#paint0_linear_2180_404809)"/>
<path d="M29.1037 25.24V29.8322H13.1007V26.1832C13.1007 26.1629 13.1086 26.1434 13.1228 26.1288L18.5947 20.5108C18.6262 20.4785 18.6784 20.4796 18.7085 20.5132L22.8925 25.1778C23.2382 25.5633 23.8426 25.5613 24.1859 25.1737L26.4743 22.5892C26.5045 22.5552 26.5573 22.5541 26.5888 22.587L29.082 25.186C29.0959 25.2006 29.1037 25.2199 29.1037 25.24Z" fill="white" stroke="white" stroke-width="0.788289"/>
<circle cx="23.9126" cy="17.8633" r="1.57658" fill="white" stroke="white" stroke-width="0.788289"/>
</g>
<rect x="12.1219" y="12.1219" width="17.9628" height="17.5723" rx="0.976237" stroke="white" stroke-width="1.17148"/>
</g>
<g filter="url(#filter1_dd_2180_404809)">
<g clip-path="url(#clip2_2180_404809)">
<rect x="11.5361" y="33.5049" width="19.1342" height="18.7438" rx="1.56198" fill="white"/>
<rect x="11.5359" y="33.1143" width="19.1342" height="17.5723" fill="url(#paint1_linear_2180_404809)"/>
<path d="M29.1037 47.2087V51.801H13.1007V48.152C13.1007 48.1316 13.1086 48.1121 13.1228 48.0976L18.5947 42.4796C18.6262 42.4473 18.6784 42.4483 18.7085 42.4819L22.8925 47.1466C23.2382 47.532 23.8426 47.5301 24.1859 47.1424L26.4743 44.558C26.5045 44.5239 26.5573 44.5228 26.5888 44.5557L29.082 47.1548C29.0959 47.1693 29.1037 47.1886 29.1037 47.2087Z" fill="white" stroke="white" stroke-width="0.788289"/>
<circle cx="23.9126" cy="39.8321" r="1.57658" fill="white" stroke="white" stroke-width="0.788289"/>
</g>
<rect x="12.1219" y="34.0906" width="17.9628" height="17.5723" rx="0.976237" stroke="white" stroke-width="1.17148"/>
</g>
<g filter="url(#filter2_dd_2180_404809)">
<g clip-path="url(#clip3_2180_404809)">
<rect x="33.5049" y="11.5361" width="19.1342" height="18.7438" rx="1.56198" fill="white"/>
<rect x="33.5046" y="11.1455" width="19.1342" height="17.5723" fill="url(#paint2_linear_2180_404809)"/>
<path d="M51.0734 25.24V29.8322H35.0704V26.1832C35.0704 26.1629 35.0783 26.1434 35.0925 26.1288L40.5644 20.5108C40.5959 20.4785 40.6482 20.4796 40.6783 20.5132L44.8623 25.1778C45.208 25.5633 45.8124 25.5613 46.1556 25.1737L48.444 22.5892C48.4742 22.5552 48.5271 22.5541 48.5586 22.587L51.0517 25.186C51.0656 25.2006 51.0734 25.2199 51.0734 25.24Z" fill="white" stroke="white" stroke-width="0.788289"/>
<circle cx="45.8814" cy="17.8633" r="1.57658" fill="white" stroke="white" stroke-width="0.788289"/>
</g>
<rect x="34.0906" y="12.1219" width="17.9628" height="17.5723" rx="0.976237" stroke="white" stroke-width="1.17148"/>
</g>
<g filter="url(#filter3_dd_2180_404809)">
<rect x="35.6311" y="34.9219" width="15.5909" height="15.5909" rx="7.79543" fill="white" shape-rendering="crispEdges"/>
<path opacity="0.8" d="M43.9692 39.7941C43.9692 39.4945 43.7263 39.2515 43.4266 39.2515C43.127 39.2515 42.8841 39.4945 42.8841 39.7941V42.1748H40.5034C40.2037 42.1748 39.9608 42.4178 39.9608 42.7174C39.9608 43.0171 40.2037 43.26 40.5034 43.26H42.8841V45.6407C42.8841 45.9404 43.127 46.1833 43.4266 46.1833C43.7263 46.1833 43.9692 45.9404 43.9692 45.6407V43.26H46.3499C46.6496 43.26 46.8925 43.0171 46.8925 42.7174C46.8925 42.4178 46.6496 42.1748 46.3499 42.1748H43.9692V39.7941Z" fill="#82AAFF" stroke="#82AAFF" stroke-width="0.354338"/>
</g>
</g>
<defs>
<filter id="filter0_dd_2180_404809" x="7.26947" y="9.4028" width="27.6676" height="27.2775" filterUnits="userSpaceOnUse" color-interpolation-filters="sRGB">
<feFlood flood-opacity="0" result="BackgroundImageFix"/>
<feColorMatrix in="SourceAlpha" type="matrix" values="0 0 0 0 0 0 0 0 0 0 0 0 0 0 0 0 0 0 127 0" result="hardAlpha"/>
<feOffset/>
<feGaussianBlur stdDeviation="1.06667"/>
<feComposite in2="hardAlpha" operator="out"/>
<feColorMatrix type="matrix" values="0 0 0 0 0.305882 0 0 0 0 0.435294 0 0 0 0 0.627451 0 0 0 0.08 0"/>
<feBlend mode="normal" in2="BackgroundImageFix" result="effect1_dropShadow_2180_404809"/>
<feColorMatrix in="SourceAlpha" type="matrix" values="0 0 0 0 0 0 0 0 0 0 0 0 0 0 0 0 0 0 127 0" result="hardAlpha"/>
<feOffset dy="2.13333"/>
<feGaussianBlur stdDeviation="2.13333"/>
<feComposite in2="hardAlpha" operator="out"/>
<feColorMatrix type="matrix" values="0 0 0 0 0.304097 0 0 0 0 0.434125 0 0 0 0 0.629167 0 0 0 0.08 0"/>
<feBlend mode="normal" in2="effect1_dropShadow_2180_404809" result="effect2_dropShadow_2180_404809"/>
<feBlend mode="normal" in="SourceGraphic" in2="effect2_dropShadow_2180_404809" result="shape"/>
</filter>
<filter id="filter1_dd_2180_404809" x="7.26947" y="31.3715" width="27.6676" height="27.2775" filterUnits="userSpaceOnUse" color-interpolation-filters="sRGB">
<feFlood flood-opacity="0" result="BackgroundImageFix"/>
<feColorMatrix in="SourceAlpha" type="matrix" values="0 0 0 0 0 0 0 0 0 0 0 0 0 0 0 0 0 0 127 0" result="hardAlpha"/>
<feOffset/>
<feGaussianBlur stdDeviation="1.06667"/>
<feComposite in2="hardAlpha" operator="out"/>
<feColorMatrix type="matrix" values="0 0 0 0 0.305882 0 0 0 0 0.435294 0 0 0 0 0.627451 0 0 0 0.08 0"/>
<feBlend mode="normal" in2="BackgroundImageFix" result="effect1_dropShadow_2180_404809"/>
<feColorMatrix in="SourceAlpha" type="matrix" values="0 0 0 0 0 0 0 0 0 0 0 0 0 0 0 0 0 0 127 0" result="hardAlpha"/>
<feOffset dy="2.13333"/>
<feGaussianBlur stdDeviation="2.13333"/>
<feComposite in2="hardAlpha" operator="out"/>
<feColorMatrix type="matrix" values="0 0 0 0 0.304097 0 0 0 0 0.434125 0 0 0 0 0.629167 0 0 0 0.08 0"/>
<feBlend mode="normal" in2="effect1_dropShadow_2180_404809" result="effect2_dropShadow_2180_404809"/>
<feBlend mode="normal" in="SourceGraphic" in2="effect2_dropShadow_2180_404809" result="shape"/>
</filter>
<filter id="filter2_dd_2180_404809" x="29.2382" y="9.4028" width="27.6676" height="27.2775" filterUnits="userSpaceOnUse" color-interpolation-filters="sRGB">
<feFlood flood-opacity="0" result="BackgroundImageFix"/>
<feColorMatrix in="SourceAlpha" type="matrix" values="0 0 0 0 0 0 0 0 0 0 0 0 0 0 0 0 0 0 127 0" result="hardAlpha"/>
<feOffset/>
<feGaussianBlur stdDeviation="1.06667"/>
<feComposite in2="hardAlpha" operator="out"/>
<feColorMatrix type="matrix" values="0 0 0 0 0.305882 0 0 0 0 0.435294 0 0 0 0 0.627451 0 0 0 0.08 0"/>
<feBlend mode="normal" in2="BackgroundImageFix" result="effect1_dropShadow_2180_404809"/>
<feColorMatrix in="SourceAlpha" type="matrix" values="0 0 0 0 0 0 0 0 0 0 0 0 0 0 0 0 0 0 127 0" result="hardAlpha"/>
<feOffset dy="2.13333"/>
<feGaussianBlur stdDeviation="2.13333"/>
<feComposite in2="hardAlpha" operator="out"/>
<feColorMatrix type="matrix" values="0 0 0 0 0.304097 0 0 0 0 0.434125 0 0 0 0 0.629167 0 0 0 0.08 0"/>
<feBlend mode="normal" in2="effect1_dropShadow_2180_404809" result="effect2_dropShadow_2180_404809"/>
<feBlend mode="normal" in="SourceGraphic" in2="effect2_dropShadow_2180_404809" result="shape"/>
</filter>
<filter id="filter3_dd_2180_404809" x="29.9617" y="32.0872" width="26.9296" height="26.9296" filterUnits="userSpaceOnUse" color-interpolation-filters="sRGB">
<feFlood flood-opacity="0" result="BackgroundImageFix"/>
<feColorMatrix in="SourceAlpha" type="matrix" values="0 0 0 0 0 0 0 0 0 0 0 0 0 0 0 0 0 0 127 0" result="hardAlpha"/>
<feOffset/>
<feGaussianBlur stdDeviation="1.41735"/>
<feComposite in2="hardAlpha" operator="out"/>
<feColorMatrix type="matrix" values="0 0 0 0 0.305882 0 0 0 0 0.435294 0 0 0 0 0.627451 0 0 0 0.16 0"/>
<feBlend mode="normal" in2="BackgroundImageFix" result="effect1_dropShadow_2180_404809"/>
<feColorMatrix in="SourceAlpha" type="matrix" values="0 0 0 0 0 0 0 0 0 0 0 0 0 0 0 0 0 0 127 0" result="hardAlpha"/>
<feOffset dy="2.8347"/>
<feGaussianBlur stdDeviation="2.8347"/>
<feComposite in2="hardAlpha" operator="out"/>
<feColorMatrix type="matrix" values="0 0 0 0 0.304097 0 0 0 0 0.434125 0 0 0 0 0.629167 0 0 0 0.12 0"/>
<feBlend mode="normal" in2="effect1_dropShadow_2180_404809" result="effect2_dropShadow_2180_404809"/>
<feBlend mode="normal" in="SourceGraphic" in2="effect2_dropShadow_2180_404809" result="shape"/>
</filter>
<linearGradient id="paint0_linear_2180_404809" x1="23.6656" y1="11.1455" x2="21.4983" y2="28.7664" gradientUnits="userSpaceOnUse">
<stop stop-color="#DBEBFF"/>
<stop offset="1" stop-color="#CADEFF"/>
</linearGradient>
<linearGradient id="paint1_linear_2180_404809" x1="23.6656" y1="33.1143" x2="21.4983" y2="50.7351" gradientUnits="userSpaceOnUse">
<stop stop-color="#DBEBFF"/>
<stop offset="1" stop-color="#CADEFF"/>
</linearGradient>
<linearGradient id="paint2_linear_2180_404809" x1="45.6344" y1="11.1455" x2="43.4671" y2="28.7664" gradientUnits="userSpaceOnUse">
<stop stop-color="#DBEBFF"/>
<stop offset="1" stop-color="#CADEFF"/>
</linearGradient>
<clipPath id="clip0_2180_404809">
<rect x="5.86646" y="5.86621" width="52.442" height="51.7333" rx="2.8347" fill="white"/>
</clipPath>
<clipPath id="clip1_2180_404809">
<rect x="11.5361" y="11.5361" width="19.1342" height="18.7438" rx="1.56198" fill="white"/>
</clipPath>
<clipPath id="clip2_2180_404809">
<rect x="11.5361" y="33.5049" width="19.1342" height="18.7438" rx="1.56198" fill="white"/>
</clipPath>
<clipPath id="clip3_2180_404809">
<rect x="33.5049" y="11.5361" width="19.1342" height="18.7438" rx="1.56198" fill="white"/>
</clipPath>
</defs>
</svg>
