<svg viewBox="0 0 14 14" fill="none" xmlns="http://www.w3.org/2000/svg">
<path d="M10.0948 4.26146L5.84058 8.51571L3.91967 6.59479C3.86586 6.53908 3.80149 6.49464 3.73032 6.46407C3.65915 6.43349 3.5826 6.4174 3.50515 6.41673C3.4277 6.41606 3.35088 6.43082 3.27919 6.46015C3.2075 6.48948 3.14237 6.53279 3.0876 6.58756C3.03283 6.64233 2.98952 6.70746 2.96019 6.77915C2.93086 6.85084 2.9161 6.92765 2.91677 7.00511C2.91744 7.08256 2.93354 7.15911 2.96411 7.23028C2.99468 7.30145 3.03912 7.36581 3.09483 7.41963L5.42817 9.75296C5.48221 9.80732 5.54647 9.85045 5.61725 9.87989C5.68803 9.90933 5.76393 9.92448 5.84058 9.92448C5.91724 9.92448 5.99314 9.90933 6.06391 9.87989C6.13469 9.85045 6.19895 9.80732 6.253 9.75296L10.9197 5.08629C10.9754 5.03248 11.0198 4.96811 11.0504 4.89694C11.081 4.82578 11.0971 4.74923 11.0977 4.67178C11.0984 4.59432 11.0836 4.51751 11.0543 4.44582C11.025 4.37413 10.9817 4.309 10.9269 4.25423C10.8721 4.19946 10.807 4.15614 10.7353 4.12681C10.6636 4.09748 10.5868 4.08272 10.5093 4.0834C10.4319 4.08407 10.3553 4.10016 10.2842 4.13073C10.213 4.1613 10.1486 4.20574 10.0948 4.26146Z" fill="currentColor"/>
</svg>
