<svg viewBox="0 0 14 14" fill="none" xmlns="http://www.w3.org/2000/svg">
<path d="M6.99975 7.8247L10.2581 11.0831C10.4859 11.3109 10.8552 11.3109 11.0831 11.0831C11.3109 10.8552 11.3109 10.4859 11.0831 10.2581L7.8247 6.99975L11.0831 3.7414C11.3109 3.51359 11.3109 3.14424 11.0831 2.91644C10.8552 2.68863 10.4859 2.68863 10.2581 2.91644L6.99975 6.17479L3.74134 2.91639C3.51354 2.68858 3.14419 2.68858 2.91639 2.91639C2.68858 3.14419 2.68858 3.51354 2.91639 3.74134L6.17479 6.99975L2.91639 10.2581C2.68858 10.486 2.68858 10.8553 2.91639 11.0831C3.14419 11.3109 3.51354 11.3109 3.74134 11.0831L6.99975 7.8247Z" fill="currentColor"/>
</svg>
