<svg viewBox="0 0 14 14" fill="none" xmlns="http://www.w3.org/2000/svg">
<path d="M8.92098 7.17118L7.58346 8.5087V4.37533C7.58346 4.05316 7.32229 3.79199 7.00012 3.79199C6.67796 3.79199 6.41679 4.05316 6.41679 4.37533V8.5087L5.07927 7.17118L4.25431 7.99614L6.58765 10.3295C6.81545 10.5573 7.1848 10.5573 7.4126 10.3295L9.74594 7.99614L8.92098 7.17118Z" fill="currentColor"/>
<path fill-rule="evenodd" clip-rule="evenodd" d="M1.16675 7.00033C1.16675 3.77866 3.77842 1.16699 7.00008 1.16699C10.2217 1.16699 12.8334 3.77866 12.8334 7.00033C12.8334 10.222 10.2217 12.8337 7.00008 12.8337C3.77842 12.8337 1.16675 10.222 1.16675 7.00033ZM7.00008 2.33366C4.42275 2.33366 2.33341 4.423 2.33341 7.00033C2.33341 9.57765 4.42275 11.667 7.00008 11.667C9.57741 11.667 11.6667 9.57765 11.6667 7.00033C11.6667 4.423 9.57741 2.33366 7.00008 2.33366Z" fill="currentColor"/>
</svg>
