<svg width="14" height="14" viewBox="0 0 14 14" fill="none" xmlns="http://www.w3.org/2000/svg">
<path fill-rule="evenodd" clip-rule="evenodd" d="M8.92086 1.92085C9.14867 1.69305 9.51802 1.69305 9.74582 1.92085L12.0792 4.25419C12.307 4.48199 12.307 4.85134 12.0792 5.07915L5.66249 11.4958C5.58105 11.5772 5.47734 11.6328 5.36441 11.6553L2.44774 12.2387C2.25649 12.2769 2.05878 12.2171 1.92086 12.0791C1.78295 11.9412 1.72309 11.7435 1.76134 11.5523L2.34467 8.6356C2.36726 8.52267 2.42276 8.41895 2.5042 8.33752L8.92086 1.92085ZM3.45404 9.03759L3.07695 10.9231L4.96242 10.546L10.8417 4.66667L9.33334 3.15829L3.45404 9.03759Z" fill="currentColor"/>
</svg>
