<svg width="24" height="24" viewBox="0 0 24 24" fill="none" xmlns="http://www.w3.org/2000/svg">
<path fill-rule="evenodd" clip-rule="evenodd" d="M11.3655 4.07403C11.6016 3.97775 11.8656 3.9753 12.1035 4.06719L21.8604 7.83642C22.2389 7.98267 22.4916 8.34322 22.4998 8.74898C22.508 9.15475 22.2702 9.52523 21.8978 9.68669L19 10.9432V17.4114C19 17.651 18.9139 17.8827 18.7575 18.0642C17.2753 19.784 14.5113 20.5 12 20.5C9.48868 20.5 6.72467 19.784 5.2425 18.0642C5.08605 17.8827 5 17.651 5 17.4114V11.0133L4 10.5556L4 17H2L2 9.63528C1.68625 9.45426 1.4925 9.11527 1.50022 8.74821C1.50861 8.34948 1.75311 7.99385 2.1224 7.84326L11.3655 4.07403ZM12.141 13.9175L17 11.8105V17.0076C15.9958 17.9279 14.1047 18.5 12 18.5C9.89525 18.5 8.0042 17.9279 7 17.0076V11.9287L11.3269 13.9093C11.5848 14.0273 11.8807 14.0303 12.141 13.9175ZM11.7531 6.07588L5.01844 8.82219L11.7541 11.9053L18.8632 8.82263L11.7531 6.07588Z" fill="#2B2D33"/>
</svg>
