<svg width="15" height="14" viewBox="0 0 15 14" fill="none" xmlns="http://www.w3.org/2000/svg">
<path fill-rule="evenodd" clip-rule="evenodd" d="M8.13827 3.96947L7.57352 3.40472C7.24686 3.07806 6.71722 3.07806 6.39056 3.40472C6.06389 3.73139 6.06389 4.26102 6.39056 4.5877L6.95531 5.15244L2.16204 9.94571C1.50149 10.6063 1.50149 11.6772 2.16204 12.3378C2.82258 12.9983 3.89354 12.9983 4.55408 12.3378L9.34735 7.54449L9.91563 8.11277C10.2423 8.43944 10.7719 8.43944 11.0986 8.11277C11.4253 7.78609 11.4253 7.25646 11.0986 6.92979L10.5303 6.36151L12.8379 4.05396C13.4984 3.39341 13.4984 2.32246 12.8379 1.66191C12.1773 1.00137 11.1064 1.00137 10.4458 1.66191L8.13827 3.96947ZM8.56424 6.76138L3.77097 11.5546C3.54292 11.7827 3.17318 11.7827 2.94515 11.5546C2.7171 11.3266 2.7171 10.9569 2.94515 10.7288L7.73842 5.93556L8.56424 6.76138Z" fill="currentColor"/>
</svg>
