<svg width="24" height="24" viewBox="0 0 24 24" fill="none" xmlns="http://www.w3.org/2000/svg">
<path d="M10 3C9.44772 3 9 3.44772 9 4C9 4.55228 9.44772 5 10 5H14C14.5523 5 15 4.55228 15 4C15 3.44772 14.5523 3 14 3H10Z" fill="#2B2D33"/>
<path fill-rule="evenodd" clip-rule="evenodd" d="M4.92893 8.92895C6.5671 7.29078 8.71511 6.27968 11 6.05011H13C15.2849 6.27968 17.4329 7.29078 19.0711 8.92895C20.9464 10.8043 22 13.3479 22 16C22 16.5523 21.5523 17 21 17H3C2.44772 17 2 16.5523 2 16C2 13.3478 3.05357 10.8043 4.92893 8.92895ZM6.34315 10.3432C7.84344 8.84287 9.87827 8.00002 12 8.00002C14.1217 8.00002 16.1566 8.84287 17.6569 10.3432C18.9195 11.6058 19.7165 13.247 19.9373 15L4.06272 15C4.28353 13.247 5.08052 11.6058 6.34315 10.3432Z" fill="#2B2D33"/>
<path d="M2 21H22V19H2V21Z" fill="#2B2D33"/>
</svg>
