<svg viewBox="0 0 57 40" fill="none" xmlns="http://www.w3.org/2000/svg">
<path d="M5.82328 8.93285L14.1919 7.53809V34.7689L10.8446 35.4735C7.8679 36.1002 4.957 34.1599 4.39018 31.1712L1.38044 15.3017C0.812738 12.3083 2.81804 9.43372 5.82328 8.93285Z" fill="white" stroke="#4F7FFF" stroke-width="1.5"/>
<path d="M51.1757 8.93285L42.8072 7.53809V34.7689L46.1544 35.4735C49.1311 36.1002 52.042 34.1599 52.6088 31.1712L55.6186 15.3017C56.1863 12.3083 54.181 9.43372 51.1757 8.93285Z" fill="white" stroke="#4F7FFF" stroke-width="1.5"/>
<g filter="url(#filter0_d_1101_62828)">
<rect x="13.2686" y="2" width="30.4615" height="36" rx="5.43077" fill="white"/>
<rect x="14.0186" y="2.75" width="28.9615" height="34.5" rx="4.68077" stroke="#4F7FFF" stroke-width="1.5"/>
</g>
<path d="M38.2993 37.2498H18.6993C16.1142 37.2498 14.0186 35.1542 14.0186 32.5691V30.4294C14.0186 30.3898 14.0337 30.3517 14.0609 30.3229L23.937 19.8569C24 19.7902 24.1068 19.7923 24.1669 19.8616L24.7204 19.3806L24.1669 19.8616L31.6674 28.4928C32.33 29.2553 33.5152 29.2515 34.173 28.4848L38.2349 23.7498C38.2952 23.6795 38.4032 23.6774 38.4663 23.7452L42.9386 28.5576C42.9653 28.5863 42.9801 28.624 42.9801 28.6632V32.5691C42.9801 35.1542 40.8844 37.2498 38.2993 37.2498Z" fill="#EBF3FF" stroke="#4F7FFF" stroke-width="1.5"/>
<circle cx="32.1919" cy="13.5386" r="3.40385" fill="#EBF3FF" stroke="#4F7FFF" stroke-width="1.5"/>
<defs>
<filter id="filter0_d_1101_62828" x="11.2686" y="0" width="38.4619" height="44" filterUnits="userSpaceOnUse" color-interpolation-filters="sRGB">
<feFlood flood-opacity="0" result="BackgroundImageFix"/>
<feColorMatrix in="SourceAlpha" type="matrix" values="0 0 0 0 0 0 0 0 0 0 0 0 0 0 0 0 0 0 127 0" result="hardAlpha"/>
<feOffset dx="2" dy="2"/>
<feGaussianBlur stdDeviation="2"/>
<feComposite in2="hardAlpha" operator="out"/>
<feColorMatrix type="matrix" values="0 0 0 0 0.180392 0 0 0 0 0.25098 0 0 0 0 0.392157 0 0 0 0.04 0"/>
<feBlend mode="normal" in2="BackgroundImageFix" result="effect1_dropShadow_1101_62828"/>
<feBlend mode="normal" in="SourceGraphic" in2="effect1_dropShadow_1101_62828" result="shape"/>
</filter>
</defs>
</svg>
