<svg xmlns="http://www.w3.org/2000/svg" width="14" height="14" viewBox="0 0 14 14" fill="none">
<path d="M7.23438 5.47571C6.93067 5.92053 6.96808 6.53063 7.35184 6.93532L7.36286 6.94654C7.61246 7.2029 7.76762 7.5162 7.82894 7.84335C7.82973 7.84759 7.83051 7.85183 7.83127 7.85608C7.90058 8.24156 7.83986 8.64546 7.65007 8.99753C7.56764 9.15045 7.46085 9.29359 7.32979 9.42119L6.07593 10.642C5.38344 11.3162 4.2755 11.3014 3.60127 10.6089C2.92705 9.91643 2.94185 8.80849 3.63434 8.13426L4.80574 6.99376C4.68964 6.53448 4.66813 6.0565 4.74079 5.59064C4.50232 5.7174 4.27759 5.87967 4.07434 6.07756L2.82048 7.29836C1.66633 8.42206 1.64166 10.2686 2.76537 11.4228C3.88907 12.5769 5.73564 12.6016 6.88979 11.4779L8.14365 10.2571C8.52429 9.8865 8.78207 9.43728 8.91633 8.9602C8.92201 8.94002 8.92747 8.91979 8.93271 8.89952C9.03432 8.5061 9.0527 8.09537 8.98748 7.69539C8.89458 7.12563 8.63203 6.57769 8.19876 6.13268C7.91564 5.84189 7.58664 5.6228 7.23438 5.47571Z" fill="currentColor"/>
<path d="M6.65769 5.30249C6.46581 5.65843 6.40586 6.06736 6.47883 6.45667C6.54014 6.78382 6.6953 7.09711 6.9449 7.35347C7.3388 7.75804 7.37993 8.37532 7.07338 8.8243C6.72112 8.67721 6.39211 8.45812 6.109 8.16733C5.67573 7.72233 5.41318 7.17438 5.32028 6.60462C5.2517 6.18403 5.27556 5.75155 5.39143 5.33981C5.52569 4.86273 5.78347 4.41351 6.16411 4.04291L7.41797 2.82212C8.57212 1.69841 10.4187 1.72309 11.5424 2.87724C12.6661 4.03138 12.6414 5.87795 11.4873 7.00166L10.2334 8.22245C10.0302 8.42034 9.80544 8.58261 9.56697 8.70938C9.63963 8.24351 9.61812 7.76553 9.50202 7.30625L10.6734 6.16575C11.3659 5.49153 11.3807 4.38359 10.7065 3.6911C10.0323 2.99861 8.92432 2.9838 8.23183 3.65803L6.97797 4.87882C6.84691 5.00642 6.74012 5.14957 6.65769 5.30249Z" fill="currentColor"/>
</svg>
