<svg width="120" height="32" viewBox="0 0 120 32" fill="none" xmlns="http://www.w3.org/2000/svg">
<path d="M6.63492 8.75977L0 12.7502V22.3192L13.231 22.2785V12.7095L6.63492 8.75977ZM2.40564 19.9982V13.7275H4.46208L5.8589 15.2748H10.903V19.9575L2.40564 19.9982Z" fill="#3755FA"/>
<path d="M56.1849 14.3012L54.0506 14.4391C54.0141 14.2476 53.9357 14.0753 53.8153 13.9222C53.6949 13.7652 53.5362 13.6408 53.3392 13.5489C53.1458 13.4532 52.9141 13.4053 52.6442 13.4053C52.283 13.4053 51.9783 13.4857 51.7302 13.6465C51.4821 13.8035 51.3581 14.0141 51.3581 14.2783C51.3581 14.4889 51.4384 14.6669 51.5989 14.8124C51.7594 14.9579 52.0349 15.0746 52.4252 15.1627L53.9466 15.4843C54.7638 15.6604 55.3731 15.9438 55.7744 16.3343C56.1758 16.7248 56.3764 17.2379 56.3764 17.8735C56.3764 18.4516 56.2141 18.9589 55.8894 19.3954C55.5683 19.8319 55.1269 20.1726 54.565 20.4177C54.0068 20.6589 53.3629 20.7795 52.6332 20.7795C51.5205 20.7795 50.6339 20.5364 49.9736 20.0501C49.3169 19.56 48.9319 18.8938 48.8188 18.0515L51.1118 17.9251C51.1812 18.2812 51.349 18.5531 51.6153 18.7407C51.8816 18.9244 52.2228 19.0163 52.6387 19.0163C53.0473 19.0163 53.3756 18.934 53.6237 18.7694C53.8755 18.6009 54.0032 18.3846 54.0068 18.1204C54.0032 17.8983 53.9138 17.7165 53.7387 17.5748C53.5635 17.4293 53.2936 17.3183 52.9287 17.2417L51.473 16.9373C50.6521 16.765 50.041 16.4664 49.6397 16.0414C49.2421 15.6164 49.0432 15.0746 49.0432 14.4161C49.0432 13.8495 49.1892 13.3613 49.481 12.9516C49.7765 12.5419 50.1906 12.2261 50.7233 12.004C51.2596 11.7819 51.8871 11.6709 52.6058 11.6709C53.6675 11.6709 54.503 11.9064 55.1123 12.3773C55.7252 12.8482 56.0827 13.4895 56.1849 14.3012Z" fill="#334155"/>
<path d="M61.9506 20.7795C61.1005 20.7795 60.3654 20.59 59.7451 20.2109C59.1286 19.828 58.6525 19.2958 58.3168 18.6143C57.9812 17.929 57.8133 17.1345 57.8133 16.2309C57.8133 15.3197 57.9812 14.5233 58.3168 13.8418C58.6525 13.1564 59.1286 12.6243 59.7451 12.2452C60.3654 11.8623 61.1005 11.6709 61.9506 11.6709C62.8006 11.6709 63.534 11.8623 64.1505 12.2452C64.7708 12.6243 65.2487 13.1564 65.5843 13.8418C65.92 14.5233 66.0878 15.3197 66.0878 16.2309C66.0878 17.1345 65.92 17.929 65.5843 18.6143C65.2487 19.2958 64.7708 19.828 64.1505 20.2109C63.534 20.59 62.8006 20.7795 61.9506 20.7795ZM61.9615 18.8842C62.3482 18.8842 62.6711 18.7694 62.9302 18.5397C63.1892 18.3061 63.3844 17.9883 63.5157 17.5863C63.6507 17.1843 63.7182 16.7268 63.7182 16.2137C63.7182 15.7006 63.6507 15.2431 63.5157 14.8411C63.3844 14.4391 63.1892 14.1213 62.9302 13.8877C62.6711 13.6542 62.3482 13.5374 61.9615 13.5374C61.5711 13.5374 61.2428 13.6542 60.9765 13.8877C60.7138 14.1213 60.5149 14.4391 60.38 14.8411C60.2486 15.2431 60.1829 15.7006 60.1829 16.2137C60.1829 16.7268 60.2486 17.1843 60.38 17.5863C60.5149 17.9883 60.7138 18.3061 60.9765 18.5397C61.2428 18.7694 61.5711 18.8842 61.9615 18.8842Z" fill="#334155"/>
<path d="M70.2432 8.84528V20.6072H67.9119V8.84528H70.2432Z" fill="#334155"/>
<path d="M77.8094 16.8512V11.7858H80.1407V20.6072H77.9024V19.0049H77.8148C77.6251 19.5217 77.3095 19.9372 76.8681 20.2511C76.4303 20.5651 75.8958 20.722 75.2646 20.722C74.7028 20.722 74.2084 20.588 73.7816 20.32C73.3547 20.052 73.0209 19.6711 72.7801 19.1771C72.543 18.6832 72.4226 18.0917 72.4189 17.4025V11.7858H74.7502V16.966C74.7539 17.4868 74.887 17.8983 75.1497 18.2008C75.4124 18.5033 75.7645 18.6545 76.2059 18.6545C76.4868 18.6545 76.7495 18.5875 76.994 18.4535C77.2384 18.3157 77.4354 18.1128 77.585 17.8447C77.7382 17.5767 77.813 17.2455 77.8094 16.8512Z" fill="#334155"/>
<path d="M86.7847 11.7858V13.6236H81.7226V11.7858H86.7847ZM82.8719 9.67229H85.2032V17.8964C85.2032 18.1223 85.236 18.2985 85.3017 18.4248C85.3673 18.5473 85.4585 18.6335 85.5753 18.6832C85.6957 18.733 85.8343 18.7579 85.9912 18.7579C86.1006 18.7579 86.2101 18.7483 86.3195 18.7292C86.429 18.7062 86.5129 18.689 86.5713 18.6775L86.938 20.4981C86.8212 20.5364 86.657 20.5804 86.4454 20.6302C86.2338 20.6838 85.9766 20.7163 85.6738 20.7278C85.1119 20.7508 84.6194 20.6723 84.1962 20.4923C83.7766 20.3124 83.4501 20.0329 83.2166 19.6538C82.9831 19.2748 82.8682 18.7962 82.8719 18.218V9.67229Z" fill="#334155"/>
<path d="M88.6116 20.6072V11.7858H90.9429V20.6072H88.6116ZM89.7827 10.6486C89.4361 10.6486 89.1387 10.528 88.8907 10.2868C88.6462 10.0418 88.524 9.74887 88.524 9.40811C88.524 9.07118 88.6462 8.78211 88.8907 8.5409C89.1387 8.29586 89.4361 8.17334 89.7827 8.17334C90.1293 8.17334 90.4248 8.29586 90.6692 8.5409C90.9173 8.78211 91.0414 9.07118 91.0414 9.40811C91.0414 9.74887 90.9173 10.0418 90.6692 10.2868C90.4248 10.528 90.1293 10.6486 89.7827 10.6486Z" fill="#334155"/>
<path d="M96.9165 20.7795C96.0664 20.7795 95.3313 20.59 94.7111 20.2109C94.0945 19.828 93.6184 19.2958 93.2827 18.6143C92.9471 17.929 92.7793 17.1345 92.7793 16.2309C92.7793 15.3197 92.9471 14.5233 93.2827 13.8418C93.6184 13.1564 94.0945 12.6243 94.7111 12.2452C95.3313 11.8623 96.0664 11.6709 96.9165 11.6709C97.7666 11.6709 98.4999 11.8623 99.1165 12.2452C99.7367 12.6243 100.215 13.1564 100.55 13.8418C100.886 14.5233 101.054 15.3197 101.054 16.2309C101.054 17.1345 100.886 17.929 100.55 18.6143C100.215 19.2958 99.7367 19.828 99.1165 20.2109C98.4999 20.59 97.7666 20.7795 96.9165 20.7795ZM96.9275 18.8842C97.3142 18.8842 97.6371 18.7694 97.8961 18.5397C98.1551 18.3061 98.3503 17.9883 98.4817 17.5863C98.6166 17.1843 98.6841 16.7268 98.6841 16.2137C98.6841 15.7006 98.6166 15.2431 98.4817 14.8411C98.3503 14.4391 98.1551 14.1213 97.8961 13.8877C97.6371 13.6542 97.3142 13.5374 96.9275 13.5374C96.5371 13.5374 96.2087 13.6542 95.9424 13.8877C95.6797 14.1213 95.4809 14.4391 95.3459 14.8411C95.2146 15.2431 95.1489 15.7006 95.1489 16.2137C95.1489 16.7268 95.2146 17.1843 95.3459 17.5863C95.4809 17.9883 95.6797 18.3061 95.9424 18.5397C96.2087 18.7694 96.5371 18.8842 96.9275 18.8842Z" fill="#334155"/>
<path d="M105.209 15.5073V20.6072H102.878V11.7858H105.1V13.3421H105.198C105.384 12.8291 105.696 12.4232 106.134 12.1246C106.572 11.8221 107.103 11.6709 107.727 11.6709C108.31 11.6709 108.819 11.8049 109.253 12.0729C109.688 12.3409 110.025 12.7238 110.266 13.2215C110.507 13.7154 110.627 14.3051 110.627 14.9904V20.6072H108.296V15.4269C108.299 14.887 108.168 14.4659 107.902 14.1634C107.635 13.8571 107.269 13.704 106.802 13.704C106.488 13.704 106.211 13.7748 105.97 13.9165C105.733 14.0581 105.547 14.2649 105.412 14.5367C105.28 14.8047 105.213 15.1283 105.209 15.5073Z" fill="#334155"/>
<path d="M119.766 14.3012L117.632 14.4391C117.596 14.2476 117.517 14.0753 117.397 13.9222C117.276 13.7652 117.118 13.6408 116.921 13.5489C116.727 13.4532 116.496 13.4053 116.226 13.4053C115.865 13.4053 115.56 13.4857 115.312 13.6465C115.064 13.8035 114.94 14.0141 114.94 14.2783C114.94 14.4889 115.02 14.6669 115.18 14.8124C115.341 14.9579 115.616 15.0746 116.007 15.1627L117.528 15.4843C118.345 15.6604 118.955 15.9438 119.356 16.3343C119.757 16.7248 119.958 17.2379 119.958 17.8735C119.958 18.4516 119.796 18.9589 119.471 19.3954C119.15 19.8319 118.708 20.1726 118.147 20.4177C117.588 20.6589 116.944 20.7795 116.215 20.7795C115.102 20.7795 114.215 20.5364 113.555 20.0501C112.898 19.56 112.514 18.8938 112.4 18.0515L114.693 17.9251C114.763 18.2812 114.931 18.5531 115.197 18.7407C115.463 18.9244 115.804 19.0163 116.22 19.0163C116.629 19.0163 116.957 18.934 117.205 18.7694C117.457 18.6009 117.585 18.3846 117.588 18.1204C117.585 17.8983 117.495 17.7165 117.32 17.5748C117.145 17.4293 116.875 17.3183 116.51 17.2417L115.055 16.9373C114.234 16.765 113.623 16.4664 113.221 16.0414C112.824 15.6164 112.625 15.0746 112.625 14.4161C112.625 13.8495 112.771 13.3613 113.063 12.9516C113.358 12.5419 113.772 12.2261 114.305 12.004C114.841 11.7819 115.469 11.6709 116.187 11.6709C117.249 11.6709 118.085 11.9064 118.694 12.3773C119.307 12.8482 119.664 13.4895 119.766 14.3012Z" fill="#334155"/>
<path d="M18.4912 20.6074V11.786H20.7514V13.3252H20.8389C20.9922 12.7777 21.2494 12.3642 21.6106 12.0847C21.9717 11.8013 22.3877 11.6597 22.8583 11.6597C22.975 11.6597 23.1009 11.6673 23.2359 11.6826C23.3709 11.698 23.4895 11.719 23.5916 11.7458V13.9167C23.4822 13.8823 23.3308 13.8516 23.1374 13.8248C22.944 13.798 22.7671 13.7846 22.6066 13.7846C22.2636 13.7846 21.9571 13.8631 21.6872 14.0201C21.4208 14.1732 21.2092 14.3876 21.0524 14.6633C20.8991 14.939 20.8225 15.2568 20.8225 15.6167V20.6074H18.4912Z" fill="#3755FA"/>
<path d="M28.5446 20.7797C27.68 20.7797 26.9357 20.596 26.3118 20.2284C25.6916 19.857 25.2137 19.3325 24.878 18.6548C24.5424 17.9733 24.3746 17.1673 24.3746 16.2369C24.3746 15.3295 24.5424 14.5331 24.878 13.8478C25.2137 13.1624 25.6862 12.6283 26.2954 12.2455C26.9083 11.8626 27.6271 11.6712 28.4516 11.6712C29.0062 11.6712 29.5224 11.765 30.0003 11.9526C30.4819 12.1363 30.9015 12.4139 31.259 12.7853C31.6202 13.1567 31.9011 13.6238 32.1018 14.1866C32.3024 14.7456 32.4028 15.4003 32.4028 16.1508V16.8227H25.3049V15.3065H30.2083C30.2083 14.9543 30.1353 14.6423 29.9894 14.3704C29.8435 14.0986 29.641 13.8861 29.3819 13.7329C29.1265 13.576 28.8292 13.4975 28.4899 13.4975C28.136 13.4975 27.8223 13.5836 27.5486 13.7559C27.2787 13.9244 27.0671 14.1522 26.9138 14.4393C26.7606 14.7227 26.6822 15.0385 26.6785 15.3869V16.8285C26.6785 17.2649 26.7551 17.6421 26.9083 17.9599C27.0652 18.2777 27.286 18.5227 27.5705 18.695C27.8551 18.8673 28.1926 18.9534 28.5829 18.9534C28.842 18.9534 29.0791 18.9151 29.2944 18.8386C29.5096 18.762 29.6939 18.6471 29.8471 18.494C30.0003 18.3408 30.1171 18.1532 30.1973 17.9311L32.3535 18.0805C32.2441 18.6242 32.0197 19.0989 31.6804 19.5048C31.3447 19.9068 30.9106 20.2207 30.3779 20.4466C29.8489 20.6687 29.2378 20.7797 28.5446 20.7797Z" fill="#3755FA"/>
<path d="M38.0193 24.0993C37.2641 24.0993 36.6165 23.9901 36.0766 23.7719C35.5403 23.5575 35.1134 23.2646 34.796 22.8932C34.4786 22.5218 34.2725 22.1045 34.1776 21.6412L36.3338 21.3368C36.3995 21.5129 36.5035 21.6776 36.6457 21.8307C36.788 21.9839 36.9759 22.1064 37.2094 22.1983C37.4466 22.294 37.7348 22.3419 38.0741 22.3419C38.5812 22.3419 38.9989 22.2117 39.3273 21.9513C39.6593 21.6948 39.8253 21.2641 39.8253 20.6591V19.0453H39.7268C39.6246 19.2904 39.4714 19.522 39.2671 19.7402C39.0628 19.9585 38.8001 20.1365 38.479 20.2743C38.158 20.4122 37.7749 20.4811 37.3298 20.4811C36.6986 20.4811 36.124 20.3279 35.606 20.0216C35.0915 19.7115 34.6811 19.2387 34.3746 18.6031C34.0718 17.9637 33.9204 17.1558 33.9204 16.1795C33.9204 15.1802 34.0755 14.3455 34.3856 13.6755C34.6957 13.0055 35.108 12.5039 35.6224 12.1708C36.1404 11.8377 36.7078 11.6712 37.3243 11.6712C37.795 11.6712 38.189 11.7554 38.5064 11.9239C38.8238 12.0885 39.0792 12.2952 39.2726 12.5441C39.4696 12.7891 39.621 13.0304 39.7268 13.2677H39.8143V11.786H42.1292V20.6936C42.1292 21.444 41.9541 22.0719 41.6038 22.5773C41.2536 23.0827 40.7684 23.4618 40.1482 23.7145C39.5316 23.971 38.822 24.0993 38.0193 24.0993ZM38.0686 18.6433C38.4444 18.6433 38.7618 18.5457 39.0208 18.3504C39.2835 18.1513 39.4842 17.868 39.6228 17.5004C39.7651 17.129 39.8362 16.6849 39.8362 16.168C39.8362 15.6511 39.7669 15.2032 39.6283 14.8241C39.4896 14.4412 39.289 14.1445 39.0263 13.9339C38.7636 13.7234 38.4444 13.6181 38.0686 13.6181C37.6855 13.6181 37.3626 13.7272 37.1 13.9454C36.8373 14.1598 36.6384 14.4585 36.5035 14.8414C36.3685 15.2242 36.301 15.6664 36.301 16.168C36.301 16.6772 36.3685 17.1175 36.5035 17.4889C36.6421 17.8565 36.8409 18.1417 37.1 18.3447C37.3626 18.5437 37.6855 18.6433 38.0686 18.6433Z" fill="#3755FA"/>
<path d="M45.6553 20.7568C45.2941 20.7568 44.984 20.6228 44.7249 20.3547C44.4696 20.0829 44.3419 19.7575 44.3419 19.3784C44.3419 19.0032 44.4696 18.6816 44.7249 18.4136C44.984 18.1456 45.2941 18.0116 45.6553 18.0116C46.0055 18.0116 46.312 18.1456 46.5747 18.4136C46.8373 18.6816 46.9687 19.0032 46.9687 19.3784C46.9687 19.6311 46.9067 19.8628 46.7826 20.0733C46.6622 20.2801 46.5035 20.4466 46.3065 20.573C46.1095 20.6955 45.8924 20.7568 45.6553 20.7568Z" fill="#3755FA"/>
</svg>
