<svg width="170" height="23" viewBox="0 0 170 23" fill="none" xmlns="http://www.w3.org/2000/svg">
<path d="M9.39946 1.24316L0 6.89633V20.4524L18.744 20.3947V6.83865L9.39946 1.24316ZM3.40799 17.1643V8.28078H6.32128L8.30011 10.4728H15.4459V17.1067L3.40799 17.1643Z" fill="#3755FA"/>
<path d="M79.5954 9.09355L76.5718 9.28882C76.5201 9.01761 76.409 8.77353 76.2384 8.55657C76.0679 8.33418 75.843 8.1579 75.5639 8.02772C75.29 7.89212 74.9618 7.82432 74.5793 7.82432C74.0677 7.82432 73.6361 7.93823 73.2846 8.16604C72.9332 8.38842 72.7574 8.68674 72.7574 9.061C72.7574 9.35933 72.8711 9.61155 73.0986 9.81766C73.326 10.0238 73.7162 10.1892 74.2692 10.314L76.4245 10.7696C77.5822 11.0191 78.4454 11.4205 79.0139 11.9737C79.5824 12.527 79.8667 13.2538 79.8667 14.1542C79.8667 14.9732 79.6367 15.6919 79.1767 16.3103C78.7219 16.9286 78.0965 17.4113 77.3006 17.7585C76.5098 18.1002 75.5975 18.271 74.5638 18.271C72.9874 18.271 71.7315 17.9266 70.796 17.2378C69.8657 16.5435 69.3204 15.5997 69.1602 14.4064L72.4086 14.2274C72.5068 14.7319 72.7445 15.117 73.1218 15.3827C73.4991 15.6431 73.9824 15.7733 74.5716 15.7733C75.1505 15.7733 75.6156 15.6567 75.9671 15.4234C76.3237 15.1848 76.5046 14.8783 76.5098 14.504C76.5046 14.1894 76.378 13.9318 76.1299 13.7311C75.8818 13.525 75.4993 13.3677 74.9825 13.2592L72.9202 12.828C71.7573 12.5839 70.8916 12.1609 70.3231 11.5588C69.7597 10.9567 69.478 10.1892 69.478 9.25627C69.478 8.45351 69.6848 7.76194 70.0982 7.18157C70.5169 6.6012 71.1035 6.15371 71.8581 5.83912C72.6179 5.52452 73.5069 5.36723 74.5251 5.36723C76.0291 5.36723 77.2127 5.7008 78.0758 6.36796C78.9441 7.03512 79.4506 7.94365 79.5954 9.09355Z" fill="#334155"/>
<path d="M87.7634 18.271C86.5592 18.271 85.5177 18.0026 84.6391 17.4656C83.7656 16.9232 83.0911 16.1692 82.6156 15.2037C82.1401 14.2328 81.9024 13.1073 81.9024 11.8273C81.9024 10.5363 82.1401 9.40814 82.6156 8.44266C83.0911 7.47176 83.7656 6.71781 84.6391 6.18083C85.5177 5.63843 86.5592 5.36723 87.7634 5.36723C88.9677 5.36723 90.0066 5.63843 90.88 6.18083C91.7587 6.71781 92.4358 7.47176 92.9113 8.44266C93.3868 9.40814 93.6245 10.5363 93.6245 11.8273C93.6245 13.1073 93.3868 14.2328 92.9113 15.2037C92.4358 16.1692 91.7587 16.9232 90.88 17.4656C90.0066 18.0026 88.9677 18.271 87.7634 18.271ZM87.7789 15.5861C88.3268 15.5861 88.7842 15.4234 89.1512 15.098C89.5181 14.7671 89.7947 14.3169 89.9807 13.7474C90.172 13.1779 90.2676 12.5297 90.2676 11.8029C90.2676 11.076 90.172 10.4279 89.9807 9.85834C89.7947 9.28882 89.5181 8.83862 89.1512 8.50775C88.7842 8.17689 88.3268 8.01145 87.7789 8.01145C87.2259 8.01145 86.7607 8.17689 86.3834 8.50775C86.0113 8.83862 85.7296 9.28882 85.5384 9.85834C85.3523 10.4279 85.2593 11.076 85.2593 11.8029C85.2593 12.5297 85.3523 13.1779 85.5384 13.7474C85.7296 14.3169 86.0113 14.7671 86.3834 15.098C86.7607 15.4234 87.2259 15.5861 87.7789 15.5861Z" fill="#334155"/>
<path d="M99.5113 1.36428V18.027H96.2087V1.36428H99.5113Z" fill="#334155"/>
<path d="M110.23 12.706V5.52995H113.533V18.027H110.362V15.757H110.238C109.969 16.4892 109.522 17.0778 108.897 17.5225C108.276 17.9673 107.519 18.1897 106.625 18.1897C105.829 18.1897 105.129 17.9998 104.524 17.6202C103.919 17.2405 103.446 16.7008 103.105 16.0011C102.769 15.3014 102.599 14.4634 102.594 13.487V5.52995H105.896V12.8687C105.901 13.6064 106.09 14.1894 106.462 14.6179C106.834 15.0464 107.333 15.2607 107.959 15.2607C108.356 15.2607 108.729 15.1658 109.075 14.9759C109.421 14.7807 109.7 14.4932 109.912 14.1135C110.129 13.7338 110.235 13.2646 110.23 12.706Z" fill="#334155"/>
<path d="M122.945 5.52995V8.13349H115.774V5.52995H122.945ZM117.402 2.53587H120.705V14.1867C120.705 14.5068 120.751 14.7563 120.844 14.9353C120.937 15.1088 121.066 15.2309 121.232 15.3014C121.402 15.3719 121.599 15.4071 121.821 15.4071C121.976 15.4071 122.131 15.3936 122.286 15.3665C122.441 15.3339 122.56 15.3095 122.643 15.2932L123.162 17.8724C122.997 17.9266 122.764 17.989 122.464 18.0595C122.165 18.1354 121.8 18.1815 121.371 18.1978C120.575 18.2304 119.878 18.1192 119.278 17.8642C118.684 17.6093 118.221 17.2134 117.89 16.6764C117.56 16.1394 117.397 15.4614 117.402 14.6424V2.53587Z" fill="#334155"/>
<path d="M125.533 18.027V5.52995H128.836V18.027H125.533ZM127.192 3.919C126.701 3.919 126.28 3.74815 125.929 3.40643C125.582 3.05929 125.409 2.64435 125.409 2.16161C125.409 1.68429 125.582 1.27478 125.929 0.933063C126.28 0.585923 126.701 0.412354 127.192 0.412354C127.683 0.412354 128.102 0.585923 128.448 0.933063C128.8 1.27478 128.975 1.68429 128.975 2.16161C128.975 2.64435 128.8 3.05929 128.448 3.40643C128.102 3.74815 127.683 3.919 127.192 3.919Z" fill="#334155"/>
<path d="M137.299 18.271C136.094 18.271 135.053 18.0026 134.174 17.4656C133.301 16.9232 132.626 16.1692 132.151 15.2037C131.675 14.2328 131.437 13.1073 131.437 11.8273C131.437 10.5363 131.675 9.40814 132.151 8.44266C132.626 7.47176 133.301 6.71781 134.174 6.18083C135.053 5.63843 136.094 5.36723 137.299 5.36723C138.503 5.36723 139.542 5.63843 140.415 6.18083C141.294 6.71781 141.971 7.47176 142.446 8.44266C142.922 9.40814 143.16 10.5363 143.16 11.8273C143.16 13.1073 142.922 14.2328 142.446 15.2037C141.971 16.1692 141.294 16.9232 140.415 17.4656C139.542 18.0026 138.503 18.271 137.299 18.271ZM137.314 15.5861C137.862 15.5861 138.319 15.4234 138.686 15.098C139.053 14.7671 139.33 14.3169 139.516 13.7474C139.707 13.1779 139.803 12.5297 139.803 11.8029C139.803 11.076 139.707 10.4279 139.516 9.85834C139.33 9.28882 139.053 8.83862 138.686 8.50775C138.319 8.17689 137.862 8.01145 137.314 8.01145C136.761 8.01145 136.296 8.17689 135.919 8.50775C135.546 8.83862 135.265 9.28882 135.073 9.85834C134.887 10.4279 134.794 11.076 134.794 11.8029C134.794 12.5297 134.887 13.1779 135.073 13.7474C135.265 14.3169 135.546 14.7671 135.919 15.098C136.296 15.4234 136.761 15.5861 137.314 15.5861Z" fill="#334155"/>
<path d="M149.046 10.8021V18.027H145.744V5.52995H148.891V7.73483H149.031C149.295 7.008 149.736 6.43305 150.357 6.00997C150.977 5.58148 151.729 5.36723 152.613 5.36723C153.44 5.36723 154.161 5.55707 154.776 5.93675C155.391 6.31643 155.869 6.85884 156.21 7.56397C156.551 8.26367 156.722 9.09897 156.722 10.0699V18.027H153.419V10.6882C153.424 9.92343 153.238 9.32678 152.861 8.89828C152.483 8.46436 151.964 8.2474 151.302 8.2474C150.858 8.2474 150.465 8.34774 150.124 8.54843C149.788 8.74912 149.525 9.04202 149.333 9.42713C149.147 9.80681 149.052 10.2651 149.046 10.8021Z" fill="#334155"/>
<path d="M169.669 9.09355L166.646 9.28882C166.594 9.01761 166.483 8.77353 166.312 8.55657C166.142 8.33418 165.917 8.1579 165.638 8.02772C165.364 7.89212 165.036 7.82432 164.653 7.82432C164.142 7.82432 163.71 7.93823 163.359 8.16604C163.007 8.38842 162.831 8.68674 162.831 9.061C162.831 9.35933 162.945 9.61155 163.172 9.81766C163.4 10.0238 163.79 10.1892 164.343 10.314L166.498 10.7696C167.656 11.0191 168.519 11.4205 169.088 11.9737C169.656 12.527 169.941 13.2538 169.941 14.1542C169.941 14.9732 169.711 15.6919 169.251 16.3103C168.796 16.9286 168.17 17.4113 167.374 17.7585C166.584 18.1002 165.671 18.271 164.638 18.271C163.061 18.271 161.805 17.9266 160.87 17.2378C159.94 16.5435 159.394 15.5997 159.234 14.4064L162.482 14.2274C162.581 14.7319 162.818 15.117 163.196 15.3827C163.573 15.6431 164.056 15.7733 164.646 15.7733C165.224 15.7733 165.69 15.6567 166.041 15.4234C166.398 15.1848 166.579 14.8783 166.584 14.504C166.579 14.1894 166.452 13.9318 166.204 13.7311C165.956 13.525 165.573 13.3677 165.056 13.2592L162.994 12.828C161.831 12.5839 160.966 12.1609 160.397 11.5588C159.834 10.9567 159.552 10.1892 159.552 9.25627C159.552 8.45351 159.759 7.76194 160.172 7.18157C160.591 6.6012 161.177 6.15371 161.932 5.83912C162.692 5.52452 163.581 5.36723 164.599 5.36723C166.103 5.36723 167.287 5.7008 168.15 6.36796C169.018 7.03512 169.525 7.94365 169.669 9.09355Z" fill="#334155"/>
<path d="M26.196 18.0271V5.53007H29.3979V7.71054H29.522C29.7391 6.9349 30.1034 6.3491 30.6151 5.95314C31.1268 5.55176 31.716 5.35107 32.3827 5.35107C32.5481 5.35107 32.7264 5.36192 32.9177 5.38362C33.1089 5.40532 33.2769 5.43515 33.4216 5.47312V8.54855C33.2666 8.49974 33.0521 8.45634 32.7781 8.41838C32.5042 8.38041 32.2535 8.36142 32.0261 8.36142C31.5403 8.36142 31.1061 8.47262 30.7237 8.695C30.3464 8.91196 30.0466 9.21571 29.8243 9.60624C29.6073 9.99678 29.4987 10.447 29.4987 10.9568V18.0271H26.196Z" fill="#3755FA"/>
<path d="M40.4384 18.2712C39.2135 18.2712 38.1591 18.0108 37.2753 17.4901C36.3966 16.964 35.7196 16.2209 35.2441 15.2608C34.7685 14.2953 34.5308 13.1536 34.5308 11.8355C34.5308 10.55 34.7685 9.42183 35.2441 8.45092C35.7196 7.48002 36.3889 6.72336 37.252 6.18095C38.1203 5.63855 39.1385 5.36735 40.3066 5.36735C41.0922 5.36735 41.8236 5.50024 42.5006 5.76601C43.1829 6.02637 43.7773 6.41961 44.2838 6.94575C44.7954 7.47188 45.1934 8.13361 45.4777 8.93095C45.762 9.72286 45.9041 10.6504 45.9041 11.7135V12.6654H35.8488V10.5175H42.7952C42.7952 10.0185 42.6919 9.57641 42.4851 9.1913C42.2784 8.8062 41.9915 8.50516 41.6246 8.2882C41.2628 8.06581 40.8415 7.95462 40.3609 7.95462C39.8595 7.95462 39.415 8.07666 39.0274 8.32074C38.6449 8.5594 38.3452 8.88213 38.1281 9.28894C37.911 9.69032 37.7999 10.1378 37.7947 10.6314V12.6735C37.7947 13.2919 37.9032 13.8262 38.1203 14.2764C38.3426 14.7265 38.6553 15.0737 39.0584 15.3178C39.4615 15.5619 39.9396 15.6839 40.4927 15.6839C40.8596 15.6839 41.1956 15.6297 41.5005 15.5212C41.8055 15.4127 42.0665 15.25 42.2836 15.033C42.5006 14.816 42.666 14.5503 42.7797 14.2357L45.8343 14.4472C45.6793 15.2174 45.3614 15.89 44.8807 16.465C44.4052 17.0345 43.7902 17.4793 43.0356 17.7993C42.2861 18.1139 41.4204 18.2712 40.4384 18.2712Z" fill="#3755FA"/>
<path d="M53.8609 22.9738C52.791 22.9738 51.8736 22.8192 51.1087 22.5101C50.3489 22.2063 49.7442 21.7914 49.2945 21.2652C48.8449 20.7391 48.5528 20.1479 48.4185 19.4916L51.473 19.0604C51.5661 19.3099 51.7134 19.5431 51.915 19.7601C52.1165 19.977 52.3827 20.1506 52.7135 20.2808C53.0494 20.4164 53.4578 20.4842 53.9384 20.4842C54.6568 20.4842 55.2486 20.2998 55.7138 19.9309C56.1841 19.5675 56.4193 18.9573 56.4193 18.1003V15.8141H56.2798C56.135 16.1612 55.918 16.4894 55.6285 16.7985C55.3391 17.1077 54.967 17.3599 54.5121 17.5552C54.0573 17.7505 53.5146 17.8481 52.884 17.8481C51.9899 17.8481 51.1759 17.6311 50.4419 17.1972C49.7132 16.7579 49.1317 16.088 48.6976 15.1876C48.2686 14.2818 48.0541 13.1373 48.0541 11.7542C48.0541 10.3385 48.2737 9.15605 48.7131 8.20684C49.1524 7.25763 49.7364 6.54708 50.4652 6.07519C51.1991 5.60329 52.0028 5.36735 52.8763 5.36735C53.543 5.36735 54.1012 5.48668 54.5509 5.72534C55.0006 5.95857 55.3623 6.25147 55.6363 6.60403C55.9154 6.95117 56.1299 7.29288 56.2798 7.62918H56.4038V5.53007H59.6832V18.1491C59.6832 19.2122 59.4351 20.1018 58.9389 20.8178C58.4428 21.5337 57.7554 22.0707 56.8767 22.4287C56.0032 22.7921 54.998 22.9738 53.8609 22.9738ZM53.9307 15.2445C54.463 15.2445 54.9127 15.1062 55.2796 14.8296C55.6518 14.5476 55.936 14.1462 56.1325 13.6255C56.334 13.0993 56.4348 12.4701 56.4348 11.7379C56.4348 11.0056 56.3366 10.371 56.1402 9.83405C55.9438 9.29165 55.6595 8.87128 55.2874 8.57296C54.9153 8.27464 54.463 8.12548 53.9307 8.12548C53.388 8.12548 52.9306 8.28006 52.5584 8.58923C52.1863 8.89298 51.9046 9.31606 51.7134 9.85846C51.5221 10.4009 51.4265 11.0273 51.4265 11.7379C51.4265 12.4593 51.5221 13.0831 51.7134 13.6092C51.9098 14.1299 52.1915 14.534 52.5584 14.8215C52.9306 15.1035 53.388 15.2445 53.9307 15.2445Z" fill="#3755FA"/>
<path d="M64.6785 18.2386C64.1668 18.2386 63.7275 18.0488 63.3605 17.6691C62.9987 17.284 62.8178 16.8229 62.8178 16.286C62.8178 15.7544 62.9987 15.2988 63.3605 14.9191C63.7275 14.5394 64.1668 14.3496 64.6785 14.3496C65.1746 14.3496 65.6088 14.5394 65.9809 14.9191C66.3531 15.2988 66.5391 15.7544 66.5391 16.286C66.5391 16.644 66.4513 16.9721 66.2755 17.2704C66.105 17.5633 65.8801 17.7993 65.601 17.9783C65.3219 18.1518 65.0144 18.2386 64.6785 18.2386Z" fill="#3755FA"/>
</svg>
