<svg width="14" height="14" viewBox="0 0 14 14" fill="none" xmlns="http://www.w3.org/2000/svg">
<path d="M2.33341 5.8335C2.97775 5.8335 3.50008 6.35583 3.50008 7.00016C3.50008 7.64449 2.97775 8.16683 2.33341 8.16683C1.68908 8.16683 1.16675 7.64449 1.16675 7.00016C1.16675 6.35583 1.68908 5.8335 2.33341 5.8335ZM11.6667 5.8335C12.3111 5.8335 12.8334 6.35583 12.8334 7.00016C12.8334 7.64449 12.3111 8.16683 11.6667 8.16683C11.0224 8.16683 10.5001 7.64449 10.5001 7.00016C10.5001 6.35583 11.0224 5.8335 11.6667 5.8335ZM7.00008 5.8335C7.64441 5.8335 8.16675 6.35583 8.16675 7.00016C8.16675 7.64449 7.64441 8.16683 7.00008 8.16683C6.35575 8.16683 5.83341 7.64449 5.83341 7.00016C5.83341 6.35583 6.35575 5.8335 7.00008 5.8335Z" fill="currentColor"/>
</svg>
