<svg width="24" height="24" viewBox="0 0 24 24" fill="none" xmlns="http://www.w3.org/2000/svg">
<path d="M8.07303 12.4617C8.27115 13.266 7.77968 14.0787 6.97529 14.2769C6.1709 14.475 5.35821 13.9835 5.16008 13.1791C4.96196 12.3747 5.45343 11.562 6.25782 11.3639C7.0622 11.1658 7.8749 11.6573 8.07303 12.4617Z" fill="#2B2D33"/>
<path d="M8.93159 9.67579C9.73598 9.47766 10.2274 8.66497 10.0293 7.86058C9.8312 7.05619 9.0185 6.56472 8.21412 6.76285C7.40973 6.96097 6.91826 7.77367 7.11638 8.57805C7.31451 9.38244 8.1272 9.87391 8.93159 9.67579Z" fill="#2B2D33"/>
<path d="M14.8843 6.66478C15.0824 7.46917 14.591 8.28186 13.7866 8.47999C12.9822 8.67811 12.1695 8.18664 11.9714 7.38225C11.7732 6.57787 12.2647 5.76517 13.0691 5.56705C13.8735 5.36892 14.6862 5.86039 14.8843 6.66478Z" fill="#2B2D33"/>
<path d="M17.6562 11.6465C18.4606 11.4484 18.9521 10.6357 18.7539 9.83128C18.5558 9.0269 17.7431 8.53542 16.9387 8.73355C16.1343 8.93167 15.6429 9.74437 15.841 10.5488C16.0391 11.3531 16.8518 11.8446 17.6562 11.6465Z" fill="#2B2D33"/>
<path fill-rule="evenodd" clip-rule="evenodd" d="M17.0001 17C20.5001 17.1119 22.7472 13.5 21.7864 9.59902C20.4655 4.23644 15.0476 0.959959 9.68498 2.28079C4.3224 3.60162 1.04592 9.01959 2.36675 14.3822C2.91065 16.5904 4.34115 18.6596 6.34873 20.0957C9.21642 22.1469 12.5001 21.9043 13.0001 21C13.2972 20.4625 13.1715 19.5664 13.062 18.7859C12.9872 18.2531 12.92 17.7742 13.0001 17.5C13.2277 16.7204 14.2063 16.7992 15.5914 16.9109C16.0247 16.9458 16.4978 16.9839 17.0001 17ZM10.1633 4.22275C5.87323 5.27942 3.25205 9.61379 4.30871 13.9039C4.73046 15.6162 5.86474 17.2905 7.5123 18.469C8.62781 19.2669 9.80466 19.6013 10.6952 19.6606C10.8711 19.6723 11.026 19.6727 11.1589 19.6661C11.1511 19.591 11.1415 19.5091 11.1299 19.4195C11.1199 19.3417 11.1059 19.2413 11.0905 19.1305C11.0582 18.8985 11.0195 18.6208 10.9977 18.41C10.9698 18.1389 10.9082 17.5287 11.0802 16.9396C11.329 16.0872 11.911 15.4794 12.6395 15.1543C13.2482 14.8826 13.8774 14.8443 14.3059 14.841C14.7587 14.8374 15.2547 14.8773 15.6842 14.9119L15.7391 14.9163C16.1816 14.9519 16.6113 14.9865 17.064 15.001C18.0377 15.0322 18.8409 14.5726 19.3805 13.7278C19.9384 12.8542 20.2062 11.5463 19.8444 10.0773C18.7877 5.78727 14.4534 3.16609 10.1633 4.22275ZM11.6676 19.5864C11.691 19.5743 11.705 19.5695 11.7061 19.5702C11.7073 19.5708 11.6956 19.5769 11.6676 19.5864Z" fill="#2B2D33"/>
</svg>
