<svg width="24" height="24" viewBox="0 0 24 24" fill="none" xmlns="http://www.w3.org/2000/svg">
<path d="M4 2V8C4 8.55228 4.44772 9 5 9H9C9.55228 9 10 8.55228 10 8V2H12V8C12 9.65685 10.6569 11 9 11H8V22H6V11H5C3.34315 11 2 9.65685 2 8V2H4Z" fill="currentColor"/>
<path fill-rule="evenodd" clip-rule="evenodd" d="M14 6C14 3.79086 15.7909 2 18 2C20.2091 2 22 3.79086 22 6V7C22 8.86384 20.7252 10.4299 19 10.874V22H17V10.874C15.2748 10.4299 14 8.86384 14 7V6ZM18 4C16.8954 4 16 4.89543 16 6V7C16 8.10457 16.8954 9 18 9C19.1046 9 20 8.10457 20 7V6C20 4.89543 19.1046 4 18 4Z" fill="currentColor"/>
<path d="M6 2V7H8V2H6Z" fill="currentColor"/>
</svg>
