<svg viewBox="0 0 14 14" fill="none" xmlns="http://www.w3.org/2000/svg">
<path d="M2.91707 6.9453L4.12916 5.73318L4.95413 6.55813L2.89174 8.62055C2.78235 8.72995 2.63397 8.79141 2.47926 8.79141C2.32455 8.79141 2.17618 8.72995 2.06678 8.62055L0.00439453 6.55815L0.829356 5.7332L1.75963 6.66348C1.93395 3.5984 4.4747 1.16663 7.58342 1.16663C10.8051 1.16663 13.4168 3.7783 13.4168 6.99996C13.4168 10.2216 10.8051 12.8333 7.58342 12.8333C5.75069 12.8333 4.11509 11.9874 3.04662 10.667L3.95355 9.93313C4.81003 10.9916 6.11768 11.6666 7.58342 11.6666C10.1608 11.6666 12.2501 9.57729 12.2501 6.99996C12.2501 4.42263 10.1608 2.33329 7.58342 2.33329C5.02434 2.33329 2.94636 4.39315 2.91707 6.9453Z" fill="currentColor"/>
</svg>
