<svg width="16" height="17" viewBox="0 0 16 17" fill="none" xmlns="http://www.w3.org/2000/svg">
<path d="M3.33365 8.32197L4.7189 6.9367L5.66172 7.8795L3.30471 10.2365C3.17969 10.3616 3.01012 10.4318 2.8333 10.4318C2.65649 10.4318 2.48692 10.3616 2.3619 10.2365L0.00488281 7.87952L0.947696 6.93671L2.01087 7.99989C2.21009 4.49694 5.1138 1.71777 8.66663 1.71777C12.3485 1.71777 15.3333 4.70254 15.3333 8.38444C15.3333 12.0663 12.3485 15.0511 8.66663 15.0511C6.57208 15.0511 4.70282 14.0844 3.48172 12.5754L4.51821 11.7366C5.49704 12.9463 6.99149 13.7178 8.66663 13.7178C11.6121 13.7178 14 11.33 14 8.38444C14 5.43892 11.6121 3.05111 8.66663 3.05111C5.74196 3.05111 3.36713 5.40523 3.33365 8.32197Z" fill="currentColor"/>
</svg>
