<svg width="24" height="24" viewBox="0 0 24 24" fill="none" xmlns="http://www.w3.org/2000/svg">
<path d="M5 11.5858L12.4142 19L13.8284 17.5858L6.41421 10.1716L5 11.5858Z" fill="#2B2D33"/>
<path fill-rule="evenodd" clip-rule="evenodd" d="M22 2.00001C22.3905 2.39054 22.3905 3.0237 22 3.41423L19.9142 5.50003L20.7071 6.29292C20.8946 6.48046 21 6.73481 21 7.00003V12C21 12.2652 20.8946 12.5196 20.7071 12.7071L11.7071 21.7071C11.3165 22.0976 10.6834 22.0976 10.2928 21.7071L2.29289 13.7071C1.90237 13.3166 1.90237 12.6834 2.29289 12.2929L11.2929 3.29292C11.4804 3.10539 11.7348 3.00003 12 3.00003H17C17.2652 3.00003 17.5196 3.10539 17.7071 3.29292L18.5 4.08582L20.5858 2.00001C20.9763 1.60949 21.6095 1.60949 22 2.00001ZM16.5858 5.00003L17.0858 5.50003L16.5835 6.00229C16.5559 6.00077 16.528 6 16.5 6C15.6716 6 15 6.67157 15 7.5C15 8.32843 15.6716 9 16.5 9C17.3284 9 18 8.32843 18 7.5C18 7.47199 17.9992 7.44416 17.9977 7.41653L18.5 6.91424L19 7.41424V11.5858L11 19.5858L4.41421 13L12.4142 5.00003H16.5858Z" fill="#2B2D33"/>
</svg>
