<svg xmlns="http://www.w3.org/2000/svg" width="24" height="24" viewBox="0 0 24 24" fill="none">
  <path d="M6.29297 12.7072L11.293 17.7072L12.7072 16.293L7.70718 11.293L6.29297 12.7072Z" fill="white"/>
  <path fill-rule="evenodd" clip-rule="evenodd" d="M22 2.00008C22.3905 2.3906 22.3905 3.02376 22 3.41429L19.9142 5.50009L20.7071 6.29298C20.8946 6.48052 21 6.73487 21 7.00009V12.0001C21 12.2653 20.8946 12.5197 20.7071 12.7072L11.7071 21.7072C11.3165 22.0977 10.6834 22.0977 10.2928 21.7072L2.29289 13.7072C1.90237 13.3167 1.90237 12.6835 2.29289 12.293L11.2929 3.29298C11.4804 3.10545 11.7348 3.00009 12 3.00009H17C17.2652 3.00009 17.5196 3.10545 17.7071 3.29298L18.5 4.08588L20.5858 2.00008C20.9763 1.60955 21.6095 1.60955 22 2.00008ZM16.5858 5.00009L17.0858 5.50009L16.5835 6.00235C16.5559 6.00083 16.528 6.00006 16.5 6.00006C15.6716 6.00006 15 6.67163 15 7.50006C15 8.32849 15.6716 9.00006 16.5 9.00006C17.3284 9.00006 18 8.32849 18 7.50006C18 7.47205 17.9992 7.44422 17.9977 7.41659L18.5 6.9143L19 7.4143V11.5859L11 19.5858L4.41421 13.0001L12.4142 5.00009H16.5858Z" fill="white"/>
</svg>
