<svg width="16" height="16" viewBox="0 0 16 16" fill="none" xmlns="http://www.w3.org/2000/svg">
<path d="M9.99984 1.33301C10.2868 1.33301 10.5416 1.51663 10.6323 1.78886L11.1465 3.33234L13.3332 3.33301V4.66634H2.6665V3.33301L4.8525 3.33234L5.36738 1.78886C5.45812 1.51663 5.71288 1.33301 5.99984 1.33301H9.99984ZM9.51933 2.66634H6.48034L6.25784 3.33234H9.74117L9.51933 2.66634Z" fill="currentColor"/>
<path d="M3.66693 14.0263L3.34587 5.66634H4.68027L4.9736 13.333H11.0259L11.3192 5.66634H12.6536L12.3325 14.0263C12.3182 14.3839 12.0242 14.6663 11.6664 14.6663H4.33307C3.97524 14.6663 3.68123 14.3839 3.66693 14.0263Z" fill="currentColor"/>
<path d="M8.74023 12.4663L8.98658 5.66634H10.3209L10.0745 12.4663H8.74023Z" fill="currentColor"/>
</svg>
