<svg width="20" height="20" viewBox="0 0 20 20" fill="none" xmlns="http://www.w3.org/2000/svg">
<path d="M18.3332 9.16699C18.3332 11.4682 16.4677 13.3337 14.1665 13.3337V11.667C15.5472 11.667 16.6665 10.5477 16.6665 9.16699C16.6665 7.94439 15.7824 6.90632 14.5916 6.70285C14.2908 6.65146 14.0422 6.4398 13.9434 6.1511C13.3718 4.47971 11.7952 3.33366 9.99984 3.33366C7.69865 3.33366 5.83317 5.19914 5.83317 7.50033C5.83317 7.96056 5.46007 8.33366 4.99984 8.33366C4.07936 8.33366 3.33317 9.07985 3.33317 10.0003C3.33317 10.9208 4.07936 11.667 4.99984 11.667H5.83317V13.3337H4.99984C3.15889 13.3337 1.6665 11.8413 1.6665 10.0003C1.6665 8.43043 2.75177 7.11402 4.21299 6.7604C4.57658 3.88809 7.02882 1.66699 9.99984 1.66699C12.352 1.66699 14.4355 3.07189 15.3493 5.17066C17.0915 5.68467 18.3332 7.29562 18.3332 9.16699Z" fill="currentColor"/>
<path d="M9.16634 12.8514V17.5003C9.16634 17.9606 9.53944 18.3337 9.99967 18.3337C10.4599 18.3337 10.833 17.9606 10.833 17.5003V12.8396L11.3271 13.3337C11.6525 13.6591 12.1802 13.6591 12.5056 13.3337C12.831 13.0082 12.831 12.4806 12.5056 12.1551L10.5949 10.2444C10.2694 9.91896 9.74178 9.91896 9.41634 10.2444L7.5056 12.1551C7.18016 12.4806 7.18016 13.0082 7.5056 13.3337C7.83103 13.6591 8.35867 13.6591 8.68411 13.3337L9.16634 12.8514Z" fill="currentColor"/>
</svg>
