<svg width="20" height="20" viewBox="0 0 20 20" fill="none" xmlns="http://www.w3.org/2000/svg">
<path fill-rule="evenodd" clip-rule="evenodd" d="M9.99984 18.3337C5.39746 18.3337 1.6665 14.6027 1.6665 10.0003C1.6665 5.39795 5.39746 1.66699 9.99984 1.66699C14.6022 1.66699 18.3332 5.39795 18.3332 10.0003C18.3332 14.6027 14.6022 18.3337 9.99984 18.3337ZM9.1665 5.83366V10.8337H10.8332V5.83366H9.1665ZM9.99984 14.167C9.42454 14.167 8.95817 13.7006 8.95817 13.1253C8.95817 12.55 9.42454 12.0837 9.99984 12.0837C10.5751 12.0837 11.0415 12.55 11.0415 13.1253C11.0415 13.7006 10.5751 14.167 9.99984 14.167Z" fill="white"/>
</svg>
