<svg width="85" height="41" viewBox="0 0 85 41" fill="none" xmlns="http://www.w3.org/2000/svg">
<g clip-path="url(#clip0_901_81539)">
<rect x="0.25061" y="0.750488" width="84.4987" height="39.4987" rx="6" fill="white"/>
<g filter="url(#filter0_d_901_81539)">
<path d="M1.93161 22.1811C1.20184 21.4513 0.836955 21.0864 0.7877 20.6403C0.777408 20.547 0.777408 20.453 0.7877 20.3597C0.836955 19.9136 1.20184 19.5487 1.93161 18.8189L3.84164 16.9089C4.57141 16.1791 4.93629 15.8143 5.38244 15.765C5.47566 15.7547 5.56973 15.7547 5.66296 15.765C6.10911 15.8143 6.47399 16.1791 7.20376 16.9089L9.11379 18.8189C9.84356 19.5487 10.2084 19.9136 10.2577 20.3597C10.268 20.453 10.268 20.547 10.2577 20.6403C10.2084 21.0864 9.84356 21.4513 9.11379 22.1811L7.20376 24.0911C6.47399 24.8209 6.10911 25.1857 5.66296 25.235C5.56973 25.2453 5.47566 25.2453 5.38244 25.235C4.93629 25.1857 4.57141 24.8209 3.84164 24.0911L1.93161 22.1811Z" fill="#4F7FFF"/>
<path d="M8.40883 15.7038C7.67905 14.9741 7.31417 14.6092 7.26491 14.163C7.25462 14.0698 7.25462 13.9758 7.26491 13.8825C7.31417 13.4364 7.67905 13.0715 8.40882 12.3417L10.3188 10.4317C11.0486 9.70193 11.4135 9.33704 11.8597 9.28779C11.9529 9.2775 12.0469 9.2775 12.1402 9.28779C12.5863 9.33704 12.9512 9.70193 13.681 10.4317L15.591 12.3417C16.3208 13.0715 16.6857 13.4364 16.7349 13.8825C16.7452 13.9758 16.7452 14.0698 16.7349 14.163C16.6857 14.6092 16.3208 14.9741 15.591 15.7038L13.681 17.6139C12.9512 18.3436 12.5863 18.7085 12.1402 18.7578C12.0469 18.7681 11.9529 18.7681 11.8597 18.7578C11.4135 18.7085 11.0486 18.3436 10.3188 17.6139L8.40883 15.7038Z" fill="#4F7FFF"/>
<path d="M8.40882 28.6583C7.67905 27.9285 7.31417 27.5636 7.26491 27.1175C7.25462 27.0242 7.25462 26.9302 7.26491 26.837C7.31417 26.3908 7.67905 26.0259 8.40883 25.2962L10.3188 23.3861C11.0486 22.6564 11.4135 22.2915 11.8597 22.2422C11.9529 22.2319 12.0469 22.2319 12.1402 22.2422C12.5863 22.2915 12.9512 22.6564 13.681 23.3861L15.591 25.2962C16.3208 26.0259 16.6857 26.3908 16.7349 26.837C16.7452 26.9302 16.7452 27.0242 16.7349 27.1175C16.6857 27.5636 16.3208 27.9285 15.591 28.6583L13.681 30.5683C12.9512 31.2981 12.5863 31.663 12.1402 31.7122C12.0469 31.7225 11.9529 31.7225 11.8597 31.7122C11.4135 31.663 11.0486 31.2981 10.3188 30.5683L8.40882 28.6583Z" fill="#4F7FFF"/>
<path d="M14.886 22.1811C14.1563 21.4513 13.7914 21.0864 13.7421 20.6403C13.7318 20.547 13.7318 20.453 13.7421 20.3597C13.7914 19.9136 14.1563 19.5487 14.886 18.8189L16.7961 16.9089C17.5258 16.1791 17.8907 15.8143 18.3369 15.765C18.4301 15.7547 18.5242 15.7547 18.6174 15.765C19.0635 15.8143 19.4284 16.1791 20.1582 16.9089L22.0682 18.8189C22.798 19.5487 23.1629 19.9136 23.2121 20.3597C23.2224 20.453 23.2224 20.547 23.2121 20.6403C23.1629 21.0864 22.798 21.4513 22.0682 22.1811L20.1582 24.0911C19.4284 24.8209 19.0635 25.1857 18.6174 25.235C18.5242 25.2453 18.4301 25.2453 18.3369 25.235C17.8907 25.1857 17.5258 24.8209 16.7961 24.0911L14.886 22.1811Z" fill="#4F7FFF"/>
</g>
<path d="M35.2425 11.5957H38.2181V24.25H47.1663V27H35.2425V11.5957ZM48.1069 21.79C48.1069 20.2217 48.619 18.9255 49.643 17.9014C50.6743 16.8701 51.9813 16.3545 53.5639 16.3545C55.1466 16.3545 56.45 16.8701 57.4741 17.9014C58.4982 18.9255 59.0102 20.2217 59.0102 21.79C59.0102 23.3441 58.4946 24.6367 57.4634 25.668C56.4321 26.6992 55.1323 27.2148 53.5639 27.2148C51.9956 27.2148 50.6922 26.6992 49.6538 25.668C48.6225 24.6367 48.1069 23.3441 48.1069 21.79ZM56.2602 21.79C56.2602 20.9235 56.006 20.2217 55.4975 19.6846C54.9962 19.1475 54.3517 18.8789 53.5639 18.8789C52.7762 18.8789 52.1281 19.151 51.6196 19.6953C51.1111 20.2324 50.8569 20.9307 50.8569 21.79C50.8569 22.6494 51.1111 23.3477 51.6196 23.8848C52.1281 24.4219 52.7762 24.6904 53.5639 24.6904C54.3517 24.6904 54.9962 24.4219 55.4975 23.8848C56.006 23.3477 56.2602 22.6494 56.2602 21.79ZM60.4127 28.4287L62.8942 27.333C63.0589 27.9417 63.3597 28.4072 63.7965 28.7295C64.2334 29.0589 64.7776 29.2236 65.4293 29.2236C66.2601 29.2236 66.8867 28.9658 67.3092 28.4502C67.7389 27.9346 67.9537 27.2077 67.9537 26.2695V25.2812C67.3164 26.3841 66.2028 26.9355 64.6129 26.9355C63.2522 26.9355 62.1207 26.4521 61.2184 25.4854C60.316 24.5186 59.8649 23.2796 59.8649 21.7686C59.8649 20.9665 59.9938 20.2253 60.2516 19.5449C60.5166 18.8574 60.8711 18.2845 61.3151 17.8262C61.7662 17.3607 62.2926 16.999 62.8942 16.7412C63.4957 16.4834 64.1331 16.3545 64.8063 16.3545C66.2243 16.3545 67.2734 16.8379 67.9537 17.8047V16.5693H70.7467V26.0547C70.7467 27.7663 70.2812 29.1126 69.3502 30.0938C68.4264 31.082 67.0979 31.5762 65.3649 31.5762C62.7939 31.5762 61.1432 30.527 60.4127 28.4287ZM68.0397 21.6934C68.0397 20.8197 67.7854 20.1143 67.277 19.5771C66.7757 19.04 66.1312 18.7715 65.3434 18.7715C64.57 18.7715 63.9326 19.0436 63.4313 19.5879C62.93 20.1322 62.6793 20.859 62.6793 21.7686C62.6793 22.6279 62.93 23.3118 63.4313 23.8203C63.9397 24.3288 64.5914 24.583 65.3864 24.583C66.1455 24.583 66.7757 24.3109 67.277 23.7666C67.7854 23.2223 68.0397 22.5312 68.0397 21.6934ZM72.1814 21.79C72.1814 20.2217 72.6935 18.9255 73.7176 17.9014C74.7488 16.8701 76.0558 16.3545 77.6385 16.3545C79.2212 16.3545 80.5245 16.8701 81.5486 17.9014C82.5727 18.9255 83.0848 20.2217 83.0848 21.79C83.0848 23.3441 82.5691 24.6367 81.5379 25.668C80.5066 26.6992 79.2068 27.2148 77.6385 27.2148C76.0701 27.2148 74.7667 26.6992 73.7283 25.668C72.6971 24.6367 72.1814 23.3441 72.1814 21.79ZM80.3348 21.79C80.3348 20.9235 80.0805 20.2217 79.5721 19.6846C79.0708 19.1475 78.4262 18.8789 77.6385 18.8789C76.8507 18.8789 76.2026 19.151 75.6941 19.6953C75.1857 20.2324 74.9314 20.9307 74.9314 21.79C74.9314 22.6494 75.1857 23.3477 75.6941 23.8848C76.2026 24.4219 76.8507 24.6904 77.6385 24.6904C78.4262 24.6904 79.0708 24.4219 79.5721 23.8848C80.0805 23.3477 80.3348 22.6494 80.3348 21.79Z" fill="#4F7FFF"/>
</g>
<defs>
<filter id="filter0_d_901_81539" x="0.25061" y="8.75049" width="23.4987" height="23.4985" filterUnits="userSpaceOnUse" color-interpolation-filters="sRGB">
<feFlood flood-opacity="0" result="BackgroundImageFix"/>
<feColorMatrix in="SourceAlpha" type="matrix" values="0 0 0 0 0 0 0 0 0 0 0 0 0 0 0 0 0 0 127 0" result="hardAlpha"/>
<feOffset/>
<feComposite in2="hardAlpha" operator="out"/>
<feColorMatrix type="matrix" values="0 0 0 0 0.25098 0 0 0 0 0.423529 0 0 0 0 1 0 0 0 0.8 0"/>
<feBlend mode="normal" in2="BackgroundImageFix" result="effect1_dropShadow_901_81539"/>
<feBlend mode="normal" in="SourceGraphic" in2="effect1_dropShadow_901_81539" result="shape"/>
</filter>
<clipPath id="clip0_901_81539">
<rect x="0.25061" y="0.750488" width="84.4987" height="39.4987" rx="6" fill="white"/>
</clipPath>
</defs>
</svg>
