<svg width="178" height="26" viewBox="0 0 178 26" fill="none" xmlns="http://www.w3.org/2000/svg">
<path d="M36.9713 7.4585C40.5134 7.4585 43.094 9.93792 43.094 14.0872C43.094 18.0846 40.5134 20.7158 36.9713 20.7158C34.9726 20.7158 33.5811 19.9062 32.7715 18.7424V25.6241H30.0391V7.6103H32.4173L32.7462 9.53311C33.6064 8.3946 34.9473 7.4585 36.9713 7.4585ZM32.7462 14.0366C32.7462 16.6172 34.2389 18.4135 36.5159 18.4135C38.7929 18.4135 40.311 16.6172 40.311 14.0872C40.311 11.5318 38.7929 9.78612 36.5159 9.78612C34.2389 9.78612 32.7462 11.5318 32.7462 14.0366Z" fill="#3755FA"/>
<path d="M50.9254 20.7158C46.8521 20.7158 44.2967 18.0846 44.2967 14.1125C44.2967 10.115 46.8521 7.4585 50.6724 7.4585C54.4168 7.4585 56.9215 9.83672 56.9974 13.6318C56.9974 13.9607 56.9721 14.3149 56.9215 14.6691H47.1557V14.8462C47.2316 17.0473 48.6231 18.4894 50.7736 18.4894C52.4434 18.4894 53.6578 17.6545 54.0373 16.2124H56.7697C56.3143 18.7677 54.1385 20.7158 50.9254 20.7158ZM47.2569 12.6703H54.1638C53.9361 10.7475 52.5952 9.65962 50.6977 9.65962C48.952 9.65962 47.4593 10.8234 47.2569 12.6703Z" fill="#3755FA"/>
<path d="M58.7005 20.564V7.6103H67.3025V10.0138H61.4329V20.564H58.7005Z" fill="#3755FA"/>
<path d="M66.4655 18.9954C66.4655 17.9834 67.1992 17.275 68.2112 17.275C69.2232 17.275 69.9822 17.9834 69.9822 18.9954C69.9822 20.0074 69.2232 20.7158 68.2112 20.7158C67.1992 20.7158 66.4655 20.0074 66.4655 18.9954Z" fill="#3755FA"/>
<path d="M81.8507 7.4585C85.3927 7.4585 87.9734 9.93792 87.9734 14.0872C87.9734 18.0846 85.3927 20.7158 81.8507 20.7158C79.852 20.7158 78.4605 19.9062 77.6509 18.7424V25.6241H74.9185V7.6103H77.2967L77.6256 9.53311C78.4858 8.3946 79.8267 7.4585 81.8507 7.4585ZM77.6256 14.0366C77.6256 16.6172 79.1183 18.4135 81.3953 18.4135C83.6723 18.4135 85.1903 16.6172 85.1903 14.0872C85.1903 11.5318 83.6723 9.78612 81.3953 9.78612C79.1183 9.78612 77.6256 11.5318 77.6256 14.0366Z" fill="#374151"/>
<path d="M95.8048 20.7158C91.7314 20.7158 89.1761 18.0846 89.1761 14.1125C89.1761 10.115 91.7314 7.4585 95.5518 7.4585C99.2962 7.4585 101.801 9.83672 101.877 13.6318C101.877 13.9607 101.852 14.3149 101.801 14.6691H92.035V14.8462C92.1109 17.0473 93.5025 18.4894 95.653 18.4894C97.3228 18.4894 98.5372 17.6545 98.9167 16.2124H101.649C101.194 18.7677 99.0179 20.7158 95.8048 20.7158ZM92.1362 12.6703H99.0432C98.8155 10.7475 97.4746 9.65962 95.5771 9.65962C93.8314 9.65962 92.3386 10.8234 92.1362 12.6703Z" fill="#374151"/>
<path d="M103.58 20.564V7.6103H106.312V18.1605H111.195V7.6103H113.928V18.1605H118.811V7.6103H121.543V20.564H103.58Z" fill="#374151"/>
<path d="M129.877 20.7158C125.804 20.7158 123.248 18.0846 123.248 14.1125C123.248 10.115 125.804 7.4585 129.624 7.4585C133.369 7.4585 135.873 9.83672 135.949 13.6318C135.949 13.9607 135.924 14.3149 135.873 14.6691H126.107V14.8462C126.183 17.0473 127.575 18.4894 129.725 18.4894C131.395 18.4894 132.609 17.6545 132.989 16.2124H135.721C135.266 18.7677 133.09 20.7158 129.877 20.7158ZM126.209 12.6703H133.116C132.888 10.7475 131.547 9.65962 129.649 9.65962C127.904 9.65962 126.411 10.8234 126.209 12.6703Z" fill="#374151"/>
<path d="M146.836 20.564V15.2004H140.385V20.564H137.652V7.6103H140.385V12.7968H146.836V7.6103H149.569V20.564H146.836Z" fill="#374151"/>
<path d="M151.748 20.564V7.6103H154.405V16.5919L161.388 7.6103H163.791V20.564H161.135V11.5571L154.126 20.564H151.748Z" fill="#374151"/>
<path d="M173.988 20.564V16.3136H171.028L168.169 20.564H165.032L168.346 15.9088C166.448 15.4281 165.411 14.0113 165.411 11.9872C165.411 9.28011 167.334 7.6103 170.775 7.6103H176.72V20.564H173.988ZM168.194 11.9366C168.194 13.404 169.13 14.1125 170.825 14.1125H173.988V9.78612H170.825C169.13 9.78612 168.194 10.5704 168.194 11.9366Z" fill="#374151"/>
<path d="M10.8078 2.1665L0.625 8.29077V22.9765L20.931 22.914V8.22828L10.8078 2.1665ZM4.31699 19.4144V9.79059H7.47305L9.61679 12.1653H17.3581V19.3519L4.31699 19.4144Z" fill="#3755FA"/>
</svg>
