<svg viewBox="0 0 24 24" fill="none" xmlns="http://www.w3.org/2000/svg">
<path fill-rule="evenodd" clip-rule="evenodd" d="M15.3253 1.25372C15.7143 1.21483 16.0679 1.48122 16.1379 1.86584C16.392 3.26387 15.7546 4.57714 15.1 5.45C14.3993 6.3842 13.0714 7.27777 11.6321 7.14692C11.2964 7.11641 11.0223 6.86576 10.9621 6.53416C10.7056 5.1235 11.3579 3.90605 12 3.05C12.0113 3.03493 12.0231 3.0203 12.0355 3.00612C12.8477 2.07789 14.117 1.37456 15.3253 1.25372ZM13.1826 3.97323C12.7951 4.49464 12.512 5.0348 12.4299 5.58279C12.9925 5.42261 13.542 5.02725 13.9 4.55C14.2631 4.06583 14.5452 3.5109 14.6501 2.95736C14.1062 3.17453 13.572 3.53583 13.1826 3.97323ZM4.36371 10.0027C5.3917 8.29802 7.12429 7.35 8.79996 7.35C9.6224 7.35 10.3211 7.58304 10.9026 7.77697C10.9142 7.78083 10.9257 7.78467 10.9371 7.78849C11.1042 7.84418 11.2441 7.8939 11.3663 7.93732C11.7553 8.07559 11.9646 8.15 12.3 8.15C12.6777 8.15 12.9812 8.07975 13.4214 7.90364C13.4351 7.89819 13.4489 7.89313 13.4628 7.88849L13.4751 7.88439C14.0832 7.68166 14.7782 7.45 15.8 7.45C17.336 7.45 18.8583 8.16115 19.9 9.55C20.0324 9.72657 20.0803 9.95251 20.031 10.1676C19.9817 10.3828 19.8401 10.5652 19.6439 10.6665C17.1882 11.934 17.4994 15.5053 20.0707 16.5006C20.2621 16.5747 20.4148 16.724 20.4932 16.9137C20.5715 17.1035 20.5687 17.317 20.4853 17.5046C20.0645 18.4515 19.7433 18.9857 19.236 19.7975C19.2267 19.8124 19.2168 19.8269 19.2065 19.8411C19.1629 19.9011 19.1179 19.9635 19.0714 20.0279C18.711 20.5272 18.2643 21.146 17.7489 21.6492C17.164 22.2201 16.3848 22.75 15.4 22.75C14.6845 22.75 14.2724 22.6218 13.7929 22.3849C13.7545 22.3695 13.7173 22.3543 13.681 22.3396C13.2646 22.17 12.9699 22.05 12.3 22.05C11.6503 22.05 11.2616 22.2031 10.7785 22.3964C10.747 22.4089 10.7147 22.4194 10.6819 22.4276C10.6162 22.444 10.5486 22.466 10.4602 22.497C10.4437 22.5028 10.4256 22.5091 10.4064 22.5159C10.3324 22.5422 10.2408 22.5746 10.1487 22.6034C9.89462 22.6827 9.59293 22.75 9.19996 22.75C8.28478 22.75 7.53674 22.2899 6.94677 21.7562C6.3594 21.2247 5.84274 20.5404 5.39996 19.95C5.39055 19.9375 5.38153 19.9246 5.37292 19.9115C4.25413 18.2067 3.63918 16.3136 3.47813 14.5689C3.31903 12.8453 3.59771 11.189 4.36371 10.0027ZM8.79996 8.85C7.67936 8.85 6.41595 9.49775 5.64308 10.7859C5.63845 10.7936 5.63369 10.8012 5.62879 10.8087C5.10041 11.6216 4.8314 12.9103 4.97178 14.4311C5.11014 15.9299 5.64117 17.579 6.6143 19.0691C7.06625 19.6714 7.49536 20.2297 7.95314 20.6438C8.41317 21.0601 8.81514 21.25 9.19996 21.25C9.40698 21.25 9.55529 21.2173 9.70125 21.1716C9.76415 21.152 9.82064 21.132 9.89004 21.1075C9.91324 21.0993 9.93788 21.0906 9.9647 21.0812C10.0506 21.0511 10.1521 21.0167 10.2651 20.9862C10.7729 20.7832 11.3763 20.55 12.3 20.55C13.2653 20.55 13.7814 20.7605 14.2464 20.9501C14.2908 20.9682 14.3347 20.9861 14.3785 21.0036C14.3978 21.0114 14.4168 21.0199 14.4354 21.0292C14.7437 21.1833 14.9295 21.25 15.4 21.25C15.8151 21.25 16.2359 21.0299 16.7011 20.5758C17.1171 20.1697 17.4839 19.6628 17.8542 19.151C17.8953 19.0941 17.9365 19.0372 17.9778 18.9803C18.3223 18.4289 18.5619 18.0344 18.8069 17.5483C16.0795 15.9258 15.5542 11.9007 18.1489 9.85129C17.4618 9.2452 16.6267 8.95 15.8 8.95C15.0376 8.95 14.5377 9.1114 13.9575 9.30471C13.4063 9.52348 12.9144 9.65 12.3 9.65C11.6817 9.65 11.1844 9.47002 10.7506 9.31302C10.6516 9.27718 10.5559 9.24254 10.4628 9.21151C9.85106 9.0076 9.36117 8.85 8.79996 8.85Z" fill="black"/>
</svg>
