<svg viewBox="0 0 24 24" fill="none" xmlns="http://www.w3.org/2000/svg">
<path d="M9.67574 5.05963C9.26153 5.05963 8.92574 5.39542 8.92574 5.80963C8.92574 6.22385 9.26153 6.55963 9.67574 6.55963L16.4494 6.55963L5.70893 17.3001C5.41603 17.593 5.41603 18.0678 5.70893 18.3607C6.00182 18.6536 6.47669 18.6536 6.76959 18.3607L17.51 7.6203V14.3939C17.51 14.8081 17.8458 15.1439 18.26 15.1439C18.6742 15.1439 19.01 14.8081 19.01 14.3939L19.01 5.80963C19.01 5.61072 18.931 5.41995 18.7903 5.2793C18.6497 5.13865 18.4589 5.05963 18.26 5.05963L9.67574 5.05963Z" fill="black"/>
</svg>
