<svg viewBox="0 0 24 24" fill="none" xmlns="http://www.w3.org/2000/svg">
<path d="M14.9603 5.39966C14.6674 5.10677 14.1925 5.10677 13.8996 5.39966C13.6067 5.69256 13.6067 6.16743 13.8996 6.46032L18.6893 11.25H3.5C3.08579 11.25 2.75 11.5858 2.75 12C2.75 12.4142 3.08579 12.75 3.5 12.75H18.6893L13.8996 17.5397C13.6067 17.8326 13.6067 18.3074 13.8996 18.6003C14.1925 18.8932 14.6674 18.8932 14.9603 18.6003L21.0303 12.5303C21.1709 12.3897 21.2499 12.1989 21.2499 12C21.2499 11.8011 21.1709 11.6103 21.0303 11.4697L14.9603 5.39966Z" fill="black"/>
</svg>
