<svg viewBox="0 0 24 24" fill="none" xmlns="http://www.w3.org/2000/svg">
<path d="M5.64936 14.7803C5.35646 14.4874 5.35646 14.0126 5.64936 13.7197C5.94225 13.4268 6.41712 13.4268 6.71002 13.7197L11.4997 18.5094L11.4997 3.32008C11.4997 2.90586 11.8355 2.57008 12.2497 2.57008C12.6639 2.57008 12.9997 2.90586 12.9997 3.32008L12.9997 18.5093L17.7894 13.7197C18.0822 13.4268 18.5571 13.4268 18.85 13.7197C19.1429 14.0126 19.1429 14.4874 18.85 14.7803L12.78 20.8503C12.6394 20.991 12.4486 21.07 12.2497 21.07C12.0508 21.07 11.86 20.991 11.7194 20.8503L5.64936 14.7803Z" fill="black"/>
</svg>
