<svg viewBox="0 0 24 24" fill="none" xmlns="http://www.w3.org/2000/svg">
<path d="M9.28967 18.4203C9.58256 18.7132 10.0574 18.7132 10.3503 18.4203C10.6432 18.1274 10.6432 17.6526 10.3503 17.3597L5.56065 12.57H20.7499C21.1641 12.57 21.4999 12.2342 21.4999 11.82C21.4999 11.4058 21.1641 11.07 20.7499 11.07H5.56067L10.3503 6.28033C10.6432 5.98744 10.6432 5.51256 10.3503 5.21967C10.0574 4.92678 9.58256 4.92678 9.28967 5.21967L3.21967 11.2897C3.07902 11.4303 3 11.6211 3 11.82C3 12.0189 3.07902 12.2097 3.21967 12.3503L9.28967 18.4203Z" fill="black"/>
</svg>
