<svg viewBox="0 0 24 24" fill="none" xmlns="http://www.w3.org/2000/svg">
<path d="M5.64936 8.85974C5.35646 9.15263 5.35646 9.62751 5.64936 9.9204C5.94225 10.2133 6.41712 10.2133 6.71002 9.9204L11.4997 5.13072L11.4997 20.32C11.4997 20.7342 11.8355 21.07 12.2497 21.07C12.6639 21.07 12.9997 20.7342 12.9997 20.32L12.9997 5.13074L17.7894 9.9204C18.0822 10.2133 18.5571 10.2133 18.85 9.9204C19.1429 9.6275 19.1429 9.15263 18.85 8.85974L12.78 2.78974C12.6394 2.64909 12.4486 2.57007 12.2497 2.57007C12.0508 2.57007 11.86 2.64909 11.7194 2.78974L5.64936 8.85974Z" fill="black"/>
</svg>
