<svg viewBox="0 0 24 24" fill="none" xmlns="http://www.w3.org/2000/svg">
<path fill-rule="evenodd" clip-rule="evenodd" d="M8.96997 22.75H14.97C20.41 22.75 22.72 20.43 22.72 15V13C22.72 12.59 22.38 12.25 21.97 12.25C21.56 12.25 21.22 12.59 21.22 13V15C21.22 19.61 19.58 21.25 14.97 21.25H8.96997C4.35997 21.25 2.71997 19.61 2.71997 15V9C2.71997 4.39 4.35997 2.75 8.96997 2.75H10.97C11.38 2.75 11.72 2.41 11.72 2C11.72 1.59 11.38 1.25 10.97 1.25H8.96997C3.53997 1.25 1.21997 3.57 1.21997 9V15C1.21997 20.43 3.53997 22.75 8.96997 22.75ZM5.49999 14.07C5.70197 12.2063 7.10926 10.7893 8.94029 10.5387C9.03661 10.3668 9.14873 10.2078 9.26996 10.07L10.5 8.53001C12.64 5.86001 16.95 2.66001 20.13 1.39001C20.86 1.11001 21.63 1.27001 22.16 1.80001C22.71 2.35001 22.87 3.13001 22.58 3.84001C21.31 7.01001 18.11 11.33 15.45 13.46L13.88 14.72C13.7451 14.8157 13.6217 14.8981 13.5038 14.969C13.4011 15.8827 12.9985 16.7315 12.34 17.39C11.71 18.02 10.89 18.41 9.95999 18.53L7.97999 18.74C7.87999 18.75 7.78999 18.75 7.69999 18.75C7.05999 18.75 6.44999 18.5 5.98999 18.04C5.45999 17.51 5.19999 16.78 5.28999 16.03L5.49999 14.07ZM10.72 10.67C10.8756 10.721 11.0274 10.7812 11.1749 10.8501C11.418 10.9625 11.6491 11.0992 11.8661 11.2595C12.0354 11.3832 12.1969 11.5202 12.35 11.67C12.81 12.13 13.14 12.66 13.33 13.23L14.51 12.28C14.6926 12.1333 14.878 11.9756 15.0652 11.8082C14.9774 10.2463 13.7003 8.98708 12.1192 8.94129C11.9639 9.1161 11.8171 9.28925 11.68 9.46001L10.72 10.67ZM13.39 7.64783C14.7778 8.08404 15.8817 9.16986 16.3401 10.5506C18.3234 8.42062 20.2827 5.53434 21.19 3.27001C21.27 3.08001 21.18 2.94001 21.1 2.85001C21.05 2.80001 20.91 2.69001 20.68 2.78001C18.4165 3.69 15.5214 5.65842 13.39 7.64783ZM9.59999 11.99H9.49999C8.34999 12.02 7.13999 12.79 6.98999 14.23L6.77999 16.2C6.74999 16.49 6.84999 16.78 7.04999 16.98C7.24999 17.18 7.52999 17.28 7.80999 17.25L9.77999 17.04C10.36 16.97 10.88 16.72 11.27 16.33C11.75 15.84 12.02 15.2 12.02 14.5C12.02 14.39 12.01 14.27 11.99 14.15C11.92 13.62 11.68 13.15 11.28 12.74C10.87 12.33 10.37 12.07 9.81999 12C9.76999 11.99 9.68999 11.99 9.59999 11.99Z" fill="black"/>
</svg>
