<svg viewBox="0 0 24 24" fill="none" xmlns="http://www.w3.org/2000/svg">
<path fill-rule="evenodd" clip-rule="evenodd" d="M4.6047 5.81415C5.11513 4.28286 6.54815 3.25 8.16227 3.25H15.8377C17.4518 3.25 18.8848 4.28286 19.3953 5.81415L20.394 8.81021L21.7325 8.2993C22.1195 8.1516 22.553 8.34557 22.7007 8.73256C22.8484 9.11954 22.6544 9.55299 22.2674 9.7007L21.3281 10.0592C22.1945 10.7462 22.75 11.8083 22.75 13V18.5C22.75 19.7427 21.7425 20.75 20.4999 20.75H18.5C17.2573 20.75 16.25 19.7426 16.25 18.5V18.25H7.74999V18.5C7.74999 19.7426 6.74265 20.75 5.5 20.75H3.50004C2.25744 20.75 1.24999 19.7427 1.24999 18.5V13C1.24999 11.8078 1.80594 10.7452 2.67307 10.0583L1.73344 9.70103C1.34627 9.55382 1.15174 9.12062 1.29895 8.73345C1.44617 8.34628 1.87937 8.15175 2.26654 8.29897L3.60659 8.80849L4.6047 5.81415ZM5.04056 9.25L6.02773 6.28849C6.33399 5.36972 7.1938 4.75 8.16227 4.75H15.8377C16.8062 4.75 17.666 5.36972 17.9722 6.28849L18.9594 9.25H5.04056ZM4.99846 10.75C3.75631 10.75 2.74999 11.7569 2.74999 13V18.5C2.74999 18.9142 3.08579 19.25 3.50004 19.25H5.5C5.91421 19.25 6.24999 18.9142 6.24999 18.5V17.5C6.24999 17.0858 6.58578 16.75 6.99999 16.75H17C17.4142 16.75 17.75 17.0858 17.75 17.5V18.5C17.75 18.9142 18.0858 19.25 18.5 19.25H20.4999C20.9142 19.25 21.25 18.9142 21.25 18.5V13C21.25 11.7569 20.2437 10.75 19.0015 10.75H4.99846ZM4.99999 14C4.99999 13.5858 5.33578 13.25 5.74999 13.25H8.24999C8.6642 13.25 8.99999 13.5858 8.99999 14C8.99999 14.4142 8.6642 14.75 8.24999 14.75H5.74999C5.33578 14.75 4.99999 14.4142 4.99999 14ZM15 14C15 13.5858 15.3358 13.25 15.75 13.25H18.25C18.6642 13.25 19 13.5858 19 14C19 14.4142 18.6642 14.75 18.25 14.75H15.75C15.3358 14.75 15 14.4142 15 14Z" fill="black"/>
</svg>
