<svg viewBox="0 0 24 24" fill="none" xmlns="http://www.w3.org/2000/svg">
<path d="M13.3354 1.32918C13.7059 1.51442 13.8561 1.96492 13.6708 2.33541L12.6708 4.33541C12.4856 4.70589 12.0351 4.85606 11.6646 4.67082C11.2941 4.48557 11.1439 4.03507 11.3292 3.66459L12.3292 1.66459C12.5144 1.2941 12.9649 1.14393 13.3354 1.32918Z" fill="black"/>
<path d="M1.5 8C1.5 7.17157 2.17157 6.5 3 6.5H21C21.8284 6.5 22.5 7.17157 22.5 8H21H12H3H1.5Z" fill="black"/>
<path d="M3 8C3 8 3 8.59142 3.1122 9.5C3.48389 12.5098 5.08687 19 12 19C18.9131 19 20.5161 12.5098 20.8878 9.5C21 8.59142 21 8 21 8C22.5 8 22.5 8.00133 22.5 8.00133L22.5 8.00291L22.5 8.00684L22.4999 8.01771L22.4996 8.05135C22.4992 8.07897 22.4985 8.11689 22.4972 8.16443C22.4947 8.25947 22.4896 8.39322 22.4799 8.56017C22.4604 8.89362 22.4219 9.36217 22.3456 9.92142C22.1942 11.0321 21.8886 12.5395 21.2633 14.0679C20.639 15.5942 19.6686 17.2073 18.1506 18.4441C17.8061 18.7248 17.4375 18.9827 17.044 19.2139L18.6241 21.584C18.8538 21.9286 18.7607 22.3943 18.416 22.624C18.0714 22.8538 17.6057 22.7607 17.376 22.416L15.6765 19.8668C14.6027 20.2716 13.3811 20.5 12 20.5C10.6189 20.5 9.39725 20.2716 8.32351 19.8668L6.62403 22.416C6.39426 22.7607 5.92861 22.8538 5.58396 22.624C5.23932 22.3943 5.14619 21.9286 5.37595 21.584L6.95598 19.2139C6.5625 18.9827 6.1939 18.7248 5.84937 18.4441C4.33141 17.2073 3.36104 15.5942 2.73668 14.0679C2.11141 12.5395 1.80584 11.0321 1.65438 9.92142C1.57812 9.36217 1.53962 8.89362 1.52013 8.56017C1.51038 8.39322 1.50535 8.25947 1.50275 8.16443C1.50146 8.11689 1.50077 8.07897 1.50041 8.05135L1.50007 8.01771L1.50001 8.00684L1.5 8.00133C1.5 8.00133 1.5 8 3 8Z" fill="black"/>
<path d="M8.67083 2.33541C8.85607 1.96492 8.70591 1.51442 8.33542 1.32918C7.96494 1.14393 7.51443 1.2941 7.32919 1.66459L6.32919 3.66459C6.14395 4.03507 6.29412 4.48557 6.6646 4.67082C7.03509 4.85606 7.48559 4.70589 7.67083 4.33541L8.67083 2.33541Z" fill="black"/>
<path d="M18.3354 1.32918C18.7059 1.51442 18.8561 1.96492 18.6708 2.33541L17.6708 4.33541C17.4856 4.70589 17.0351 4.85606 16.6646 4.67082C16.2941 4.48557 16.1439 4.03507 16.3292 3.66459L17.3292 1.66459C17.5144 1.2941 17.9649 1.14393 18.3354 1.32918Z" fill="black"/>
<path d="M13.82 10.27C13.82 9.85579 14.1558 9.52 14.57 9.52H18.25C18.6642 9.52 19 9.85579 19 10.27C19 10.6842 18.6642 11.02 18.25 11.02H14.57C14.1558 11.02 13.82 10.6842 13.82 10.27Z" fill="black"/>
<path d="M10.7345 10.25C10.7345 9.83579 11.0703 9.5 11.4845 9.5H11.4935C11.9077 9.5 12.2435 9.83579 12.2435 10.25C12.2435 10.6642 11.9077 11 11.4935 11H11.4845C11.0703 11 10.7345 10.6642 10.7345 10.25Z" fill="black"/>
</svg>
