<svg viewBox="0 0 24 24" fill="none" xmlns="http://www.w3.org/2000/svg">
<path fill-rule="evenodd" clip-rule="evenodd" d="M13.3154 2.23499C12.8566 2.02983 12.3026 1.94501 11.79 1.94501C11.2774 1.94501 10.7234 2.02983 10.2646 2.23499L10.2635 2.23549L4.36729 4.85382C3.44228 5.2621 2.64502 5.94813 2.64502 6.91001C2.64502 7.87185 3.44143 8.55751 4.3664 8.9658L10.2635 11.5845L10.2648 11.5851C10.7236 11.7902 11.2775 11.875 11.79 11.875C12.3026 11.875 12.8565 11.7902 13.3153 11.5851L13.3165 11.5845L19.2127 8.9662C20.1378 8.55791 20.935 7.87189 20.935 6.91001C20.935 5.9481 20.1385 5.2624 19.2134 4.85413L13.3165 2.23549L13.3154 2.23499ZM11.79 3.44501C11.418 3.44501 11.0875 3.51005 10.8765 3.60452L10.8744 3.60547L4.97275 6.2262C4.19809 6.56796 4.14502 6.87716 4.14502 6.91001C4.14502 6.94285 4.19809 7.25206 4.97275 7.59382L4.97441 7.59455L10.8765 10.2155C11.0875 10.31 11.418 10.375 11.79 10.375C12.162 10.375 12.4925 10.31 12.7035 10.2155L12.7056 10.2146L18.6056 7.59455L18.6073 7.59382C19.3819 7.25206 19.435 6.94285 19.435 6.91001C19.435 6.87716 19.3819 6.56796 18.6073 6.2262L12.7056 3.60546L12.7035 3.60452C12.4925 3.51005 12.162 3.44501 11.79 3.44501Z" fill="black"/>
<path d="M3 10.25C3.41421 10.25 3.75 10.5858 3.75 11C3.75 11.2434 3.84628 11.5559 4.0399 11.8535C4.23351 12.151 4.48007 12.3655 4.70295 12.4639L4.70479 12.4647L11.4934 15.4841C11.8219 15.6291 12.1898 15.6269 12.5017 15.4863L12.5052 15.4847L19.2952 12.4647L19.2971 12.4639C19.5199 12.3655 19.7665 12.151 19.9601 11.8535C20.1537 11.5559 20.25 11.2434 20.25 11C20.25 10.5858 20.5858 10.25 21 10.25C21.4142 10.25 21.75 10.5858 21.75 11C21.75 11.5966 21.5313 12.1891 21.2174 12.6715C20.9037 13.1537 20.4505 13.5941 19.9038 13.8357L13.1183 16.8537L13.1163 16.8546C12.4089 17.1729 11.5973 17.1702 10.8866 16.8559L4.09705 13.8361L4.09603 13.8356C3.54937 13.594 3.0963 13.1537 2.7826 12.6715C2.46872 12.1891 2.25 11.5966 2.25 11C2.25 10.5858 2.58579 10.25 3 10.25Z" fill="black"/>
<path d="M3.75 16C3.75 15.5858 3.41421 15.25 3 15.25C2.58579 15.25 2.25 15.5858 2.25 16C2.25 17.229 2.97681 18.3353 4.0939 18.8347L10.8866 21.8559C11.5973 22.1702 12.4089 22.1729 13.1163 21.8546L13.1183 21.8537L19.9048 18.8353L19.9061 18.8347C21.0232 18.3353 21.75 17.229 21.75 16C21.75 15.5858 21.4142 15.25 21 15.25C20.5858 15.25 20.25 15.5858 20.25 16C20.25 16.6308 19.8765 17.2046 19.2939 17.4653L12.5052 20.4847L12.5017 20.4863C12.1898 20.6269 11.8219 20.6291 11.4934 20.4841L4.70554 17.4651C4.12295 17.2043 3.75 16.6308 3.75 16Z" fill="black"/>
</svg>
