<svg viewBox="0 0 24 24" fill="none" xmlns="http://www.w3.org/2000/svg">
<path fill-rule="evenodd" clip-rule="evenodd" d="M12 19.7412C11.6352 19.5981 11.2904 19.4235 10.9656 19.2216C8.04582 19.9845 5.07338 18.8533 3.33653 17.1164C1.2961 15.076 0.0916 11.3303 1.8118 7.9681C2.56785 7.58128 3.3433 7.34235 4.11438 7.22756C4.51498 6.1213 5.1796 5.07159 6.15907 4.19263C7.32605 4.06801 8.42639 4.22032 9.42404 4.5686C10.129 3.77858 10.9876 3.13838 12 2.74121C15.3333 4.0489 17 7.99123 17 11.2412C17 13.5202 16.1804 16.1397 14.5413 17.9524L14.5444 17.949C16.5062 18.0739 18.4069 17.2517 19.6028 16.0558C21.1853 14.4733 22.1134 11.657 21.0586 9.09766C19.613 8.50186 18.0853 8.53874 16.7444 8.96885C16.6369 8.48513 16.4956 8.00264 16.3204 7.53101C16.8849 7.35172 17.4772 7.22905 18.0847 7.17564C17.8243 6.63235 17.4788 6.11678 17.0392 5.65197C16.505 5.63893 15.9883 5.69832 15.4957 5.81737C15.2162 5.35749 14.8978 4.92408 14.5404 4.52901C15.507 4.20894 16.5672 4.07283 17.689 4.19263C18.6619 5.06575 19.3242 6.10736 19.7256 7.20552C20.5493 7.31001 21.3798 7.55452 22.1882 7.9681C23.9084 11.3303 22.7039 15.076 20.6635 17.1164C18.9266 18.8533 15.9542 19.9845 13.0344 19.2216C12.7096 19.4235 12.3648 19.5981 12 19.7412ZM12 18.0878C14.2059 16.8762 15.5 13.9359 15.5 11.2412C15.5 8.54653 14.2059 5.6062 12 4.3946C9.79408 5.6062 8.5 8.54653 8.5 11.2412C8.5 13.9359 9.79408 16.8762 12 18.0878ZM8.48413 5.85078C7.49471 7.49441 7 9.47057 7 11.2412C7 13.5207 7.81988 16.1407 9.45964 17.9534L9.45559 17.949C7.49376 18.0739 5.59311 17.2517 4.39719 16.0558C2.81472 14.4733 1.88659 11.657 2.94137 9.09766C4.38701 8.50186 5.91467 8.53874 7.25564 8.96885C7.36309 8.48514 7.50442 8.00264 7.67962 7.53101C7.06982 7.33734 6.4276 7.20973 5.7689 7.16413C6.0286 6.62507 6.37239 6.11349 6.80881 5.65197C7.39091 5.63776 7.95219 5.70954 8.48413 5.85078Z" fill="black"/>
</svg>
