<svg viewBox="0 0 24 24" fill="none" xmlns="http://www.w3.org/2000/svg">
<path fill-rule="evenodd" clip-rule="evenodd" d="M6.15816 1.90548C6.66732 1.51612 7.31598 1.25 7.99 1.25H16.01C16.6843 1.25 17.333 1.51631 17.8434 1.90694C18.3541 2.29791 18.7819 2.85587 18.9629 3.51006L18.9636 3.51274L21.1643 11.5853C21.4318 12.5809 21.2673 13.5553 20.7043 14.2908C20.1411 15.0267 19.243 15.44 18.21 15.44H12.75V21.25H16C16.4142 21.25 16.75 21.5858 16.75 22C16.75 22.4142 16.4142 22.75 16 22.75H8C7.58579 22.75 7.25 22.4142 7.25 22C7.25 21.5858 7.58579 21.25 8 21.25H11.25V15.44H5.79C4.75715 15.44 3.85803 15.0267 3.29573 14.288C2.73352 13.5495 2.57341 12.5717 2.84653 11.5723L5.04571 3.5053L5.04609 3.50389C5.22199 2.85104 5.64931 2.2946 6.15816 1.90548ZM7.06933 3.09702C6.77106 3.32511 6.56862 3.61816 6.49428 3.8947L6.4936 3.89726L4.29359 11.9673C4.12671 12.5779 4.24647 13.0605 4.48927 13.3795C4.73196 13.6983 5.16285 13.94 5.79 13.94H18.21C18.837 13.94 19.2689 13.6983 19.5132 13.3791C19.7575 13.0599 19.878 12.5798 19.716 11.9759L19.7157 11.9747L17.5171 3.90994L17.5168 3.90875C17.4375 3.62331 17.2304 3.32678 16.9316 3.09806C16.632 2.86869 16.2957 2.75 16.01 2.75H7.99C7.70402 2.75 7.36767 2.86888 7.06933 3.09702Z" fill="black"/>
</svg>
