<svg viewBox="0 0 24 24" fill="none" xmlns="http://www.w3.org/2000/svg">
<path fill-rule="evenodd" clip-rule="evenodd" d="M8.75 4.25V3C8.75 2.03579 9.53579 1.25 10.5 1.25H13.5C14.4642 1.25 15.25 2.03579 15.25 3V4.25H16C18.0642 4.25 19.75 5.93579 19.75 8V11.2929L20.6993 11.674C21.9103 12.1611 22.6408 13.5543 22.3624 14.821L21.9521 16.6824C21.1706 20.2048 18.3725 22.75 14.3799 22.75H12.0024L12 22.75L11.9976 22.75H9.6199C5.62734 22.75 2.82924 20.2048 2.04771 16.6824L1.63748 14.8214C1.3591 13.5548 2.08901 12.1614 3.29997 11.6742L4.25 11.2931V8C4.25 5.93579 5.93579 4.25 8 4.25H8.75ZM10.25 3C10.25 2.86421 10.3642 2.75 10.5 2.75H13.5C13.6358 2.75 13.75 2.86421 13.75 3V4.25H10.25V3ZM8 5.75C6.76421 5.75 5.75 6.76421 5.75 8V10.6911L10.2339 8.89264C10.6701 8.71995 11.124 8.61352 11.5821 8.57331C11.7958 8.55454 12.0103 8.5502 12.2244 8.56027C12.7479 8.58489 13.2684 8.69568 13.766 8.89264L13.7692 8.89389L18.25 10.6911V8C18.25 6.76421 17.2358 5.75 16 5.75H8ZM3.85981 13.0658L10.7876 10.2867C10.9391 10.2268 11.0936 10.1786 11.25 10.1419V21.25H9.6199C6.37266 21.25 4.15072 19.2349 3.5121 16.3575L3.10236 14.4988C2.98093 13.9455 3.33099 13.2787 3.85981 13.0658ZM12.75 21.25V10.1419C12.9063 10.1786 13.0608 10.2269 13.2124 10.2868L13.2139 10.2873L20.1405 13.066C20.6693 13.2791 21.019 13.9459 20.8974 14.499L20.4877 16.3575C19.8492 19.2351 17.6273 21.25 14.3799 21.25H12.75Z" fill="black"/>
</svg>
