<svg viewBox="0 0 24 24" fill="none" xmlns="http://www.w3.org/2000/svg">
<path fill-rule="evenodd" clip-rule="evenodd" d="M12.0001 22.75C11.1201 22.75 10.2501 22.56 9.56012 22.18L4.22012 19.21C2.77012 18.41 1.64014 16.48 1.64014 14.82V9.16998C1.64014 7.50998 2.77012 5.59002 4.22012 4.78002L9.56012 1.82C10.9301 1.06 13.0701 1.06 14.4401 1.82L19.7801 4.78997C21.2301 5.58997 22.3601 7.51999 22.3601 9.17999V14.83C22.3601 16.49 21.2301 18.41 19.7801 19.22L14.4401 22.18C13.7501 22.56 12.8801 22.75 12.0001 22.75ZM12.0001 2.74999C11.3701 2.74999 10.7501 2.88 10.2901 3.13L8.76259 3.97958L17.0439 8.76165L20.0466 7.02437C19.7562 6.63299 19.4109 6.30292 19.0501 6.09997L13.7101 3.13C13.2501 2.88 12.6301 2.74999 12.0001 2.74999ZM16.2502 10.9639V13.24C16.2502 13.65 16.5902 13.99 17.0002 13.99C17.4102 13.99 17.7502 13.6501 17.7502 13.2601V10.095L20.7303 8.36883C20.8137 8.64723 20.8601 8.9229 20.8601 9.17999V14.83C20.8601 15.94 20.0101 17.37 19.0501 17.91L13.7101 20.88C13.4391 21.0319 13.1069 21.1385 12.75 21.1999V12.9914L16.2502 10.9639ZM15.5584 9.6211L11.9998 11.68L3.95263 7.02307C4.24328 6.63234 4.58892 6.30315 4.95013 6.09997L7.24265 4.82493L15.5584 9.6211ZM11.25 12.986L3.26917 8.36741C3.18627 8.64544 3.14014 8.9214 3.14014 9.17999V14.83C3.14014 15.93 3.99013 17.37 4.95013 17.91L10.2901 20.88C10.5611 21.0318 10.8932 21.1385 11.25 21.1999V12.986Z" fill="black"/>
</svg>
