<svg viewBox="0 0 24 24" fill="none" xmlns="http://www.w3.org/2000/svg">
<path fill-rule="evenodd" clip-rule="evenodd" d="M8.95131 2.7211L10.106 4.61605L10.3666 4.45739C10.7204 4.24196 11.1818 4.35411 11.3972 4.70789L13.3136 7.85489C14.9967 7.64218 16.6841 8.36506 17.7127 9.75359L20.4842 13.4956C21.6312 15.0551 21.2312 17.1893 19.5591 18.2012L19.5581 18.2018L18.9748 18.5565C18.9542 18.5721 18.9326 18.5869 18.91 18.6006C18.8872 18.6145 18.8639 18.6271 18.8403 18.6383L16.4334 20.1019C16.4073 20.123 16.3795 20.1427 16.35 20.1606C16.3203 20.1787 16.2898 20.1945 16.2588 20.208L13.888 21.6496C13.8578 21.6755 13.8251 21.6993 13.79 21.7206C13.7547 21.7421 13.7183 21.7604 13.6812 21.7754L13.1316 22.1096C11.4718 23.1322 9.37919 22.5137 8.52635 20.7697L6.47768 16.5924L6.47711 16.5913C5.69558 15.0095 5.85723 13.1245 6.88191 11.7131L4.99148 8.60864C4.77605 8.25486 4.88821 7.79342 5.24199 7.57799L5.40603 7.47809L4.2487 5.57887C3.46526 4.28689 3.87474 2.58479 5.17112 1.79869C6.4628 1.01544 8.16442 1.42452 8.95076 2.72021L8.95131 2.7211ZM5.94888 3.0813C6.5369 2.72473 7.3148 2.91524 7.66869 3.49885L8.82488 5.3962L6.68719 6.69794L5.53094 4.8005C5.17488 4.21256 5.36546 3.43507 5.94888 3.0813ZM18.7687 16.9263L17.5106 14.86C17.2952 14.5062 16.8337 14.394 16.4799 14.6094C16.1262 14.8248 16.014 15.2862 16.2294 15.64L17.487 17.7056L16.2072 18.4838L14.9506 16.42C14.7352 16.0662 14.2737 15.954 13.9199 16.1694C13.5662 16.3848 13.454 16.8462 13.6694 17.2L14.9255 19.2632L13.6457 20.0414L12.3906 17.98C12.1752 17.6262 11.7138 17.514 11.36 17.7294C11.0062 17.9448 10.894 18.4062 11.1094 18.76L12.3641 20.8208L12.3503 20.8291L12.3461 20.8317C11.4463 21.3871 10.3402 21.0647 9.87337 20.1098L7.82337 15.9298L7.8223 15.9276C7.09799 14.4627 7.555 12.6308 9.04996 11.7207L12.21 9.80062C13.7033 8.89163 15.5273 9.32348 16.5073 10.6464L19.2758 14.3844L19.2766 14.3854C19.9084 15.2454 19.6886 16.37 18.7819 16.9182L18.7803 16.9192L18.7687 16.9263ZM6.83972 8.39078C6.78305 8.42525 6.72362 8.45132 6.66288 8.46934L7.96296 10.6043L11.8064 8.26386L10.5062 6.12861L10.4174 6.18266C10.3713 6.23189 10.3184 6.2751 10.2597 6.31077L6.83972 8.39078Z" fill="black"/>
</svg>
