<svg viewBox="0 0 24 24" fill="none" xmlns="http://www.w3.org/2000/svg">
<path fill-rule="evenodd" clip-rule="evenodd" d="M11.75 18.5C11.34 18.5 11 18.16 11 17.75V17.17H10.64C9.00003 17.17 7.67003 15.79 7.67003 14.09C7.67003 13.68 8.01003 13.34 8.42003 13.34C8.83003 13.34 9.17003 13.68 9.17003 14.09C9.17003 14.96 9.83003 15.67 10.64 15.67H11V12.282L9.49003 11.75C8.71003 11.48 7.66003 10.9 7.66003 9.11C7.66003 7.57 8.87003 6.33 10.35 6.33H11V5.75C11 5.34 11.34 5 11.75 5C12.16 5 12.5 5.34 12.5 5.75V6.33H12.86C14.5 6.33 15.83 7.71 15.83 9.41C15.83 9.82 15.49 10.16 15.08 10.16C14.67 10.16 14.33 9.82 14.33 9.41C14.33 8.54 13.67 7.83 12.86 7.83H12.5V11.2179L14.01 11.75C14.79 12.02 15.84 12.6 15.84 14.39C15.83 15.92 14.63 17.17 13.15 17.17H12.5V17.75C12.5 18.16 12.16 18.5 11.75 18.5ZM11 7.83V10.6894L9.98003 10.33C9.47003 10.15 9.16003 9.98 9.16003 9.11C9.16003 8.41 9.70004 7.83 10.35 7.83H11ZM12.5 15.67V12.8106L13.52 13.17C14.03 13.35 14.34 13.52 14.34 14.39C14.34 15.09 13.8 15.67 13.15 15.67H12.5Z" fill="black"/>
<path fill-rule="evenodd" clip-rule="evenodd" d="M1 11.75C1 17.68 5.82 22.5 11.75 22.5C17.68 22.5 22.5 17.68 22.5 11.75C22.5 5.82 17.68 1 11.75 1C5.82 1 1 5.82 1 11.75ZM2.5 11.75C2.5 6.65 6.65 2.5 11.75 2.5C16.85 2.5 21 6.65 21 11.75C21 16.85 16.85 21 11.75 21C6.65 21 2.5 16.85 2.5 11.75Z" fill="black"/>
</svg>
