<svg viewBox="0 0 24 24" fill="none" xmlns="http://www.w3.org/2000/svg">
<path d="M14.9447 13.7C14.9447 13.2858 15.2805 12.95 15.6947 12.95H15.7037C16.1179 12.95 16.4537 13.2858 16.4537 13.7C16.4537 14.1142 16.1179 14.45 15.7037 14.45H15.6947C15.2805 14.45 14.9447 14.1142 14.9447 13.7Z" fill="black"/>
<path d="M15.6947 15.95C15.2805 15.95 14.9447 16.2858 14.9447 16.7C14.9447 17.1142 15.2805 17.45 15.6947 17.45H15.7037C16.1179 17.45 16.4537 17.1142 16.4537 16.7C16.4537 16.2858 16.1179 15.95 15.7037 15.95H15.6947Z" fill="black"/>
<path d="M11.2455 13.7C11.2455 13.2858 11.5813 12.95 11.9955 12.95H12.0045C12.4187 12.95 12.7545 13.2858 12.7545 13.7C12.7545 14.1142 12.4187 14.45 12.0045 14.45H11.9955C11.5813 14.45 11.2455 14.1142 11.2455 13.7Z" fill="black"/>
<path d="M11.9955 15.95C11.5813 15.95 11.2455 16.2858 11.2455 16.7C11.2455 17.1142 11.5813 17.45 11.9955 17.45H12.0045C12.4187 17.45 12.7545 17.1142 12.7545 16.7C12.7545 16.2858 12.4187 15.95 12.0045 15.95H11.9955Z" fill="black"/>
<path d="M7.54431 13.7C7.54431 13.2858 7.8801 12.95 8.29431 12.95H8.30329C8.71751 12.95 9.05329 13.2858 9.05329 13.7C9.05329 14.1142 8.71751 14.45 8.30329 14.45H8.29431C7.8801 14.45 7.54431 14.1142 7.54431 13.7Z" fill="black"/>
<path d="M8.29431 15.95C7.8801 15.95 7.54431 16.2858 7.54431 16.7C7.54431 17.1142 7.8801 17.45 8.29431 17.45H8.30329C8.71751 17.45 9.05329 17.1142 9.05329 16.7C9.05329 16.2858 8.71751 15.95 8.30329 15.95H8.29431Z" fill="black"/>
<path fill-rule="evenodd" clip-rule="evenodd" d="M8.75 2C8.75 1.58579 8.41421 1.25 8 1.25C7.58579 1.25 7.25 1.58579 7.25 2V2.78025C5.71409 2.90808 4.4962 3.44034 3.6379 4.36466C2.65363 5.42465 2.25 6.88503 2.25 8.5V17C2.25 18.615 2.65363 20.0754 3.6379 21.1353C4.63152 22.2054 6.10705 22.75 8 22.75H16C17.893 22.75 19.3685 22.2054 20.3621 21.1353C21.3464 20.0754 21.75 18.615 21.75 17V8.5C21.75 6.88503 21.3464 5.42465 20.3621 4.36466C19.5038 3.44034 18.2859 2.90808 16.75 2.78025V2C16.75 1.58579 16.4142 1.25 16 1.25C15.5858 1.25 15.25 1.58579 15.25 2V2.75H8.75V2ZM7.25 4.28628V5C7.25 5.41421 7.58579 5.75 8 5.75C8.41421 5.75 8.75 5.41421 8.75 5V4.25H15.25V5C15.25 5.41421 15.5858 5.75 16 5.75C16.4142 5.75 16.75 5.41421 16.75 5V4.28628C17.935 4.40668 18.7359 4.81778 19.2629 5.38534C19.8787 6.04852 20.2226 7.03465 20.2484 8.34H3.75157C3.77738 7.03465 4.12128 6.04852 4.7371 5.38534C5.26412 4.81778 6.06502 4.40668 7.25 4.28628ZM3.75 9.84V17C3.75 18.385 4.09637 19.4246 4.7371 20.1147C5.36848 20.7946 6.39295 21.25 8 21.25H16C17.607 21.25 18.6315 20.7946 19.2629 20.1147C19.9036 19.4246 20.25 18.385 20.25 17V9.84H3.75Z" fill="black"/>
</svg>
