<svg viewBox="0 0 24 24" fill="none" xmlns="http://www.w3.org/2000/svg">
<path fill-rule="evenodd" clip-rule="evenodd" d="M11.5 7.25C10.2574 7.25 9.25 8.25736 9.25 9.5C9.25 10.7426 10.2574 11.75 11.5 11.75C12.7426 11.75 13.75 10.7426 13.75 9.5C13.75 8.25736 12.7426 7.25 11.5 7.25ZM10.75 9.5C10.75 9.08579 11.0858 8.75 11.5 8.75C11.9142 8.75 12.25 9.08579 12.25 9.5C12.25 9.91421 11.9142 10.25 11.5 10.25C11.0858 10.25 10.75 9.91421 10.75 9.5Z" fill="black"/>
<path fill-rule="evenodd" clip-rule="evenodd" d="M16.3461 20.0308C17.1578 19.2206 17.4447 18.038 17.4849 16.5886L19.0875 17.7127L19.0885 17.7134C19.8781 18.2705 20.8099 18.5254 21.6157 18.1068C22.4215 17.6883 22.75 16.7788 22.75 15.81V8.18999C22.75 7.22053 22.4212 6.31254 21.6172 5.89269C20.813 5.47274 19.8814 5.7227 19.0905 6.27515L17.4847 7.40153C17.4438 5.95784 17.1591 4.77839 16.3503 3.96966C15.4702 3.08953 14.151 2.82999 12.53 2.82999H6.21C4.589 2.82999 3.2698 3.08953 2.38967 3.96966C1.50954 4.84978 1.25 6.16898 1.25 7.78999V16.21C1.25 17.3758 1.53859 18.6204 2.34391 19.5865C3.16929 20.5766 4.4504 21.17 6.21 21.17H12.53C14.1467 21.17 15.4651 20.9102 16.3461 20.0308ZM3.45033 5.03032C3.01546 5.46519 2.75 6.25099 2.75 7.78999V16.21C2.75 17.1542 2.98641 18.0146 3.49609 18.626C3.98571 19.2134 4.8096 19.67 6.21 19.67H12.53C14.0633 19.67 14.8499 19.4048 15.2864 18.9692C15.7226 18.5338 15.99 17.7475 15.99 16.21V15.1538L15.99 15.15V8.83999L15.99 8.83621V7.78999C15.99 6.25099 15.7245 5.46519 15.2897 5.03032C14.8548 4.59544 14.069 4.32999 12.53 4.32999H6.21C4.671 4.32999 3.8852 4.59544 3.45033 5.03032ZM19.9507 16.486L17.49 14.76V9.23003L19.9495 7.50484C20.5183 7.10772 20.827 7.17226 20.9228 7.2223C21.0188 7.27244 21.25 7.48946 21.25 8.18999V15.81C21.25 16.5112 21.0185 16.7267 20.9243 16.7757C20.8305 16.8244 20.5226 16.8897 19.9525 16.4873L19.9507 16.486Z" fill="black"/>
</svg>
