<svg viewBox="0 0 24 24" fill="none" xmlns="http://www.w3.org/2000/svg">
<path fill-rule="evenodd" clip-rule="evenodd" d="M7.25 5.2V5.26001H6.99998C4.83998 5.26001 3.34998 5.74001 2.44998 6.74001C1.40998 7.90001 1.43998 9.45001 1.54998 10.5L2.29998 18.51C2.51998 20.6 3.37998 22.75 7.99998 22.75H16C20.62 22.75 21.48 20.6 21.7 18.5L22.45 10.51C22.56 9.45001 22.59 7.90001 21.55 6.74001C20.66 5.75001 19.17 5.26001 17 5.26001H16.75V5.2C16.75 3.44 16.75 1.25 12.8 1.25H11.2C7.25 1.25 7.25 3.44 7.25 5.2ZM15.25 5.2V5.26001H8.75V5.2C8.75 3.42 8.75 2.75 11.2 2.75H12.8C15.25 2.75 15.25 3.42 15.25 5.2ZM6.99998 6.75001C5.30998 6.75001 4.14998 7.08001 3.55998 7.74001C3.06998 8.28001 2.90998 9.11001 3.03998 10.35L3.24607 12.551C5.07128 13.7532 7.12492 14.5645 9.25 14.9284V14.7561C9.25 13.3461 9.59 13.0061 11 13.0061H13C14.41 13.0061 14.75 13.3461 14.75 14.7561V14.8979C16.9042 14.5093 18.9627 13.674 20.7629 12.4594L20.96 10.36C21.09 9.11001 20.93 8.28001 20.44 7.74001C19.85 7.08001 18.69 6.75001 17 6.75001H6.99998ZM9.27114 16.4512C7.22836 16.139 5.23754 15.4445 3.4205 14.4139L3.78998 18.36C3.95998 19.94 4.38998 21.25 7.99998 21.25H16C19.6 21.25 20.04 19.94 20.21 18.35L20.5862 14.3419C18.7864 15.3799 16.7992 16.0905 14.7288 16.4326C14.6427 17.405 14.2067 18.5061 12 18.5061C9.79271 18.5061 9.3571 17.4109 9.27114 16.4512ZM10.75 14.5061H13.25V15.7761C13.25 16.8461 13.25 17.0061 12 17.0061C10.75 17.0061 10.75 16.8161 10.75 15.7861V14.5061Z" fill="black"/>
</svg>
