<svg viewBox="0 0 24 24" fill="none" xmlns="http://www.w3.org/2000/svg">
<path d="M9 10.25C9.41421 10.25 9.75 10.5858 9.75 11V13.5C9.75 13.9142 9.41421 14.25 9 14.25C8.58579 14.25 8.25 13.9142 8.25 13.5V11C8.25 10.5858 8.58579 10.25 9 10.25Z" fill="black"/>
<path fill-rule="evenodd" clip-rule="evenodd" d="M13.5 3.25C15.0188 3.25 16.25 4.48122 16.25 6V7.6459C16.25 9.03891 15.4781 10.3147 14.25 10.9625V11.8708L20.0648 12.8969C21.6178 13.171 22.75 14.5204 22.75 16.0975V18C22.75 19.7949 21.2949 21.25 19.5 21.25H6C4.48122 21.25 3.25 20.0188 3.25 18.5V10.9625C2.02187 10.3147 1.25 9.03891 1.25 7.6459V6C1.25 4.48122 2.48122 3.25 4 3.25H13.5ZM4 4.75C3.30964 4.75 2.75 5.30964 2.75 6V7.6459C2.75 8.49814 3.23151 9.27723 3.99377 9.65836L4.33541 9.82918C4.5895 9.95622 4.75 10.2159 4.75 10.5V18.5C4.75 19.1904 5.30964 19.75 6 19.75H12.75V10.5C12.75 10.2159 12.9105 9.95622 13.1646 9.82918L13.5062 9.65836C14.2685 9.27723 14.75 8.49814 14.75 7.6459V6C14.75 5.30964 14.1904 4.75 13.5 4.75H11.75V6.5C11.75 6.91421 11.4142 7.25 11 7.25C10.5858 7.25 10.25 6.91421 10.25 6.5V4.75H7.75V6.5C7.75 6.91421 7.41421 7.25 7 7.25C6.58579 7.25 6.25 6.91421 6.25 6.5V4.75H4ZM18 19.75H19.5C20.4665 19.75 21.25 18.9665 21.25 18V16.0975C21.25 15.2483 20.6404 14.5217 19.8041 14.3741L14.25 13.3939V19.75H16.5V18C16.5 17.5858 16.8358 17.25 17.25 17.25C17.6642 17.25 18 17.5858 18 18V19.75Z" fill="black"/>
</svg>
