<svg viewBox="0 0 24 24" fill="none" xmlns="http://www.w3.org/2000/svg">
<path fill-rule="evenodd" clip-rule="evenodd" d="M3.59829 10.6297C3.59238 10.4989 3.59009 10.3691 3.59009 10.24C3.59009 5.22799 7.92533 1.25 13.1701 1.25C18.4148 1.25 22.7501 5.22799 22.7501 10.24C22.7501 13.0485 21.3808 15.5361 19.2681 17.1732L19.6047 19.9003C19.7779 21.3381 18.2292 22.3698 16.9747 21.6134L16.9716 21.6115L12.9608 19.228C12.6779 19.2228 12.398 19.2068 12.1211 19.18C11.0271 20.3278 9.45186 21.0522 7.71148 21.1067L5.27686 22.5525C4.28464 23.1557 3.07485 22.3197 3.20513 21.2124L3.20593 21.2056L3.40119 19.6672C2.08817 18.6003 1.25 17.0138 1.25 15.23C1.25 13.3527 2.17456 11.6963 3.59829 10.6297ZM5.10471 9.7874C5.69374 9.55606 6.32602 9.40956 6.98666 9.35941C7.10415 9.35049 7.22253 9.34462 7.34173 9.34186C7.39433 9.34064 7.44709 9.34003 7.5 9.34003C7.49997 9.34003 7.50003 9.34003 7.5 9.34003C10.9057 9.34003 13.7501 11.9288 13.7501 15.23C13.7501 16.1243 13.5353 16.9724 13.1534 17.73L13.1701 17.73C13.3049 17.73 13.4373 17.7663 13.5532 17.8352L17.7486 20.3284C17.9135 20.4283 18.1416 20.301 18.1156 20.0804L17.7257 16.9219C17.6918 16.6466 17.8125 16.3751 18.0396 16.2159C19.9996 14.842 21.2501 12.6717 21.2501 10.24C21.2501 6.15199 17.6853 2.75 13.1701 2.75C8.82257 2.75 5.35624 5.90394 5.10471 9.7874ZM4.77707 11.6363C3.53683 12.4316 2.75 13.7513 2.75 15.23C2.75 16.6433 3.47181 17.9117 4.62762 18.7139C4.85727 18.8733 4.97922 19.1471 4.94403 19.4244L4.72702 21.1345L7.11704 19.7151C7.23293 19.6463 7.36522 19.61 7.5 19.61C9.04178 19.61 10.3975 18.9357 11.2415 17.9127L11.2487 17.904C11.881 17.1606 12.25 16.2304 12.25 15.23C12.25 12.8511 10.1743 10.84 7.5 10.84C7.37307 10.84 7.24751 10.8445 7.12348 10.8534C6.255 10.9154 5.46093 11.1908 4.78958 11.6283C4.78543 11.6311 4.78126 11.6337 4.77707 11.6363Z" fill="black"/>
</svg>
