<svg viewBox="0 0 24 24" fill="none" xmlns="http://www.w3.org/2000/svg">
<path fill-rule="evenodd" clip-rule="evenodd" d="M10.08 17.86C10.39 18.03 10.73 18.12 11.09 18.12C11.56 18.12 12.06 17.98 12.54 17.7L14.62 16.5C15.5 16 16.01 15.25 16.01 14.45C16.01 13.65 15.5 12.9 14.63 12.4L12.55 11.2C11.68 10.69 10.78 10.63 10.09 11.03C9.4 11.43 9 12.24 9 13.25V15.65C9 16.66 9.4 17.46 10.08 17.86ZM10.84 12.33C10.91 12.29 11 12.27 11.1 12.27C11.29 12.27 11.54 12.35 11.8 12.5L13.88 13.7C14.28 13.93 14.51 14.21 14.51 14.45C14.51 14.69 14.27 14.97 13.88 15.2L11.8 16.4C11.41 16.63 11.05 16.69 10.84 16.57C10.63 16.44 10.5 16.1 10.5 15.65V13.25C10.5 12.79 10.63 12.45 10.84 12.33Z" fill="black"/>
<path fill-rule="evenodd" clip-rule="evenodd" d="M15 22.75H9C3.57 22.75 1.25 20.43 1.25 15V9C1.25 3.57 3.57 1.25 9 1.25H15C20.43 1.25 22.75 3.57 22.75 9V15C22.75 20.43 20.43 22.75 15 22.75ZM7.77002 2.79518C4.99332 3.01559 3.54704 4.06203 3.00569 6.36H7.77002V2.79518ZM9.27002 2.75H14.73V6.36H9.27002V2.75ZM16.23 6.36V2.79518C19.0067 3.01559 20.453 4.06203 20.9943 6.36H16.23ZM21.2116 7.86H2.78836C2.76249 8.21797 2.75 8.59767 2.75 9V15C2.75 19.61 4.39 21.25 9 21.25H15C19.61 21.25 21.25 19.61 21.25 15V9C21.25 8.59767 21.2375 8.21797 21.2116 7.86Z" fill="black"/>
</svg>
