<svg viewBox="0 0 24 24" fill="none" xmlns="http://www.w3.org/2000/svg">
<path d="M10.5297 8.99967C10.8226 8.70678 11.2975 8.70678 11.5904 8.99967L13.5301 10.9393L15.4697 8.99967C15.7626 8.70678 16.2375 8.70678 16.5304 8.99967C16.8233 9.29256 16.8233 9.76744 16.5304 10.0603L14.5907 12L16.5304 13.9397C16.8233 14.2326 16.8233 14.7074 16.5304 15.0003C16.2375 15.2932 15.7626 15.2932 15.4697 15.0003L13.5301 13.0607L11.5904 15.0003C11.2975 15.2932 10.8226 15.2932 10.5297 15.0003C10.2368 14.7074 10.2368 14.2326 10.5297 13.9397L12.4694 12L10.5297 10.0603C10.2368 9.76744 10.2368 9.29256 10.5297 8.99967Z" fill="black"/>
<path fill-rule="evenodd" clip-rule="evenodd" d="M6.02447 4.88603C7.11743 3.67847 8.65955 3 10.2799 3H16.9999C20.1741 3 22.7499 5.57579 22.7499 8.75V15.25C22.7499 18.4242 20.1741 21 16.9999 21H10.2799C8.65951 21 7.11735 20.3215 6.02439 19.1139L2.49515 15.2347C0.824879 13.3986 0.824847 10.6014 2.49512 8.76532L6.02376 4.88681L6.02447 4.88603ZM10.2799 4.5C9.08063 4.5 7.94307 5.00124 7.13607 5.89318L7.13468 5.89472L3.60471 9.77468C2.45503 11.0386 2.455 12.9614 3.60468 14.2253L7.13607 18.1068C7.94307 18.9988 9.08063 19.5 10.2799 19.5H16.9999C19.3457 19.5 21.2499 17.5958 21.2499 15.25V8.75C21.2499 6.40421 19.3457 4.5 16.9999 4.5H10.2799Z" fill="black"/>
</svg>
