<svg viewBox="0 0 24 24" fill="none" xmlns="http://www.w3.org/2000/svg">
<path d="M16.1508 10.1098C16.4434 9.81657 16.4429 9.3417 16.1497 9.04911C15.8565 8.75652 15.3816 8.75701 15.089 9.05021L10.7904 13.3577L8.91131 11.4708C8.61902 11.1773 8.14415 11.1763 7.85065 11.4686C7.55715 11.7608 7.55617 12.2357 7.84846 12.5292L10.2585 14.9492C10.3991 15.0904 10.5902 15.1699 10.7895 15.17C10.9888 15.1701 11.18 15.0909 11.3208 14.9498L16.1508 10.1098Z" fill="black"/>
<path fill-rule="evenodd" clip-rule="evenodd" d="M13.7532 1.87654C12.7761 1.05293 11.2353 1.04831 10.2627 1.8798L8.68267 3.22979L8.67869 3.23324C8.61756 3.28622 8.48767 3.36435 8.3124 3.42947C8.13703 3.49464 7.98834 3.52001 7.90989 3.52001H6.17989C4.70567 3.52001 3.49989 4.72579 3.49989 6.20001V7.92001C3.49989 7.99797 3.47477 8.14418 3.41028 8.3184C3.34682 8.48983 3.26996 8.62157 3.21539 8.68785L1.86816 10.2746L1.86577 10.2774C1.05126 11.2464 1.05125 12.7736 1.86576 13.7426L3.2154 15.3322C3.26997 15.3985 3.34682 15.5302 3.41028 15.7016C3.47477 15.8758 3.49989 16.022 3.49989 16.1V17.81C3.49989 19.2842 4.70567 20.49 6.17989 20.49H7.90989C7.99435 20.49 8.14307 20.5159 8.31489 20.5801C8.48675 20.6443 8.61567 20.7222 8.67869 20.7768L8.68061 20.7784L10.2606 22.1385L10.2665 22.1435C11.2438 22.9671 12.7847 22.9717 13.7573 22.14L13.7592 22.1384L15.3392 20.7784L15.3411 20.7768C15.4022 20.7238 15.5321 20.6457 15.7074 20.5805C15.8827 20.5154 16.0314 20.49 16.1099 20.49H17.8099C19.2841 20.49 20.4899 19.2842 20.4899 17.81V16.11C20.4899 16.0255 20.5158 15.8768 20.58 15.705C20.6442 15.5331 20.722 15.4042 20.7767 15.3412L20.7783 15.3393L22.1383 13.7593L22.1434 13.7534C22.967 12.7761 22.9716 11.2352 22.1399 10.2626L20.7783 8.68073L20.7767 8.67881C20.7237 8.61768 20.6455 8.48779 20.5804 8.31252C20.5153 8.13716 20.4899 7.98846 20.4899 7.91001V6.21001C20.4899 4.73579 19.2841 3.53001 17.8099 3.53001H16.1099C16.0254 3.53001 15.8767 3.50414 15.7049 3.43994C15.533 3.37573 15.4041 3.29786 15.3411 3.24324L13.7592 1.88155L13.7532 1.87654ZM11.2373 3.02003C11.6438 2.67242 12.3608 2.66716 12.784 3.02131L14.3587 4.37677L14.3599 4.37782C14.5967 4.58269 14.8972 4.73946 15.1799 4.84507C15.4631 4.95088 15.7944 5.03001 16.1099 5.03001H17.8099C18.4557 5.03001 18.9899 5.56422 18.9899 6.21001V7.91001C18.9899 8.22155 19.0695 8.55286 19.1744 8.83499C19.279 9.11672 19.4355 9.42124 19.642 9.65992L19.6431 9.66121L20.9999 11.2374L21.0008 11.2385C21.3475 11.6452 21.3524 12.3613 20.9986 12.784L19.6431 14.3588L19.6419 14.3602C19.4371 14.597 19.2804 14.8974 19.1748 15.18C19.069 15.4632 18.9899 15.7945 18.9899 16.11V17.81C18.9899 18.4558 18.4557 18.99 17.8099 18.99H16.1099C15.7983 18.99 15.467 19.0696 15.1849 19.1745C14.9032 19.2791 14.5987 19.4356 14.3601 19.642L14.3587 19.6432L12.7825 21L12.7814 21.0009C12.3747 21.3476 11.6586 21.3526 11.2358 20.9987L9.66108 19.6432L9.65981 19.6421C9.42302 19.4373 9.12251 19.2805 8.83988 19.1749C8.5567 19.0691 8.22542 18.99 7.90989 18.99H6.17989C5.5341 18.99 4.99989 18.4558 4.99989 17.81V16.1C4.99989 15.788 4.92 15.4592 4.81699 15.1809C4.7136 14.9016 4.56141 14.6043 4.36608 14.3698L3.014 12.7774L3.01295 12.7762C2.66886 12.3654 2.66886 11.6546 3.01295 11.2438L3.014 11.2426L4.36163 9.65545L4.36605 9.65015C4.56139 9.41574 4.7136 9.11843 4.81699 8.83912C4.92 8.56084 4.99989 8.23205 4.99989 7.92001V6.20001C4.99989 5.55422 5.5341 5.02001 6.17989 5.02001H7.90989C8.22143 5.02001 8.55274 4.94038 8.83487 4.83554C9.11623 4.73099 9.42032 4.57477 9.65886 4.3687L11.2373 3.02003Z" fill="black"/>
</svg>
