<svg viewBox="0 0 24 24" fill="none" xmlns="http://www.w3.org/2000/svg">
<path d="M15.7502 16.2332C15.7502 16.7854 15.3025 17.2332 14.7502 17.2332C14.198 17.2332 13.7502 16.7854 13.7502 16.2332C13.7502 15.6809 14.198 15.2332 14.7502 15.2332C15.3025 15.2332 15.7502 15.6809 15.7502 16.2332Z" fill="black"/>
<path d="M11.7502 16.2332C12.3025 16.2332 12.7502 15.7854 12.7502 15.2332C12.7502 14.6809 12.3025 14.2332 11.7502 14.2332C11.198 14.2332 10.7502 14.6809 10.7502 15.2332C10.7502 15.7854 11.198 16.2332 11.7502 16.2332Z" fill="black"/>
<path d="M12 18.5C12 19.0523 11.5523 19.5 11 19.5C10.4477 19.5 10 19.0523 10 18.5C10 17.9477 10.4477 17.5 11 17.5C11.5523 17.5 12 17.9477 12 18.5Z" fill="black"/>
<path fill-rule="evenodd" clip-rule="evenodd" d="M3.95888 2.55357C4.64196 2.34864 5.35778 2.75582 5.53075 3.44768L6.22712 6.23315H4.75024C4.19796 6.23315 3.75024 6.68087 3.75024 7.23315V18.2332C3.75024 20.9946 5.98882 23.2332 8.75024 23.2332H14.7502C17.5117 23.2332 19.7502 20.9946 19.7502 18.2332V7.23315C19.7502 6.68087 19.3025 6.23315 18.7502 6.23315H7.77328L6.98596 3.08388C6.60544 1.56178 5.03064 0.665996 3.52786 1.11683L0.534687 2.01478C0.137942 2.1338 -0.0871956 2.55192 0.0318277 2.94866C0.150851 3.34541 0.568964 3.57054 0.965708 3.45152L3.95888 2.55357ZM6.60212 7.73315H5.25024V10.9832H7.41462L6.60212 7.73315ZM8.96078 10.9832L8.14828 7.73315H18.2502V10.9832H8.96078ZM5.25024 12.4832V18.2332C5.25024 20.1662 6.81725 21.7332 8.75024 21.7332H14.7502C16.6832 21.7332 18.2502 20.1662 18.2502 18.2332V12.4832H5.25024Z" fill="black"/>
</svg>
