<svg viewBox="0 0 24 24" fill="none" xmlns="http://www.w3.org/2000/svg">
<path d="M12 2C12.5523 2 13 1.55228 13 1C13 0.447715 12.5523 0 12 0C11.4477 0 11 0.447715 11 1C11 1.55228 11.4477 2 12 2Z" fill="black"/>
<path d="M9.41602 1.87597C9.07137 1.6462 8.60572 1.73933 8.37596 2.08398C8.14619 2.42862 8.23932 2.89428 8.58397 3.12404L11.25 4.9014V10.5694L6.35364 7.71417L6.16128 4.5158C6.13641 4.10233 5.78107 3.78731 5.3676 3.81218C4.95414 3.83705 4.63912 4.19239 4.66398 4.60585L4.85043 7.7058L2.06065 9.07019C1.68855 9.25217 1.53443 9.70134 1.71641 10.0734C1.89839 10.4455 2.34756 10.5997 2.71965 10.4177L5.59803 9.00995L10.5111 11.875L6.02993 14.4882L3.15158 13.0805C2.77948 12.8985 2.33031 13.0526 2.14833 13.4247C1.96635 13.7968 2.12047 14.246 2.49257 14.4279L5.28235 15.7923L5.09591 18.8923C5.07104 19.3057 5.38606 19.6611 5.79953 19.686C6.21299 19.7108 6.56833 19.3958 6.5932 18.9823L6.78556 15.7839L11.25 13.1805V18.3486L8.58397 20.126C8.23932 20.3557 8.14619 20.8214 8.37596 21.166C8.60572 21.5107 9.07137 21.6038 9.41602 21.374L12 19.6514L14.584 21.374C14.9286 21.6038 15.3943 21.5107 15.624 21.166C15.8538 20.8214 15.7607 20.3557 15.416 20.126L12.75 18.3486V13.1806L17.2144 15.7839L17.4068 18.9823C17.4316 19.3958 17.787 19.7108 18.2005 19.686C18.6139 19.6611 18.9289 19.3057 18.9041 18.8923L18.7176 15.7923L21.5074 14.4279C21.8795 14.246 22.0336 13.7968 21.8517 13.4247C21.6697 13.0526 21.2205 12.8985 20.8484 13.0805L17.9701 14.4882L13.4888 11.875L18.4019 9.00995L21.2803 10.4177C21.6524 10.5997 22.1016 10.4455 22.2836 10.0734C22.4656 9.70134 22.3114 9.25217 21.9393 9.07019L19.1496 7.7058L19.336 4.60585C19.3609 4.19239 19.0458 3.83705 18.6324 3.81218C18.2189 3.78731 17.8636 4.10233 17.8387 4.5158L17.6463 7.71417L12.75 10.5694V4.90138L15.416 3.12404C15.7607 2.89428 15.8538 2.42862 15.624 2.08398C15.3943 1.73933 14.9286 1.6462 14.584 1.87597L12 3.59862L9.41602 1.87597Z" fill="black"/>
<path d="M12 23.75C12.5523 23.75 13 23.3023 13 22.75C13 22.1977 12.5523 21.75 12 21.75C11.4477 21.75 11 22.1977 11 22.75C11 23.3023 11.4477 23.75 12 23.75Z" fill="black"/>
<path d="M3.46947 6.9005C3.74768 6.4234 3.58645 5.81111 3.10936 5.5329C2.63227 5.25468 2.01998 5.41591 1.74176 5.893C1.46355 6.37009 1.62478 6.98239 2.10187 7.2606C2.57896 7.53881 3.19126 7.37759 3.46947 6.9005Z" fill="black"/>
<path d="M22.2582 17.857C22.5364 17.3799 22.3752 16.7676 21.8981 16.4894C21.421 16.2112 20.8087 16.3724 20.5305 16.8495C20.2523 17.3266 20.4135 17.9389 20.8906 18.2171C21.3677 18.4953 21.98 18.3341 22.2582 17.857Z" fill="black"/>
<path d="M20.8906 5.5329C20.4135 5.81111 20.2523 6.4234 20.5305 6.9005C20.8087 7.37759 21.421 7.53881 21.8981 7.2606C22.3752 6.98239 22.5364 6.37009 22.2582 5.893C21.98 5.41591 21.3677 5.25468 20.8906 5.5329Z" fill="black"/>
<path d="M2.10185 16.4894C1.62476 16.7676 1.46354 17.3799 1.74175 17.857C2.01996 18.3341 2.63226 18.4953 3.10935 18.2171C3.58644 17.9389 3.74766 17.3266 3.46945 16.8495C3.19124 16.3724 2.57895 16.2112 2.10185 16.4894Z" fill="black"/>
</svg>
