<svg viewBox="0 0 24 24" fill="none" xmlns="http://www.w3.org/2000/svg">
<path fill-rule="evenodd" clip-rule="evenodd" d="M12.9658 12.6C13.3358 12.82 13.6458 12.89 13.9058 12.89C14.2558 12.89 14.4958 12.75 14.6058 12.66C14.8158 12.51 15.2658 12.06 15.0358 11.07L14.7758 10.14L15.6058 9.31C16.0458 8.87 16.2058 8.33999 16.0558 7.85999C15.8958 7.37999 15.4558 7.04 14.8458 6.94L13.8558 6.82001L13.2658 5.64001C12.9858 5.07001 12.5258 4.73999 12.0158 4.73999C11.5058 4.73999 11.0558 5.06 10.7658 5.63L10.2558 6.75L9.18577 6.92999C8.56577 7.02999 8.12577 7.37001 7.97577 7.85001C7.82577 8.33001 7.98577 8.85999 8.42577 9.29999L9.22577 10.04L8.98577 11.07C8.75577 12.06 9.20577 12.51 9.41577 12.66C9.62577 12.81 10.1958 13.11 11.0658 12.59L12.0158 12.03L12.9658 12.6ZM10.3158 9.07999L9.62577 8.39001L10.4958 8.26001C10.9158 8.19001 11.3358 7.87 11.5158 7.5L12.0158 6.5L12.5158 7.48001C12.7058 7.86001 13.1258 8.16999 13.5458 8.23999L14.4158 8.39001L13.7258 9.07999C13.4058 9.39999 13.2558 9.93001 13.3558 10.38L13.5358 11.18L12.7358 10.71C12.3158 10.46 11.7358 10.46 11.3058 10.71L10.5058 11.18L10.6958 10.38C10.7958 9.94001 10.6358 9.39999 10.3158 9.07999Z" fill="black"/>
<path fill-rule="evenodd" clip-rule="evenodd" d="M19.7656 9C19.7656 10.3276 19.4312 11.6181 18.7943 12.7689L22.2754 16.25C22.7254 16.7 22.8954 17.36 22.7254 17.97C22.3697 19.2464 20.8754 19.3247 19.7954 19.58C19.7054 19.6 19.6354 19.67 19.6054 19.77L19.2554 21.24C19.1054 21.89 18.6054 22.39 17.9554 22.54C17.3054 22.7 16.6354 22.47 16.2154 21.96L12.0154 17.13L7.81544 21.97C6.90609 23.0398 5.09755 22.6358 4.77544 21.24L4.42544 19.77C4.40544 19.68 4.33544 19.61 4.23544 19.58L2.58544 19.19C1.96544 19.04 1.47544 18.58 1.30544 17.97C1.13544 17.36 1.30544 16.7 1.75544 16.25L5.23678 12.7686C4.60002 11.6179 4.26562 10.3275 4.26562 9C4.26562 4.73 7.74563 1.25 12.0156 1.25C16.2856 1.25 19.7656 4.73 19.7656 9ZM17.3554 20.99L13.531 16.5963C14.2525 16.4527 14.9463 16.2073 15.5929 15.8712C16.4761 15.4143 17.2723 14.7869 17.9354 14.02L21.2254 17.31C21.3154 17.4 21.3054 17.51 21.2854 17.56C21.2754 17.61 21.2254 17.7 21.1054 17.73L19.4554 18.12C18.8054 18.27 18.3054 18.77 18.1554 19.42L17.8054 20.89C17.7654 21.02 17.6754 21.07 17.6154 21.08C17.5554 21.1 17.4454 21.1 17.3554 20.99ZM5.76562 9C5.76562 5.55 8.56563 2.75 12.0156 2.75C15.4656 2.75 18.2656 5.54999 18.2556 8.98999C18.232 17.13 5.76562 17.1605 5.76562 9ZM6.10544 14.03L2.81544 17.32C2.72544 17.41 2.73544 17.51 2.75544 17.57C2.76544 17.62 2.81544 17.72 2.93544 17.74L4.58544 18.13C5.23544 18.28 5.73544 18.78 5.88544 19.43L6.23544 20.9C6.26544 21.03 6.36544 21.07 6.42544 21.09C6.48544 21.1 6.58544 21.11 6.67544 21.01L10.5054 16.6C8.80544 16.27 7.24544 15.36 6.10544 14.03Z" fill="black"/>
</svg>
