<svg viewBox="0 0 24 24" fill="none" xmlns="http://www.w3.org/2000/svg">
<path fill-rule="evenodd" clip-rule="evenodd" d="M11.6291 3.52923L8.11903 9.99052C8.08619 10.051 8.04519 10.1066 7.99717 10.1559C7.31902 10.8519 6.1987 10.8419 5.51967 10.1628L2.92967 7.57283C2.76863 7.41179 2.64231 7.32631 2.55883 7.2847C2.52904 7.37346 2.5 7.52382 2.5 7.7525V16.3325C2.5 18.6773 4.40347 20.5832 6.75121 20.5925H16.75C18.0796 20.5925 19.1293 20.1526 19.8447 19.4372C20.5601 18.7218 21 17.6721 21 16.3425V7.7525C21 7.52382 20.971 7.37347 20.9412 7.2847C20.8577 7.32632 20.7314 7.41179 20.5703 7.57283L17.9833 10.1599C17.3047 10.8519 16.1874 10.8406 15.5097 10.1628C15.4589 10.1121 15.4157 10.0543 15.3814 9.99129L11.8598 3.52686C11.7924 3.49184 11.7038 3.48946 11.6291 3.52923ZM21.0265 7.25257C21.0265 7.25259 21.026 7.25269 21.025 7.25276L21.0265 7.25257ZM20.9044 7.20283C20.9037 7.20208 20.9034 7.20167 20.9035 7.20165L20.9044 7.20283ZM2.59655 7.20164C2.59656 7.20166 2.59627 7.20206 2.59567 7.20277L2.59655 7.20164ZM2.47483 7.25274C2.47395 7.25267 2.47349 7.25259 2.47349 7.25257L2.47483 7.25274ZM10.5097 2.51217C11.1887 1.83314 12.309 1.8231 12.9872 2.5191C13.035 2.56817 13.0758 2.62355 13.1086 2.68371L16.6288 9.14563C16.7255 9.19725 16.8455 9.1782 16.9128 9.1091L16.9196 9.10213L16.9197 9.10217L19.5097 6.51217C20.0181 6.00373 20.7702 5.5359 21.5352 5.85361C22.2994 6.17101 22.5 7.03333 22.5 7.7525V16.3425C22.5 18.0129 21.9399 19.4632 20.9053 20.4978C19.8707 21.5324 18.4204 22.0925 16.75 22.0925H6.75L6.74728 22.0925C3.57572 22.081 1 19.5072 1 16.3325V7.7525C1 7.03333 1.20061 6.17101 1.96483 5.85361C2.72981 5.5359 3.48189 6.00373 3.99033 6.51217L6.58033 9.10217C6.66238 9.18422 6.78321 9.19297 6.86952 9.14828L10.381 2.68448C10.4154 2.62116 10.4587 2.56313 10.5097 2.51217Z" fill="black"/>
</svg>
