<svg viewBox="0 0 24 24" fill="none" xmlns="http://www.w3.org/2000/svg">
<path d="M7 1.75C7 1.33579 6.66421 1 6.25 1C5.83579 1 5.5 1.33579 5.5 1.75V3.5C5.5 3.91421 5.83579 4.25 6.25 4.25C6.66421 4.25 7 3.91421 7 3.5V1.75Z" fill="black"/>
<path fill-rule="evenodd" clip-rule="evenodd" d="M2 9.97001C2 7.22464 4.22695 5.01001 6.96 5.01001H14.33C16.2484 5.01001 17.9165 6.10574 18.7412 7.70402C21.3815 7.80951 23.5 9.98231 23.5 12.66C23.5 15.1419 21.666 17.2049 19.2825 17.5645C19.14 20.1815 16.9713 22.25 14.33 22.25H6.96C4.22579 22.25 2 20.0242 2 17.29V9.97001ZM3.5 9.97001C3.5 8.05538 5.05305 6.51001 6.96 6.51001H14.33C16.2358 6.51001 17.79 8.06422 17.79 9.97001V10.75H3.5V9.97001ZM3.5 12.25H17.79V17.29C17.79 19.2046 16.2369 20.75 14.33 20.75H6.96C5.05421 20.75 3.5 19.1958 3.5 17.29V12.25ZM19.29 9.28161V16.0379C20.8373 15.6938 22 14.3084 22 12.66C22 11.0039 20.838 9.62398 19.29 9.28161Z" fill="black"/>
<path d="M10.25 1C10.6642 1 11 1.33579 11 1.75V3.5C11 3.91421 10.6642 4.25 10.25 4.25C9.83579 4.25 9.5 3.91421 9.5 3.5V1.75C9.5 1.33579 9.83579 1 10.25 1Z" fill="black"/>
<path d="M15 1.75C15 1.33579 14.6642 1 14.25 1C13.8358 1 13.5 1.33579 13.5 1.75V3.5C13.5 3.91421 13.8358 4.25 14.25 4.25C14.6642 4.25 15 3.91421 15 3.5V1.75Z" fill="black"/>
</svg>
