<svg viewBox="0 0 24 24" fill="none" xmlns="http://www.w3.org/2000/svg">
<path fill-rule="evenodd" clip-rule="evenodd" d="M14.9159 4.61648C14.9299 4.59175 14.957 4.57939 14.9842 4.58434C16.4756 4.84068 17.902 5.28825 19.2321 5.89573C19.2437 5.90067 19.2535 5.90891 19.2593 5.92045C21.6161 9.37079 22.78 13.2629 22.3449 17.7436C22.3432 17.7625 22.3334 17.7798 22.3177 17.7914C20.5327 19.0962 18.8036 19.8883 17.0983 20.4133C17.0711 20.4216 17.0415 20.4117 17.0251 20.3886C16.9277 20.2537 16.8325 20.117 16.7396 19.9785C16.7372 19.9748 16.7347 19.9711 16.7322 19.9674C16.6197 19.7993 16.5107 19.6285 16.4053 19.4551C16.3281 19.3281 16.2528 19.1996 16.1796 19.0698C16.1783 19.0673 16.1769 19.0649 16.1755 19.0624C16.1015 18.9309 16.0295 18.7979 15.9598 18.6635C15.9417 18.628 15.9582 18.5851 15.9952 18.5711C16.0879 18.5363 16.1798 18.5004 16.271 18.4633C16.3786 18.4196 16.4852 18.3743 16.5909 18.3274C16.595 18.3256 16.5992 18.3237 16.6034 18.3218C16.6113 18.3183 16.6193 18.3148 16.6272 18.3112C16.644 18.3037 16.6607 18.2961 16.6774 18.2885C16.9082 18.1836 17.1346 18.0708 17.357 17.9498C17.3571 17.9498 17.3572 17.9498 17.3572 17.9497C17.3879 17.933 17.4186 17.9162 17.4491 17.8992C17.4519 17.8976 17.4546 17.8961 17.4574 17.8946C17.4707 17.8871 17.484 17.8797 17.4972 17.8722C17.4973 17.8722 17.4973 17.8722 17.4973 17.8721C17.5397 17.8483 17.5819 17.8241 17.6239 17.7996C17.6651 17.7757 17.6675 17.7172 17.6297 17.6892C17.5895 17.6594 17.5495 17.6292 17.5097 17.5985C17.5096 17.5985 17.5096 17.5984 17.5095 17.5983C17.4402 17.545 17.3719 17.4906 17.3056 17.4361C17.2859 17.4205 17.2595 17.4172 17.2373 17.4279C16.8615 17.6007 16.4817 17.7543 16.0988 17.8886C15.9939 17.9254 15.8889 17.9607 15.7836 17.9946C15.7831 17.9948 15.7826 17.9949 15.7821 17.9951C15.3285 18.141 14.8709 18.2602 14.4105 18.3526C12.8136 18.6731 11.184 18.6717 9.57896 18.3484C9.11939 18.2558 8.66183 18.1368 8.20762 17.9914C8.20746 17.9914 8.20729 17.9913 8.20713 17.9913C8.10163 17.9575 7.99631 17.9223 7.89118 17.8857C7.50758 17.752 7.1266 17.5994 6.74907 17.4279C6.72686 17.418 6.70054 17.4213 6.68162 17.437C6.61595 17.4908 6.54834 17.5444 6.48 17.597C6.4788 17.5979 6.47759 17.5989 6.47639 17.5998C6.43719 17.6299 6.39776 17.6598 6.35834 17.6892C6.3205 17.7172 6.32379 17.7757 6.36492 17.7996C6.40609 17.8231 6.44739 17.8464 6.48882 17.8695C6.48933 17.8697 6.48985 17.87 6.49037 17.8703C6.507 17.8796 6.52365 17.8888 6.54032 17.8979C6.54144 17.8986 6.54256 17.8992 6.54369 17.8998C6.57326 17.9161 6.6029 17.9322 6.63261 17.9482C6.63261 17.9482 6.63262 17.9482 6.63263 17.9482C6.83192 18.0557 7.03432 18.1579 7.24018 18.2541C7.25612 18.2615 7.27209 18.2689 7.28808 18.2763C7.32296 18.2924 7.35794 18.3083 7.39302 18.3241C7.39629 18.3256 7.39956 18.327 7.40282 18.3285C7.50739 18.3753 7.61286 18.4206 7.71928 18.4642C7.80978 18.5013 7.90096 18.5373 7.99286 18.572C8.02987 18.586 8.04715 18.628 8.02905 18.6635C7.95617 18.8072 7.8804 18.9492 7.80186 19.0896C7.80138 19.0904 7.8009 19.0913 7.80042 19.0921C7.73228 19.2139 7.66205 19.3343 7.5898 19.4535C7.48388 19.6282 7.37361 19.8002 7.2592 19.9695C7.25678 19.9731 7.25435 19.9767 7.25192 19.9803C7.15832 20.1185 7.06197 20.2549 6.96295 20.3894C6.94568 20.4117 6.91689 20.4216 6.88974 20.4133C5.1927 19.8883 3.46358 19.0962 1.67852 17.7914C1.66372 17.7798 1.65302 17.7617 1.65138 17.7428C1.28779 13.8671 2.02895 9.94282 4.73451 5.91963C4.74109 5.90891 4.75096 5.90067 4.76248 5.89573C6.09346 5.28743 7.51986 4.83985 9.01042 4.58434C9.03757 4.58021 9.06471 4.59258 9.0787 4.61648C9.26296 4.94124 9.47355 5.35749 9.61586 5.69791C11.187 5.45887 12.7829 5.45887 14.387 5.69791C14.5293 5.36491 14.7325 4.94124 14.9159 4.61648ZM13.4652 3.99749C13.4958 3.94057 13.5265 3.88489 13.5569 3.831L13.5573 3.83029C13.9038 3.21761 14.5858 2.908 15.2501 3.02405C16.8732 3.30336 18.4255 3.79044 19.8732 4.45133C20.1138 4.56051 20.3759 4.75206 20.5686 5.05203C23.1034 8.77652 24.375 13.0269 23.9029 17.8953C23.8568 18.382 23.6029 18.8027 23.2405 19.0703L23.2345 19.0747L23.2345 19.0747C21.2953 20.4921 19.407 21.3575 17.5541 21.928L17.5483 21.9298C16.8991 22.1269 16.1762 21.8992 15.76 21.3209C15.4285 20.8618 15.1187 20.3817 14.8352 19.881C12.9598 20.2746 11.0418 20.2731 9.1594 19.8777C8.87505 20.3851 8.55998 20.8707 8.21863 21.3347L8.20654 21.3511L8.19403 21.3672C7.79454 21.8819 7.10687 22.1324 6.43974 21.9298L6.43193 21.9274L6.43194 21.9274C4.58839 21.357 2.7007 20.492 0.761778 19.0747L0.742294 19.0605L0.72325 19.0456C0.39987 18.7936 0.138974 18.3899 0.0929479 17.8901C-0.302082 13.6748 0.516111 9.38194 3.43397 5.03858C3.61365 4.76635 3.85939 4.56971 4.12315 4.45052C5.57239 3.7887 7.12556 3.30158 8.7489 3.0233L8.76348 3.0208L8.77811 3.01858C9.40617 2.92322 10.0724 3.20616 10.4257 3.81012L10.431 3.8192L10.4362 3.82834C10.4668 3.88231 10.4982 3.93861 10.5299 3.99671C11.5035 3.91453 12.4832 3.91496 13.4652 3.99749ZM6.63578 17.942C6.63599 17.9416 6.63619 17.9412 6.6364 17.9408L6.63837 17.9369C6.6375 17.9386 6.63664 17.9403 6.63578 17.942ZM8.84939 13.2778L8.84956 13.2663C8.85206 13.0917 8.78941 12.956 8.71608 12.8739C8.64557 12.7949 8.58259 12.779 8.53907 12.779C8.50071 12.779 8.44165 12.7919 8.37148 12.8706C8.29782 12.9531 8.22874 13.0965 8.22874 13.2893C8.22874 13.4736 8.29623 13.6173 8.37448 13.7045C8.45143 13.7902 8.51342 13.7996 8.53907 13.7996C8.57743 13.7996 8.63649 13.7867 8.70665 13.708C8.78031 13.6255 8.84939 13.4821 8.84939 13.2893V13.2778ZM15.784 13.2778L15.7841 13.2663C15.7866 13.0917 15.724 12.956 15.6507 12.8739C15.5801 12.7949 15.5172 12.779 15.4736 12.779C15.4353 12.779 15.3762 12.7919 15.3061 12.8706C15.2324 12.9531 15.1633 13.0965 15.1633 13.2893C15.1633 13.4736 15.2308 13.6173 15.3091 13.7045C15.386 13.7902 15.448 13.7996 15.4736 13.7996C15.5184 13.7996 15.5759 13.7849 15.6427 13.7098C15.7141 13.6296 15.784 13.4864 15.784 13.2893V13.2778ZM6.66352 13.2893C6.66352 14.4433 7.51081 15.3829 8.53907 15.3829C9.58378 15.3829 10.4146 14.4433 10.4146 13.2893C10.4311 12.1436 9.59201 11.1957 8.53907 11.1957C7.49436 11.1957 6.66352 12.1353 6.66352 13.2893ZM13.5981 13.2893C13.5981 14.4433 14.4454 15.3829 15.4736 15.3829C16.5266 15.3829 17.3492 14.4433 17.3492 13.2893C17.3656 12.1436 16.5266 11.1957 15.4736 11.1957C14.4289 11.1957 13.5981 12.1353 13.5981 13.2893Z" fill="black"/>
</svg>
