<svg viewBox="0 0 24 24" fill="none" xmlns="http://www.w3.org/2000/svg">
<path fill-rule="evenodd" clip-rule="evenodd" d="M7.72003 1.89999C6.94027 1.89999 6.16306 2.18857 5.53965 2.64472C4.92306 3.09589 4.40549 3.74952 4.19966 4.53977L1.81034 11.8073C1.49049 12.7114 1.60339 13.6239 2.11624 14.3199C2.62736 15.0136 3.46712 15.4 4.42003 15.4H8.42003C8.50988 15.4 8.57832 15.4363 8.62015 15.4837C8.65622 15.5246 8.697 15.6012 8.67811 15.74L8.18236 18.9128C7.91062 20.2024 8.74702 21.542 9.96979 21.9571C10.563 22.1754 11.1908 22.1265 11.7138 21.9468C12.2352 21.7675 12.7341 21.4303 13.0432 20.9673L13.0441 20.966L16.015 16.5458C16.1246 16.8989 16.3053 17.2166 16.5864 17.4761C17.123 17.9714 17.8626 18.1 18.6201 18.1H19.6201C20.3776 18.1 21.1173 17.9714 21.6538 17.4761C22.2051 16.9672 22.3701 16.2345 22.3701 15.45V5.65C22.3701 4.86549 22.2051 4.13278 21.6538 3.6239C21.1173 3.12862 20.3776 3 19.6201 3H18.6201C17.8626 3 17.123 3.12862 16.5864 3.6239C16.357 3.83566 16.1945 4.08619 16.0829 4.36308L13.9114 2.68193C13.5811 2.37153 13.1318 2.18764 12.7511 2.07885C12.3368 1.96048 11.8925 1.89999 11.52 1.89999H7.72003ZM15.8701 6.09533L12.9233 3.81394L12.8897 3.78032C12.8231 3.71368 12.643 3.60801 12.339 3.52114C12.0533 3.43951 11.7476 3.39999 11.52 3.39999H7.72003C7.2998 3.39999 6.82701 3.56142 6.42542 3.85527C6.02436 4.14872 5.7469 4.53486 5.64764 4.9319L5.64103 4.95834L3.22954 12.2933L3.22634 12.3022C3.05036 12.795 3.13847 13.1785 3.32382 13.4301C3.5127 13.6864 3.87295 13.9 4.42003 13.9H8.42003C9.46338 13.9 10.3289 14.7914 10.1625 15.9561L10.1611 15.9658L9.65735 19.1894L9.65217 19.2127C9.5415 19.7107 9.89517 20.3511 10.4572 20.5385L10.4704 20.5429L10.4834 20.5477C10.6863 20.6239 10.9531 20.6221 11.2262 20.5282C11.5044 20.4326 11.7051 20.2703 11.796 20.134L11.7976 20.1316L15.8701 14.0725V6.09533ZM17.3701 5.65C17.3701 5.03451 17.5051 4.81722 17.6038 4.7261C17.7173 4.62138 17.9776 4.5 18.6201 4.5H19.6201C20.2626 4.5 20.523 4.62138 20.6364 4.7261C20.7351 4.81722 20.8701 5.03451 20.8701 5.65V15.45C20.8701 16.0655 20.7351 16.2828 20.6364 16.3739C20.523 16.4786 20.2626 16.6 19.6201 16.6H18.6201C17.9776 16.6 17.7173 16.4786 17.6038 16.3739C17.5051 16.2828 17.3701 16.0655 17.3701 15.45V5.65Z" fill="black"/>
</svg>
