<svg viewBox="0 0 24 24" fill="none" xmlns="http://www.w3.org/2000/svg">
<path d="M6.25 13C6.25 12.5858 6.58579 12.25 7 12.25H13C13.4142 12.25 13.75 12.5858 13.75 13C13.75 13.4142 13.4142 13.75 13 13.75H7C6.58579 13.75 6.25 13.4142 6.25 13Z" fill="black"/>
<path d="M7 16.25C6.58579 16.25 6.25 16.5858 6.25 17C6.25 17.4142 6.58579 17.75 7 17.75H11C11.4142 17.75 11.75 17.4142 11.75 17C11.75 16.5858 11.4142 16.25 11 16.25H7Z" fill="black"/>
<path fill-rule="evenodd" clip-rule="evenodd" d="M22.5303 9.46966C22.5437 9.48307 22.5566 9.4969 22.5688 9.51111C22.6801 9.6405 22.7421 9.80183 22.7493 9.96741C22.7499 9.98017 22.7501 9.99297 22.75 10.0058V15C22.75 17.574 22.2398 19.5709 20.9053 20.9053C19.5709 22.2398 17.574 22.75 15 22.75H9C6.42603 22.75 4.42914 22.2398 3.09467 20.9053C1.7602 19.5709 1.25 17.574 1.25 15V9C1.25 6.42603 1.7602 4.42914 3.09467 3.09467C4.42914 1.7602 6.42603 1.25 9 1.25H13.9931C14.0096 1.24985 14.0261 1.25025 14.0425 1.25118C14.2063 1.26033 14.3562 1.32209 14.4753 1.41983C14.4943 1.43542 14.5127 1.45203 14.5303 1.46966L22.5303 9.46966ZM13.25 2.75H9C6.57397 2.75 5.07086 3.2398 4.15533 4.15533C3.2398 5.07086 2.75 6.57397 2.75 9V15C2.75 17.426 3.2398 18.9291 4.15533 19.8447C5.07086 20.7602 6.57397 21.25 9 21.25H15C17.426 21.25 18.9291 20.7602 19.8447 19.8447C20.7602 18.9291 21.25 17.426 21.25 15V10.75H18C16.4585 10.75 15.1921 10.5027 14.3447 9.65532C13.4972 8.8079 13.25 7.54154 13.25 5.99999V2.75ZM14.75 5.99999V3.81065L20.1893 9.24999H18C16.5415 9.24999 15.8079 8.99724 15.4053 8.59466C15.0028 8.19208 14.75 7.45844 14.75 5.99999Z" fill="black"/>
</svg>
