<svg viewBox="0 0 24 24" fill="none" xmlns="http://www.w3.org/2000/svg">
<path fill-rule="evenodd" clip-rule="evenodd" d="M12 23C5.93209 23 1 18.0679 1 12C1 5.93209 5.93209 1 12 1C18.0679 1 23 5.93209 23 12C23 18.0679 18.0679 23 12 23ZM12 2.53488C11.2063 2.53488 10.4351 2.63311 9.69792 2.81804C9.69515 2.89134 9.68161 2.96475 9.65673 3.03628C9.24045 4.28735 8.91424 5.56574 8.67812 6.85972C10.885 6.61528 13.1171 6.61545 15.3228 6.8602C15.0866 5.56308 14.76 4.28111 14.3432 3.02604C14.3203 2.95754 14.3077 2.88783 14.3046 2.81867C13.5666 2.63333 12.7946 2.53488 12 2.53488ZM15.5645 8.43623C13.2003 8.14031 10.8003 8.13987 8.43605 8.43489C8.14012 10.7988 8.13991 13.1983 8.43542 15.5638C10.7996 15.8597 13.1996 15.8601 15.5638 15.5651C15.8598 13.2012 15.86 10.8017 15.5645 8.43623ZM6.8645 8.67561C6.62073 10.8828 6.62066 13.1153 6.86429 15.3225C5.56848 15.0863 4.28846 14.7599 3.03628 14.3433C2.96475 14.3184 2.89133 14.3048 2.81803 14.3021C2.63311 13.5649 2.53488 12.7937 2.53488 12C2.53488 11.2053 2.63335 10.4332 2.81873 9.69515C2.88742 9.69172 2.95704 9.67918 3.02607 9.65674C4.28161 9.23897 5.56514 8.91193 6.8645 8.67561ZM7.08408 7.07965C5.86248 7.28175 4.65255 7.55983 3.46322 7.9139C4.37016 6.02696 5.88472 4.48494 7.75156 3.54317C7.79522 3.55191 7.8403 3.55701 7.8865 3.55814C7.54749 4.71553 7.28002 5.89206 7.08408 7.07965ZM17.1414 8.67853C18.4352 8.91462 19.7134 9.24069 20.9638 9.65674C21.0364 9.684 21.1091 9.69512 21.1818 9.69727C21.3668 10.4347 21.4651 11.2061 21.4651 12C21.4651 12.7938 21.3669 13.5652 21.1819 14.3025C21.112 14.3061 21.0421 14.3195 20.974 14.3433C19.7194 14.7607 18.4368 15.0876 17.1384 15.3239C17.3841 13.1181 17.385 10.8858 17.1414 8.67853ZM20.5382 7.91694C19.3507 7.5624 18.1421 7.28387 16.9215 7.08133C16.72 5.86125 16.4427 4.65281 16.0896 3.46488C18.0303 4.39867 19.6059 5.97535 20.5382 7.91694ZM7.8865 20.4419C7.54746 19.2844 7.27997 18.1077 7.08403 16.92C5.89509 16.7238 4.71747 16.4552 3.55814 16.1135C3.557 16.1592 3.55176 16.2041 3.54278 16.2477C4.45736 18.061 5.93828 19.5421 7.75156 20.4568C7.79522 20.4481 7.8403 20.443 7.8865 20.4419ZM12 17.3209C10.889 17.3209 9.77948 17.2605 8.67697 17.139C8.91319 18.4364 9.23977 19.7186 9.65673 20.974C9.68044 21.0421 9.69385 21.112 9.69746 21.1818C10.4348 21.3668 11.2061 21.4651 12 21.4651C12.7931 21.4651 13.5637 21.367 14.3004 21.1824C14.3034 21.1095 14.3172 21.0359 14.3432 20.9637C14.7596 19.7123 15.0858 18.4335 15.322 17.1392C14.2194 17.2605 13.1105 17.3209 12 17.3209ZM16.0794 20.54C16.4348 19.3515 16.714 18.1419 16.9171 16.9202C18.1078 16.7239 19.2882 16.4553 20.4521 16.1135C20.4531 16.1545 20.4572 16.1946 20.4643 16.2337C19.5221 18.1095 17.9743 19.6311 16.0794 20.54Z" fill="black"/>
</svg>
