<svg viewBox="0 0 24 24" fill="none" xmlns="http://www.w3.org/2000/svg">
<path fill-rule="evenodd" clip-rule="evenodd" d="M10.0519 2.75C9.29865 2.75 8.6299 3.232 8.3917 3.9466L8.04057 5H15.9594L15.6083 3.9466C15.3701 3.232 14.7014 2.75 13.9481 2.75H10.0519ZM17.5406 5L17.0313 3.47226C16.589 2.14515 15.347 1.25 13.9481 1.25H10.0519C8.653 1.25 7.41105 2.14515 6.96868 3.47226L6.45943 5H5.75C3.26472 5 1.25 7.01472 1.25 9.5V18.25C1.25 20.7353 3.26472 22.75 5.75 22.75H18.25C20.7353 22.75 22.75 20.7353 22.75 18.25V9.5C22.75 7.01472 20.7353 5 18.25 5H17.5406ZM5.75 6.5C4.09315 6.5 2.75 7.84315 2.75 9.5V18.25C2.75 19.9069 4.09315 21.25 5.75 21.25H18.25C19.9069 21.25 21.25 19.9069 21.25 18.25V9.5C21.25 7.84315 19.9069 6.5 18.25 6.5H5.75ZM12 10C12.4142 10 12.75 10.3358 12.75 10.75V13.125H15.125C15.5392 13.125 15.875 13.4608 15.875 13.875C15.875 14.2892 15.5392 14.625 15.125 14.625H12.75V17C12.75 17.4142 12.4142 17.75 12 17.75C11.5858 17.75 11.25 17.4142 11.25 17V14.625H8.875C8.46079 14.625 8.125 14.2892 8.125 13.875C8.125 13.4608 8.46079 13.125 8.875 13.125H11.25V10.75C11.25 10.3358 11.5858 10 12 10Z" fill="black"/>
</svg>
