<svg viewBox="0 0 24 24" fill="none" xmlns="http://www.w3.org/2000/svg">
<path fill-rule="evenodd" clip-rule="evenodd" d="M20.7002 2.98547C19.2225 1.64566 17.8046 1.11098 16.4318 1.28013C15.0944 1.44493 13.9789 2.25984 13.0466 3.2088L2.78129 13.6788L2.77979 13.6804C2.51109 13.956 2.27852 14.3272 2.10565 14.6844C1.93256 15.0421 1.78782 15.4508 1.73618 15.824L1.73431 15.8386L1.27169 19.7422L1.27141 19.7446C1.16593 20.6594 1.45277 21.501 2.07475 22.0694C2.69327 22.6346 3.56067 22.8549 4.47647 22.7031L8.50251 22.0405L8.50734 22.0396C8.88525 21.9749 9.29693 21.8192 9.65883 21.6328C10.0162 21.4487 10.3869 21.2027 10.6585 20.9175L20.9195 10.4518C21.847 9.50761 22.6442 8.37927 22.7403 7.05474C22.8395 5.68715 22.1809 4.33482 20.7016 2.98674L20.7002 2.98547ZM12.7792 5.62411L14.1171 4.25947C14.9603 3.40133 15.7772 2.87214 16.6153 2.76887C17.418 2.66997 18.4192 2.94239 19.6919 4.09599C20.9753 5.26577 21.2981 6.20246 21.2442 6.94622C21.1871 7.73293 20.6962 8.53873 19.8484 9.40166L18.5278 10.7486C16.8747 10.5647 15.5673 10.0465 14.6154 9.20281C13.7043 8.39524 13.0581 7.23581 12.7792 5.62411ZM11.5321 6.89606L3.85386 14.7274C3.73506 14.8495 3.58596 15.069 3.45584 15.3379C3.32731 15.6034 3.24737 15.8544 3.22291 16.0234L2.76154 19.9164L2.76141 19.9176C2.70472 20.4118 2.86168 20.7565 3.08663 20.9621C3.31496 21.1708 3.6975 21.312 4.23169 21.2232L8.25407 20.5612L8.25609 20.5608C8.44073 20.5289 8.7033 20.4377 8.97185 20.2993C9.24374 20.1593 9.45827 20.0035 9.5739 19.8813L9.58306 19.8716L17.2418 12.0603C15.8404 11.7626 14.6094 11.2018 13.6205 10.3254C12.6385 9.45495 11.9361 8.30929 11.5321 6.89606Z" fill="black"/>
</svg>
