<svg viewBox="0 0 24 24" fill="none" xmlns="http://www.w3.org/2000/svg">
<path fill-rule="evenodd" clip-rule="evenodd" d="M14.406 1.91597L14.4036 1.91434C13.7145 1.45581 12.8473 1.2502 12.0213 1.24876C11.1949 1.24731 10.3279 1.45014 9.63904 1.90263L9.63801 1.9033L3.62002 5.83199C1.23668 7.38795 1.23669 10.8721 3.62003 12.428L4.87975 13.2504L4.87012 17.7684L4.87012 17.77C4.87012 18.5908 5.18277 19.3984 5.65141 20.0494C6.11998 20.7004 6.78667 21.2528 7.56362 21.5117L10.7536 22.5717L10.7568 22.5728C11.1314 22.6954 11.5813 22.745 11.9964 22.745C12.4121 22.745 12.8626 22.6953 13.2396 22.5741L16.4373 21.5115C17.2142 21.2525 17.8803 20.7004 18.3488 20.0494C18.8175 19.3984 19.1301 18.5908 19.1301 17.77V13.2546L20.3915 12.427C20.481 12.3683 20.5671 12.3068 20.6499 12.2428V15C20.6499 15.4142 20.9857 15.75 21.3999 15.75C21.8141 15.75 22.1499 15.4142 22.1499 15V9.53511C22.2893 8.15054 21.7031 6.7037 20.3914 5.84292L14.406 1.91597ZM20.6499 9.00001C20.6499 8.96278 20.6526 8.92618 20.6579 8.89041C20.5889 8.19697 20.2258 7.52842 19.5686 7.09709L13.574 3.16406C13.1835 2.90373 12.6218 2.74981 12.0187 2.74875C11.4156 2.7477 10.853 2.89967 10.462 3.15671L10.46 3.15803L4.44001 7.08802C2.96336 8.05206 2.96335 10.2079 4.44 11.172L10.462 15.1033C10.853 15.3604 11.4159 15.5125 12.02 15.5125C12.6241 15.5125 13.187 15.3604 13.578 15.1033L19.5685 11.173C20.2037 10.7561 20.5641 10.1177 20.6499 9.44937V9.00001ZM17.6301 14.2388L14.402 16.3567C13.7131 16.8095 12.8458 17.0125 12.02 17.0125C11.1945 17.0125 10.3278 16.8098 9.63902 16.3574L9.63801 16.3567L6.37767 14.2283L6.37012 17.77C6.37031 18.219 6.54764 18.7269 6.86882 19.1731C7.19019 19.6196 7.61406 19.9473 8.03702 20.0884L11.2234 21.1472L11.2247 21.1476C11.4002 21.2048 11.6797 21.245 11.9964 21.245C12.3114 21.245 12.5946 21.2052 12.7776 21.1469L15.9629 20.0885C16.3859 19.9474 16.81 19.6196 17.1314 19.1731C17.4528 18.7267 17.6301 18.2192 17.6301 17.77V14.2388Z" fill="black"/>
<path d="M22.1499 17C22.1499 16.5858 21.8141 16.25 21.3999 16.25C20.9857 16.25 20.6499 16.5858 20.6499 17V18C20.6499 18.4142 20.9857 18.75 21.3999 18.75C21.8141 18.75 22.1499 18.4142 22.1499 18V17Z" fill="black"/>
</svg>
