<svg viewBox="0 0 24 24" fill="none" xmlns="http://www.w3.org/2000/svg">
<path d="M11.075 4.25738C10.2846 4.89874 9.79254 5.9363 9.64718 7.62434C9.61164 8.03702 9.24829 8.34276 8.8356 8.30722C8.42291 8.27169 8.11717 7.90833 8.15271 7.49564C8.31735 5.58368 8.9053 4.08624 10.1299 3.0926C11.3338 2.11574 13.0163 1.73999 15.1099 1.73999H15.2399C17.5491 1.73999 19.3609 2.19778 20.5765 3.41341C21.7922 4.62904 22.2499 6.44081 22.2499 8.74999V15.27C22.2499 17.5792 21.7922 19.3909 20.5765 20.6066C19.3609 21.8222 17.5491 22.28 15.2399 22.28H15.1099C13.0315 22.28 11.3591 21.9093 10.1577 20.9481C8.93457 19.9697 8.33885 18.4941 8.16318 16.6096C8.12474 16.1972 8.42791 15.8317 8.84033 15.7932C9.25276 15.7548 9.61826 16.058 9.65671 16.4704C9.81104 18.1259 10.3053 19.1453 11.0947 19.7768C11.9058 20.4257 13.1684 20.78 15.1099 20.78H15.2399C17.4008 20.78 18.719 20.3428 19.5159 19.5459C20.3127 18.749 20.7499 17.4308 20.7499 15.27V8.74999C20.7499 6.58917 20.3127 5.27094 19.5159 4.47407C18.719 3.6772 17.4008 3.23999 15.2399 3.23999H15.1099C13.1536 3.23999 11.8861 3.59924 11.075 4.25738Z" fill="black"/>
<path d="M1.25 12C1.25 11.5858 1.58579 11.25 2 11.25H14.1893L12.1197 9.18035C11.8268 8.88746 11.8268 8.41259 12.1197 8.11969C12.4126 7.8268 12.8875 7.8268 13.1804 8.11969L16.5304 11.4697C16.8232 11.7626 16.8232 12.2375 16.5304 12.5304L13.1804 15.8804C12.8875 16.1732 12.4126 16.1732 12.1197 15.8804C11.8268 15.5875 11.8268 15.1126 12.1197 14.8197L14.1894 12.75H2C1.58579 12.75 1.25 12.4142 1.25 12Z" fill="black"/>
</svg>
