<svg viewBox="0 0 24 24" fill="none" xmlns="http://www.w3.org/2000/svg">
<path d="M12.4249 4.25738C13.2154 4.89874 13.7074 5.9363 13.8528 7.62434C13.8883 8.03702 14.2517 8.34276 14.6643 8.30722C15.077 8.27169 15.3828 7.90833 15.3472 7.49564C15.1826 5.58368 14.5947 4.08624 13.3701 3.0926C12.1662 2.11574 10.4837 1.73999 8.39 1.73999H8.26C5.95082 1.73999 4.13905 2.19778 2.92342 3.41341C1.70779 4.62904 1.25 6.44081 1.25 8.74999V15.27C1.25 17.5792 1.70779 19.3909 2.92342 20.6066C4.13905 21.8222 5.95082 22.28 8.26 22.28H8.39C10.4685 22.28 12.1408 21.9093 13.3423 20.9481C14.5654 19.9697 15.1611 18.4941 15.3368 16.6096C15.3752 16.1972 15.072 15.8317 14.6596 15.7932C14.2472 15.7548 13.8817 16.058 13.8432 16.4704C13.6889 18.1259 13.1946 19.1453 12.4052 19.7768C11.5942 20.4257 10.3315 20.78 8.39 20.78H8.26C6.09918 20.78 4.78095 20.3428 3.98408 19.5459C3.18721 18.749 2.75 17.4308 2.75 15.27V8.74999C2.75 6.58917 3.18721 5.27094 3.98408 4.47407C4.78095 3.6772 6.09918 3.23999 8.26 3.23999H8.39C10.3463 3.23999 11.6138 3.59924 12.4249 4.25738Z" fill="black"/>
<path d="M22.2499 12C22.2499 11.5858 21.9142 11.25 21.4999 11.25H9.31061L11.3803 9.18035C11.6731 8.88746 11.6731 8.41259 11.3803 8.11969C11.0874 7.8268 10.6125 7.8268 10.3196 8.11969L6.96959 11.4697C6.6767 11.7626 6.6767 12.2375 6.96959 12.5304L10.3196 15.8804C10.6125 16.1732 11.0874 16.1732 11.3803 15.8804C11.6731 15.5875 11.6731 15.1126 11.3803 14.8197L9.31056 12.75H21.4999C21.9142 12.75 22.2499 12.4142 22.2499 12Z" fill="black"/>
</svg>
