<svg viewBox="0 0 24 24" fill="none" xmlns="http://www.w3.org/2000/svg">
<path fill-rule="evenodd" clip-rule="evenodd" d="M11.4826 17.0413L12.0146 17.5733C13.2465 18.8052 15.2438 18.8052 16.4757 17.5733L16.5849 17.4641C17.5086 16.5404 17.704 15.1644 17.1713 14.0493L21.3211 9.8995C23.2737 7.94688 23.2737 4.78105 21.3211 2.82843C19.3685 0.87581 16.2026 0.875808 14.25 2.82843L10.1003 6.97818C8.98512 6.44548 7.60906 6.64095 6.68542 7.56459L6.57618 7.67382C5.34428 8.90573 5.34428 10.903 6.57618 12.1349L6.88636 12.4451L1.9519 17.3796C0.682699 18.6488 0.682699 20.7066 1.9519 21.9758C3.22111 23.245 5.27889 23.245 6.5481 21.9758L11.4826 17.0413ZM10.4219 15.9807L5.48744 20.9151C4.80402 21.5985 3.69598 21.5985 3.01256 20.9151C2.32915 20.2317 2.32915 19.1237 3.01256 18.4402L7.94702 13.5058L10.4219 15.9807ZM15.415 16.5127C14.7689 17.1588 13.7213 17.1588 13.0752 16.5127L7.63684 11.0743C6.99073 10.4282 6.99073 9.3806 7.63684 8.73449L7.74608 8.62525C8.33187 8.03946 9.28162 8.03946 9.8674 8.62524C10.0627 8.82051 10.3792 8.82051 10.5745 8.62524L15.3107 3.88909C16.6775 2.52225 18.8936 2.52226 20.2604 3.88909C21.6272 5.25592 21.6272 7.472 20.2604 8.83884L15.5243 13.575C15.329 13.7703 15.329 14.0868 15.5243 14.2821C16.11 14.8679 16.11 15.8176 15.5243 16.4034L15.415 16.5127Z" fill="black"/>
</svg>
