<svg viewBox="0 0 24 24" fill="none" xmlns="http://www.w3.org/2000/svg">
<path d="M2.96501 12.0006C2.96535 11.5864 2.62985 11.2503 2.21564 11.25C1.80142 11.2497 1.46535 11.5852 1.46501 11.9994C1.4643 12.8352 1.62056 13.7001 1.95933 14.4498C1.96042 14.4521 1.96151 14.4544 1.96261 14.4568L0.58381 15.376C0.239164 15.6057 0.146034 16.0714 0.375798 16.416C0.605562 16.7607 1.07121 16.8538 1.41586 16.6241L2.7502 15.7345C3.53443 16.8343 4.42018 17.7867 5.38473 18.5686L4.0336 20.3287C3.77484 20.6521 3.82728 21.1241 4.15073 21.3829C4.47418 21.6416 4.94614 21.5892 5.2049 21.2657L6.58572 19.4685C6.59294 19.4595 6.59992 19.4503 6.60666 19.4411C8.0394 20.3334 9.60787 20.8744 11.25 21.0011V23C11.25 23.4142 11.5858 23.75 12 23.75C12.4143 23.75 12.75 23.4142 12.75 23V21.0011C14.3922 20.8744 15.9607 20.3334 17.3934 19.4411C17.4001 19.4503 17.4071 19.4595 17.4144 19.4685L18.9458 21.3829C19.2046 21.7063 19.6766 21.7588 20 21.5C20.3234 21.2412 20.3759 20.7693 20.1171 20.4458L18.6153 18.5685C19.5798 17.7867 20.4655 16.8343 21.2497 15.7346L22.584 16.6241C22.9286 16.8538 23.3943 16.7607 23.624 16.416C23.8538 16.0714 23.7607 15.6057 23.416 15.376L22.0351 14.4554L22.0407 14.4497C22.3794 13.7001 22.5357 12.8352 22.535 11.9994C22.5346 11.5852 22.1986 11.2497 21.7844 11.25C21.3702 11.2503 21.0346 11.5864 21.035 12.0006C21.0357 12.8429 20.833 13.64 20.4778 14.1965L20.4772 14.1975C18.2881 17.6388 15.2119 19.53 12 19.53C8.78815 19.53 5.7119 17.6388 3.52282 14.1975L3.52219 14.1965C3.16696 13.64 2.9643 12.8429 2.96501 12.0006Z" fill="black"/>
</svg>
