<svg viewBox="0 0 24 24" fill="none" xmlns="http://www.w3.org/2000/svg">
<path fill-rule="evenodd" clip-rule="evenodd" d="M11.9999 7.67001C9.60571 7.67001 7.66992 9.6058 7.66992 12C7.66992 14.3942 9.60571 16.33 11.9999 16.33C14.3941 16.33 16.3299 14.3942 16.3299 12C16.3299 9.6058 14.3941 7.67001 11.9999 7.67001ZM9.16992 12C9.16992 10.4342 10.4341 9.17001 11.9999 9.17001C13.5657 9.17001 14.8299 10.4342 14.8299 12C14.8299 13.5658 13.5657 14.83 11.9999 14.83C10.4341 14.83 9.16992 13.5658 9.16992 12Z" fill="black"/>
<path fill-rule="evenodd" clip-rule="evenodd" d="M11.9998 2.97C8.15186 2.97 4.64826 5.2386 2.25734 8.99697C1.71214 9.85138 1.46484 10.946 1.46484 11.995C1.46484 13.0438 1.71205 14.1382 2.25703 14.9925C4.64795 18.7512 8.1517 21.02 11.9998 21.02C15.848 21.02 19.3517 18.7512 21.7427 14.9925C22.2876 14.1382 22.5348 13.0438 22.5348 11.995C22.5348 10.9462 22.2876 9.8518 21.7427 8.99746C19.3517 5.2388 15.848 2.97 11.9998 2.97ZM3.52266 9.80254C5.71174 6.3612 8.78799 4.47 11.9998 4.47C15.2117 4.47 18.288 6.3612 20.477 9.80254L20.4777 9.80353C20.8322 10.359 21.0348 11.1542 21.0348 11.995C21.0348 12.8358 20.8322 13.631 20.4777 14.1865L20.477 14.1875C18.288 17.6288 15.2117 19.52 11.9998 19.52C8.78799 19.52 5.71174 17.6288 3.52266 14.1875L3.52204 14.1865C3.16745 13.631 2.96484 12.8358 2.96484 11.995C2.96484 11.1542 3.16745 10.359 3.52204 9.80353L3.52266 9.80254Z" fill="black"/>
</svg>
