<svg viewBox="0 0 24 24" fill="none" xmlns="http://www.w3.org/2000/svg">
<path d="M19.2497 8.09911C19.6342 8.25332 19.8208 8.68998 19.6666 9.07442C19.5124 9.45886 19.0757 9.64549 18.6913 9.49128C16.9873 8.80772 15.4224 7.24291 14.7389 5.53889C14.5847 5.15445 14.7713 4.71779 15.1558 4.56358C15.5402 4.40936 15.9769 4.596 16.1311 4.98043C16.6622 6.3044 17.9258 7.56801 19.2497 8.09911Z" fill="black"/>
<path fill-rule="evenodd" clip-rule="evenodd" d="M21.9992 1.94057C23.6636 5.40818 23.0006 11.2034 19.0172 15.1867C18.3546 18.1303 16.5669 19.3478 15.1419 17.9228C12.7587 19.0249 10.2988 19.2223 8.38011 18.4108C10.0324 23.031 5.00057 25.2117 4.26853 19.6712C-1.54168 18.0684 1.20925 13.6068 5.52895 15.5596C5.29864 15.0151 5.14959 14.4269 5.07942 13.8093C4.90236 12.2508 5.2276 10.5046 6.01691 8.7978C5.44736 8.22824 3.78286 4.76062 8.75303 4.92254C12.7364 0.939187 18.5316 0.276091 21.9992 1.94057ZM9.81369 5.9832C13.1848 2.6121 17.9387 1.98867 20.8567 3.08302C21.9511 6.00103 21.3276 10.7549 17.9565 14.126L17.6493 14.4333L17.5538 14.8573C17.4239 15.4346 17.1091 16.7945 16.409 17.0183C16.05 16.8852 15.7254 16.385 15.4624 16.122C13.4473 17.0539 11.1567 17.9565 8.96442 17.0293C8.41614 16.7974 7.78262 16.9117 7.34993 17.3205C6.91723 17.7293 6.76726 18.3554 6.96772 18.9159C7.18038 19.5106 7.53756 21.1207 6.65845 21.4516C6.62526 21.4641 6.67105 21.4541 6.65845 21.4516C6.02701 21.3227 5.81449 19.9203 5.75561 19.4747C5.6767 18.8775 5.24815 18.3854 4.66742 18.2252C4.13208 18.0775 2.57162 17.6703 2.45788 16.9248C2.45738 16.9215 2.45711 16.9206 2.45711 16.9206L2.45866 16.9178C2.80647 16.1744 4.45085 16.7184 4.91105 16.9264C5.47367 17.1808 6.13466 17.0644 6.57657 16.6332C7.01847 16.202 7.15099 15.544 6.91047 14.9753C5.98327 12.7831 6.88586 10.4925 7.81774 8.4773C7.38887 8.04843 6.68482 7.53499 6.79244 6.79754C6.85804 6.16711 8.97684 6.43062 9.35398 6.44291L9.81369 5.9832Z" fill="black"/>
</svg>
