<svg viewBox="0 0 24 24" fill="none" xmlns="http://www.w3.org/2000/svg">
<path fill-rule="evenodd" clip-rule="evenodd" d="M10.4117 12.2433C10.1639 12.4106 9.87161 12.5 9.57254 12.5H9.5C9.04093 12.5 8.60714 12.2898 8.32268 11.9295C7.88363 11.3733 7.38232 10.5829 6.98632 9.86167C6.93761 9.77296 6.88966 9.68379 6.84289 9.59475C6.01952 10.3125 5.38444 11.1902 4.9846 12.1602C4.40105 13.5757 4.3434 15.1248 4.81779 16.5709C5.29297 18.0195 6.28279 19.3037 7.6577 20.2044C9.03415 21.1062 10.7088 21.5646 12.4161 21.4926C14.5837 21.4012 16.3342 20.6035 17.5405 19.3475C18.7453 18.0929 19.5 16.2844 19.5 14C19.5 10.16 17.3313 6.50543 13.5836 4.07003C13.5839 4.07842 13.5842 4.08683 13.5845 4.09524C13.6156 4.99214 13.6258 5.95391 13.5152 6.90021C13.2868 8.85494 12.5275 10.8152 10.4117 12.2433ZM12.0463 3.18587C12.0223 2.62194 12 2.05755 12 1.5C12.5227 1.73759 13.0273 1.99547 13.5126 2.27214C18.1336 4.9067 21 9.24545 21 14C21 19.2539 17.5 22.7796 12.4793 22.9913C10.4668 23.0762 8.48113 22.5371 6.83571 21.4592C5.1903 20.3812 3.97883 18.8258 3.39252 17.0385C2.8062 15.2511 2.87843 13.3335 3.59781 11.5885C4.14897 10.2515 5.05596 9.07405 6.22469 8.16079C6.23739 8.15086 6.25011 8.14097 6.26287 8.13112C6.52421 7.92917 6.79845 7.74036 7.08457 7.56584C7.11031 7.55014 7.13613 7.53456 7.16206 7.5191C7.22916 7.47907 7.2969 7.43983 7.36526 7.40138C7.47407 7.33411 7.61915 7.40138 7.61915 7.5191C7.63085 7.65293 7.69012 7.84663 7.78336 8.07765C7.82052 8.1697 7.86307 8.26768 7.91015 8.37016C7.96156 8.48206 8.01839 8.59933 8.07949 8.7201C8.07941 8.71994 8.07957 8.72025 8.07949 8.7201C8.47489 9.50149 9.04978 10.4297 9.5 11H9.57254C9.96006 10.7384 10.2901 10.4557 10.5707 10.1547C10.6022 10.1209 10.6331 10.0869 10.6633 10.0527C12.2635 8.24275 12.1586 5.80174 12.0529 3.33912C12.0507 3.28805 12.0485 3.23696 12.0463 3.18587Z" fill="black"/>
</svg>
