<svg viewBox="0 0 24 24" fill="none" xmlns="http://www.w3.org/2000/svg">
<path d="M9.75 2C9.33579 2 9 2.33579 9 2.75C9 3.16421 9.33579 3.5 9.75 3.5H11V5.01981C8.57762 5.14983 6.7051 5.91073 5.27407 7.0353C3.70877 8.26539 2.72155 9.89087 2.09829 11.4755C1.47526 13.0595 1.20402 14.6319 1.08688 15.8002C1.0214 16.4532 0.982293 17.1205 1.00553 17.7773C1.02467 18.1911 1.37593 18.5183 1.7897 18.4992C2.2033 18.4801 2.52268 18.1172 2.50382 17.7037C2.4852 17.1232 2.52154 16.5269 2.5794 15.9498C2.68787 14.8681 2.93723 13.4405 3.49419 12.0245C4.05091 10.6091 4.90306 9.23461 6.2009 8.2147C7.48865 7.20273 9.26511 6.5 11.7501 6.5C14.235 6.5 16.0115 7.20273 17.2992 8.2147C18.597 9.23461 19.4492 10.6091 20.0059 12.0245C20.5628 13.4405 20.8122 14.8681 20.9206 15.9498C20.9785 16.5269 21.0148 17.123 20.9962 17.7034C20.9774 18.1169 21.2967 18.4801 21.7103 18.4992C22.1241 18.5183 22.4759 18.1759 22.495 17.7621C22.5157 17.1157 22.4776 16.443 22.4131 15.8002C22.296 14.6319 22.0248 13.0595 21.4018 11.4755C20.7785 9.89088 19.7913 8.26539 18.226 7.0353C16.795 5.91071 14.9224 5.1498 12.5 5.01981V3.5H13.75C14.1642 3.5 14.5 3.16421 14.5 2.75C14.5 2.33579 14.1642 2 13.75 2H9.75Z" fill="black"/>
<path d="M0.75 20C0.335786 20 0 20.3358 0 20.75C0 21.1642 0.335786 21.5 0.75 21.5H22.75C23.1642 21.5 23.5 21.1642 23.5 20.75C23.5 20.3358 23.1642 20 22.75 20H0.75Z" fill="black"/>
<path d="M7.33565 11.2185C7.59441 10.8951 7.54197 10.4231 7.21852 10.1643C6.89507 9.90559 6.42311 9.95803 6.16435 10.2815C5.04432 11.6815 4.51761 13.584 4.26109 15.059C4.13062 15.8092 4.06554 16.4766 4.03297 16.9571C4.01665 17.1977 4.00842 17.3926 4.00426 17.5289C4.00207 17.6006 4.0004 17.6753 4.00001 17.747C4.00001 18.1613 4.33579 18.5 4.75 18.5C5.16412 18.5 5.49987 18.1599 5.50002 17.7459C5.50065 17.6899 5.50185 17.6305 5.50356 17.5746C5.51453 17.2153 5.55973 16.3463 5.73891 15.316C5.92657 14.237 6.25073 13.0406 6.79238 12.0452C6.95351 11.7491 7.13389 11.4707 7.33565 11.2185Z" fill="black"/>
<path d="M7.75 9.25C7.75 8.83579 8.08579 8.5 8.5 8.5H8.50898C8.9232 8.5 9.25898 8.83579 9.25898 9.25C9.25898 9.66421 8.9232 10 8.50898 10H8.5C8.08579 10 7.75 9.66421 7.75 9.25Z" fill="black"/>
</svg>
