<svg viewBox="0 0 24 24" fill="none" xmlns="http://www.w3.org/2000/svg">
<path fill-rule="evenodd" clip-rule="evenodd" d="M5.12633 4.25C5.15347 3.85676 5.31822 3.47115 5.6197 3.16967L7.0397 1.74967C7.70259 1.08678 8.78747 1.08678 9.45036 1.74967L11.9507 4.25H12.0395L14.5398 1.74967C15.2027 1.08678 16.2876 1.08678 16.9504 1.74967L18.3704 3.16967C18.6719 3.47115 18.8367 3.85676 18.8638 4.25H19.5C20.3942 4.25 21.1239 4.52991 21.6164 5.09445C22.0927 5.64039 22.25 6.34239 22.25 7V8C22.25 8.65761 22.0927 9.35961 21.6164 9.90555C21.3727 10.1849 21.071 10.3945 20.72 10.5351V18C20.72 19.5415 20.4727 20.8079 19.6253 21.6553C18.7779 22.5028 17.5115 22.75 15.97 22.75H7.96997C6.42842 22.75 5.16206 22.5028 4.31464 21.6553C3.46722 20.8079 3.21997 19.5415 3.21997 18V10.521C2.88042 10.3804 2.58962 10.1739 2.35528 9.89881C1.88406 9.34556 1.75 8.63929 1.75 8V7C1.75 6.36071 1.88406 5.65444 2.35528 5.10119C2.8461 4.52493 3.58462 4.25 4.5 4.25H5.12633ZM8.10036 2.81033C8.17747 2.73323 8.31259 2.73323 8.3897 2.81033L9.82937 4.25H6.66297C6.66825 4.24322 6.67404 4.23665 6.68036 4.23033L8.10036 2.81033ZM17.3272 4.25H14.1608L15.6004 2.81033C15.6776 2.73323 15.8127 2.73323 15.8898 2.81033L17.3098 4.23033C17.3161 4.23665 17.3219 4.24322 17.3272 4.25ZM11.6419 5.75H12.3482L12.3501 5.75H17.8701L17.872 5.75H19.5C20.0758 5.75 20.3461 5.92009 20.4861 6.08055C20.6423 6.25961 20.75 6.55761 20.75 7V8C20.75 8.44239 20.6423 8.74039 20.4861 8.91945C20.3461 9.07991 20.0758 9.25 19.5 9.25H4.5C3.88538 9.25 3.6239 9.07493 3.49722 8.92619C3.35094 8.75444 3.25 8.46071 3.25 8V7C3.25 6.53929 3.35094 6.24556 3.49722 6.07381C3.6239 5.92507 3.88538 5.75 4.5 5.75H6.11814L6.12003 5.75H11.64L11.6419 5.75ZM8.18994 10.75H4.71997V18C4.71997 19.4585 4.97272 20.1921 5.3753 20.5947C5.77788 20.9972 6.51152 21.25 7.96997 21.25H15.97C17.4284 21.25 18.1621 20.9972 18.5646 20.5947C18.9672 20.1921 19.22 19.4585 19.22 18V10.75H15.7199V15.13C15.7199 16.533 14.159 17.3541 13.0039 16.584L13.0007 16.5819L12.1129 15.9833C12.039 15.9347 11.9342 15.928 11.8393 15.9884L10.8951 16.6112C9.73588 17.3552 8.18994 16.5449 8.18994 15.14V10.75ZM14.2199 10.75H9.68994V15.14C9.68994 15.3341 9.90186 15.4635 10.0821 15.3506L11.0225 14.7303C11.6066 14.3523 12.3604 14.3456 12.946 14.736L12.9492 14.7381L13.8371 15.3367C14.0018 15.4453 14.2199 15.3266 14.2199 15.13V10.75Z" fill="black"/>
</svg>
