<svg viewBox="0 0 24 24" fill="none" xmlns="http://www.w3.org/2000/svg">
<path fill-rule="evenodd" clip-rule="evenodd" d="M9 1.25C7.25143 1.25 5.72416 2.19381 4.89961 3.60001C2.99724 3.60001 1.29004 4.78932 1.29004 6.85001C1.29004 9.17622 2.79218 11.4331 4.96954 12.2687C6.12132 14.7451 8.54244 16.5089 11.3999 16.7272V18.25H9.1499C7.46155 18.25 6.3999 19.6704 6.3999 21.25C5.91854 21.25 5.3999 21.4109 5.3999 22C5.3999 22.4142 5.73569 22.75 6.1499 22.75H18.1499C18.5641 22.75 18.8999 22.4142 18.8999 22C18.8999 21.4109 18.3813 21.25 17.8999 21.25C17.8999 19.6704 16.8383 18.25 15.1499 18.25H12.8999V16.6985C15.6263 16.384 17.9192 14.6581 19.0304 12.2687C21.2079 11.4332 22.71 9.17625 22.71 6.85001C22.71 4.78926 21.0028 3.60001 19.1004 3.60001C18.2758 2.19381 16.7486 1.25 15 1.25H9ZM5.75 6C5.75 4.20421 7.20421 2.75 9 2.75H15C16.7958 2.75 18.25 4.20421 18.25 6V9C18.25 12.4558 15.4558 15.25 12 15.25C8.54421 15.25 5.75 12.4558 5.75 9V6ZM16.3999 21.25H7.8999C7.8999 20.4941 8.28462 19.75 9.1499 19.75H15.1499C16.0152 19.75 16.3999 20.4941 16.3999 21.25ZM4.19352 5.13249C3.38081 5.28783 2.79004 5.98328 2.79004 6.85001C2.79004 8.03837 3.35273 9.28035 4.23715 10.0781C3.98862 8.52173 3.95736 6.68797 4.19352 5.13249ZM19.86 5.85001C19.86 5.60841 19.8424 5.36848 19.8066 5.13249C20.6193 5.28783 21.21 5.98328 21.21 6.85001C21.21 8.03837 20.6473 9.28034 19.7629 10.0781C19.8266 9.67918 19.86 9.26936 19.86 8.85001V5.85001Z" fill="black"/>
</svg>
