<svg viewBox="0 0 24 24" fill="none" xmlns="http://www.w3.org/2000/svg">
<path fill-rule="evenodd" clip-rule="evenodd" d="M2.97889 6.11654C3.1191 3.92747 4.97299 2.25 7.17916 2.25H16.8208C19.0269 2.25 20.8808 3.92747 21.021 6.11654L21.7415 17.3665C21.8949 19.7605 19.9502 21.75 17.5413 21.75H6.45863C4.04969 21.75 2.10504 19.7605 2.25836 17.3665L2.97889 6.11654ZM7.17916 3.75C5.73268 3.75 4.56347 4.84399 4.47583 6.21241L3.7553 17.4624C3.65974 18.9544 4.87766 20.25 6.45863 20.25H17.5413C19.1223 20.25 20.3402 18.9544 20.2446 17.4624L19.5241 6.21241C19.4364 4.84399 18.2672 3.75 16.8208 3.75H7.17916ZM7.90089 6.99997C8.3151 6.99997 8.65089 7.33576 8.65089 7.74997C8.65089 9.52758 10.133 11 11.9999 11C13.8668 11 15.3489 9.52758 15.3489 7.74997C15.3489 7.33576 15.6847 6.99997 16.0989 6.99997C16.5131 6.99997 16.8489 7.33576 16.8489 7.74997C16.8489 10.3904 14.6604 12.5 11.9999 12.5C9.3394 12.5 7.15089 10.3904 7.15089 7.74997C7.15089 7.33576 7.48668 6.99997 7.90089 6.99997Z" fill="black"/>
</svg>
