<svg viewBox="0 0 24 24" fill="none" xmlns="http://www.w3.org/2000/svg">
<path d="M5.7002 9.25C5.7002 8.83579 5.36441 8.5 4.9502 8.5H4.94121C4.527 8.5 4.19121 8.83579 4.19121 9.25C4.19121 9.66421 4.527 10 4.94121 10H4.9502C5.36441 10 5.7002 9.66421 5.7002 9.25Z" fill="black"/>
<path d="M8.25 8.5C8.66421 8.5 9 8.83579 9 9.25C9 9.66421 8.66421 10 8.25 10H8.24102C7.8268 10 7.49102 9.66421 7.49102 9.25C7.49102 8.83579 7.8268 8.5 8.24102 8.5H8.25Z" fill="black"/>
<path fill-rule="evenodd" clip-rule="evenodd" d="M0 8.91252C0 4.37512 4.25051 1.03671 8.65869 2.11188L18.2109 4.44168C19.5545 4.7694 20.5 5.97321 20.5 7.35624V12.2479C20.5 13.7271 19.4218 14.9855 17.9601 15.2124L11.1928 16.2628L12.3358 19.0059C13.1275 20.906 11.7315 23 9.67309 23C8.50857 23 7.45826 22.2998 7.01037 21.2249L5.06705 16.5609C2.17721 15.729 0 13.067 0 9.82971V8.91252ZM8.30326 3.56916L17.8554 5.89896C18.5273 6.06282 19 6.66472 19 7.35624V12.2479C19 12.9875 18.4609 13.6167 17.7301 13.7302L7.84355 15.2646C4.50964 15.7821 1.5 13.2035 1.5 9.82971V8.91252C1.5 5.34742 4.83969 2.72439 8.30326 3.56916ZM6.80371 16.8289L8.39498 20.6479C8.60997 21.1639 9.11412 21.5 9.67309 21.5C10.6611 21.5 11.3312 20.4949 10.9512 19.5828L9.66654 16.4997L8.07361 16.7469C7.64492 16.8134 7.22045 16.8397 6.80371 16.8289Z" fill="black"/>
<path d="M21.5 10.25C21.5 9.83579 21.8358 9.5 22.25 9.5H23.25C23.6642 9.5 24 9.83579 24 10.25C24 10.6642 23.6642 11 23.25 11H22.25C21.8358 11 21.5 10.6642 21.5 10.25Z" fill="black"/>
<path d="M22.25 6.5C21.8358 6.5 21.5 6.83579 21.5 7.25C21.5 7.66421 21.8358 8 22.25 8H23.25C23.6642 8 24 7.66421 24 7.25C24 6.83579 23.6642 6.5 23.25 6.5H22.25Z" fill="black"/>
<path d="M21.5 13.25C21.5 12.8358 21.8358 12.5 22.25 12.5H23.25C23.6642 12.5 24 12.8358 24 13.25C24 13.6642 23.6642 14 23.25 14H22.25C21.8358 14 21.5 13.6642 21.5 13.25Z" fill="black"/>
</svg>
