<svg viewBox="0 0 24 24" fill="none" xmlns="http://www.w3.org/2000/svg">
<path d="M9 9.96338C9 8.39585 10.1576 7 11.75 7C13.3424 7 14.5 8.39585 14.5 9.96338C14.5 11.2016 13.7687 11.8758 13.216 12.2938C12.7624 12.6406 12.5 12.9263 12.5 13.4701V13.75C12.5 14.1642 12.1642 14.5 11.75 14.5C11.3358 14.5 11 14.1642 11 13.75V13.4701C11 12.2011 11.7492 11.5268 12.3067 11.1008L12.3099 11.0983C12.7449 10.7696 13 10.4839 13 9.96338C13 9.07758 12.3745 8.5 11.75 8.5C11.1255 8.5 10.5 9.07758 10.5 9.96338C10.5 10.3776 10.1642 10.7134 9.75 10.7134C9.33579 10.7134 9 10.3776 9 9.96338Z" fill="black"/>
<path d="M10.991 16.25C10.991 15.8358 11.3268 15.5 11.741 15.5H11.759C12.1732 15.5 12.509 15.8358 12.509 16.25C12.509 16.6642 12.1732 17 11.759 17H11.741C11.3268 17 10.991 16.6642 10.991 16.25Z" fill="black"/>
<path fill-rule="evenodd" clip-rule="evenodd" d="M12 1.25C6.08579 1.25 1.25 6.08579 1.25 12C1.25 17.9142 6.08579 22.75 12 22.75C17.9142 22.75 22.75 17.9142 22.75 12C22.75 6.08579 17.9142 1.25 12 1.25ZM2.75 12C2.75 6.91421 6.91421 2.75 12 2.75C17.0858 2.75 21.25 6.91421 21.25 12C21.25 17.0858 17.0858 21.25 12 21.25C6.91421 21.25 2.75 17.0858 2.75 12Z" fill="black"/>
</svg>
