<svg viewBox="0 0 24 24" fill="none" xmlns="http://www.w3.org/2000/svg">
<path fill-rule="evenodd" clip-rule="evenodd" d="M10.25 2C10.25 1.58579 9.91421 1.25 9.5 1.25C9.08579 1.25 8.75 1.58579 8.75 2V4.25H8.42C6.95579 4.25 5.76 5.44579 5.76 6.91V11.9984C5.75463 13.2688 6.18625 14.4607 7.01906 15.3406C7.85792 16.2268 9.06044 16.75 10.5 16.75H11.25V22C11.25 22.4142 11.5858 22.75 12 22.75C12.4142 22.75 12.75 22.4142 12.75 22V16.75H13.5C14.9397 16.75 16.1419 16.2267 16.9817 15.3411C17.8157 14.4615 18.25 13.27 18.25 12V6.91C18.25 5.44579 17.0542 4.25 15.59 4.25H15.25V2C15.25 1.58579 14.9142 1.25 14.5 1.25C14.0858 1.25 13.75 1.58579 13.75 2V4.25H10.25V2ZM13.5 15.25C14.5603 15.25 15.3581 14.8733 15.8933 14.3089C16.4342 13.7385 16.75 12.93 16.75 12V6.91C16.75 6.27422 16.2258 5.75 15.59 5.75H8.42C7.78422 5.75 7.26 6.27422 7.26 6.91V12.0034C7.25578 12.9323 7.56913 13.7397 8.10843 14.3094C8.64207 14.8732 9.43954 15.25 10.5 15.25H13.5Z" fill="black"/>
</svg>
