<svg viewBox="0 0 24 24" fill="none" xmlns="http://www.w3.org/2000/svg">
<path d="M12.75 14.99C12.75 14.5758 12.4142 14.24 12 14.24C11.5858 14.24 11.25 14.5758 11.25 14.99V17.99C11.25 18.4042 11.5858 18.74 12 18.74C12.4142 18.74 12.75 18.4042 12.75 17.99V14.99Z" fill="black"/>
<path fill-rule="evenodd" clip-rule="evenodd" d="M14.4501 2.10558C13.5961 1.50775 12.5191 1.24468 11.4837 1.26896C10.4482 1.29324 9.38375 1.60695 8.55901 2.2484L3.16901 6.4484C2.60552 6.88685 2.134 7.53618 1.80418 8.20839C1.47441 8.88052 1.25 9.64953 1.25 10.36V17.77C1.25 20.5019 3.47347 22.74 6.21 22.74H17.79C20.5254 22.74 22.75 20.5031 22.75 17.78V10.5C22.75 9.7428 22.5017 8.93333 22.1361 8.23294C21.7707 7.53286 21.2484 6.86675 20.6288 6.43471L14.4501 2.10558ZM4.09099 7.63161L9.48046 3.43202C10.0057 3.0236 10.7419 2.78677 11.5188 2.76855C12.2958 2.75033 13.044 2.95238 13.5899 3.33443L19.7696 7.66424L19.7712 7.6653C20.1413 7.92327 20.5195 8.3774 20.8064 8.92707C21.0933 9.47668 21.25 10.0472 21.25 10.5V17.78C21.25 19.677 19.6946 21.24 17.79 21.24H6.21C4.30653 21.24 2.75 19.6781 2.75 17.77V10.36C2.75 9.94048 2.89059 9.39949 3.15082 8.86912C3.4109 8.33904 3.75471 7.89315 4.09099 7.63161Z" fill="black"/>
</svg>
