<svg viewBox="0 0 24 24" fill="none" xmlns="http://www.w3.org/2000/svg">
<path d="M2.45842 8.95357C8.24839 4.48211 15.7516 4.48211 21.5416 8.95357C21.8694 9.20675 22.3404 9.14623 22.5936 8.81839C22.8468 8.49056 22.7863 8.01956 22.4584 7.76638C16.1284 2.87784 7.87162 2.87784 1.54159 7.76638C1.21376 8.01956 1.15324 8.49056 1.40641 8.81839C1.65959 9.14623 2.13059 9.20675 2.45842 8.95357Z" fill="black"/>
<path d="M5.36836 12.4336C9.39835 9.32209 14.6117 9.32209 18.6417 12.4336C18.9695 12.6868 19.4405 12.6262 19.6937 12.2983C19.9468 11.9705 19.8862 11.4995 19.5584 11.2463C14.9884 7.71786 9.02167 7.71786 4.45166 11.2463C4.1238 11.4995 4.06322 11.9705 4.31636 12.2983C4.5695 12.6262 5.0405 12.6868 5.36836 12.4336Z" fill="black"/>
<path d="M16.7407 16.083C13.8611 13.8524 10.1289 13.8524 7.24926 16.083C6.9218 16.3366 6.45071 16.2768 6.19706 15.9493C5.9434 15.6219 6.00324 15.1508 6.3307 14.8971C9.75108 12.2477 14.2389 12.2477 17.6593 14.8971C17.9867 15.1508 18.0466 15.6219 17.7929 15.9493C17.5393 16.2768 17.0682 16.3366 16.7407 16.083Z" fill="black"/>
<path d="M9.85837 19.7436C11.1684 18.7321 12.8417 18.7321 14.1516 19.7436C14.4795 19.9968 14.9505 19.9362 15.2036 19.6084C15.4568 19.2805 15.3962 18.8095 15.0684 18.5564C13.2184 17.1279 10.7916 17.1279 8.94163 18.5564C8.61378 18.8095 8.55322 19.2805 8.80637 19.6084C9.05952 19.9362 9.53052 19.9968 9.85837 19.7436Z" fill="black"/>
</svg>
