<svg viewBox="0 0 24 24" fill="none" xmlns="http://www.w3.org/2000/svg">
<path d="M11.2998 15.25C11.2998 14.8358 11.6356 14.5 12.0498 14.5H12.0588C12.473 14.5 12.8088 14.8358 12.8088 15.25C12.8088 15.6642 12.473 16 12.0588 16H12.0498C11.6356 16 11.2998 15.6642 11.2998 15.25Z" fill="black"/>
<path d="M15.1353 14.52C14.7211 14.52 14.3853 14.8558 14.3853 15.27C14.3853 15.6842 14.7211 16.02 15.1353 16.02H18.8153C19.2295 16.02 19.5653 15.6842 19.5653 15.27C19.5653 14.8558 19.2295 14.52 18.8153 14.52H15.1353Z" fill="black"/>
<path fill-rule="evenodd" clip-rule="evenodd" d="M6.25 5C6.25 4.58579 6.58579 4.25 7 4.25H17.3179C19.5298 4.25 21.4489 5.77669 21.9463 7.93192C22.0488 8.37623 22.1779 8.84368 22.3102 9.32291C22.6447 10.5345 23 11.8214 23 13V15C23 17.2091 21.2091 19 19 19H4.45318C2.63507 19 1.24254 17.383 1.51224 15.585C2.07999 11.8001 5.33138 9 9.15868 9H19C19.6259 9 20.2182 9.14374 20.7457 9.40002L20.4847 8.26921C20.1444 6.79458 18.8313 5.75 17.3179 5.75H7C6.58579 5.75 6.25 5.41421 6.25 5ZM9.15868 10.5H19C20.3807 10.5 21.5 11.6193 21.5 13V15C21.5 16.3807 20.3807 17.5 19 17.5H4.45318C3.55212 17.5 2.86198 16.6986 2.99565 15.8075C3.45325 12.7568 6.07387 10.5 9.15868 10.5Z" fill="black"/>
</svg>
