<svg viewBox="0 0 24 24" fill="none" xmlns="http://www.w3.org/2000/svg">
<path d="M17.7785 1.30364C18.1631 1.45748 18.3502 1.89396 18.1963 2.27854L17.1963 4.77854C17.0425 5.16313 16.606 5.35019 16.2214 5.19636C15.8369 5.04252 15.6498 4.60605 15.8036 4.22146L16.8036 1.72146C16.9575 1.33687 17.3939 1.14981 17.7785 1.30364Z" fill="black"/>
<path d="M6 12C5.58579 12 5.25 12.3358 5.25 12.75C5.25 13.1642 5.58579 13.5 6 13.5H6.00898C6.4232 13.5 6.75898 13.1642 6.75898 12.75C6.75898 12.3358 6.4232 12 6.00898 12H6Z" fill="black"/>
<path fill-rule="evenodd" clip-rule="evenodd" d="M5 7.5H19C20.933 7.5 22.5 9.067 22.5 11V18C22.5 19.933 20.933 21.5 19 21.5H5C3.067 21.5 1.5 19.933 1.5 18V11C1.5 9.067 3.067 7.5 5 7.5ZM5 9H19C20.1046 9 21 9.89543 21 11V18C21 19.1046 20.1046 20 19 20H10.75V15C10.75 14.5858 10.4142 14.25 10 14.25C9.58579 14.25 9.25 14.5858 9.25 15L9.25 20H6.75L6.75 15C6.75 14.5858 6.41421 14.25 6 14.25C5.58579 14.25 5.25 14.5858 5.25 15L5.25 20H5C3.89543 20 3 19.1046 3 18V11C3 9.89543 3.89543 9 5 9Z" fill="black"/>
<path d="M13.6963 2.27854C13.8502 1.89396 13.6631 1.45748 13.2785 1.30364C12.8939 1.14981 12.4575 1.33687 12.3036 1.72146L11.3036 4.22146C11.1498 4.60605 11.3369 5.04252 11.7214 5.19636C12.106 5.35019 12.5425 5.16313 12.6963 4.77854L13.6963 2.27854Z" fill="black"/>
<path d="M8.77853 1.30364C9.16312 1.45748 9.35018 1.89396 9.19634 2.27854L8.19634 4.77854C8.04251 5.16313 7.60603 5.35019 7.22144 5.19636C6.83686 5.04252 6.64979 4.60605 6.80363 4.22146L7.80363 1.72146C7.95746 1.33687 8.39394 1.14981 8.77853 1.30364Z" fill="black"/>
</svg>
