<svg viewBox="0 0 24 24" fill="none" xmlns="http://www.w3.org/2000/svg">
<path fill-rule="evenodd" clip-rule="evenodd" d="M22.7493 9.96742C22.7409 9.77157 22.6575 9.59517 22.5269 9.4663L14.5338 1.47312C14.3978 1.33537 14.2089 1.25 14 1.25C14 1.25 14 1.25 14 1.25H9C6.42603 1.25 4.42914 1.7602 3.09467 3.09467C1.7602 4.42914 1.25 6.42603 1.25 9V15C1.25 17.574 1.7602 19.5709 3.09467 20.9053C4.42914 22.2398 6.42603 22.75 9 22.75H15C17.574 22.75 19.5709 22.2398 20.9053 20.9053C22.2398 19.5709 22.75 17.574 22.75 15V10C22.75 9.98908 22.7498 9.97822 22.7493 9.96742ZM13.25 2.75H9C6.57397 2.75 5.07086 3.2398 4.15533 4.15533C3.2398 5.07086 2.75 6.57397 2.75 9V15C2.75 17.426 3.2398 18.9291 4.15533 19.8447C5.07086 20.7602 6.57397 21.25 9 21.25H15C17.426 21.25 18.9291 20.7602 19.8447 19.8447C20.7602 18.9291 21.25 17.426 21.25 15V10.75H18C16.4585 10.75 15.1921 10.5028 14.3447 9.65535C13.4972 8.80793 13.25 7.54157 13.25 6.00002V2.75ZM14.75 6.00002V3.81068L20.1893 9.25002H18C16.5415 9.25002 15.8079 8.99727 15.4053 8.59469C15.0028 8.19211 14.75 7.45847 14.75 6.00002Z" fill="black"/>
</svg>
