<svg viewBox="0 0 24 24" fill="none" xmlns="http://www.w3.org/2000/svg">
<path fill-rule="evenodd" clip-rule="evenodd" d="M12.25 9.5C12.25 10.74 13.26 11.75 14.5 11.75C15.74 11.75 16.75 10.74 16.75 9.5C16.75 8.26 15.74 7.25 14.5 7.25C13.26 7.25 12.25 8.26 12.25 9.5ZM13.75 9.5C13.75 9.09 14.09 8.75 14.5 8.75C14.91 8.75 15.25 9.09 15.25 9.5C15.25 9.91 14.91 10.25 14.5 10.25C14.09 10.25 13.75 9.91 13.75 9.5Z" fill="black"/>
<path fill-rule="evenodd" clip-rule="evenodd" d="M6.18001 22.75C6.08001 22.75 5.97002 22.74 5.88001 22.73L3.71001 22.43C2.67001 22.29 1.73001 21.36 1.57001 20.3L1.27001 18.11C1.17001 17.41 1.47001 16.5 1.97001 15.99L6.36001 11.6C5.65001 8.76002 6.47002 5.76002 8.56002 3.69001C11.8 0.460015 17.07 0.450015 20.32 3.69001C21.89 5.26002 22.75 7.35002 22.75 9.57001C22.75 11.79 21.89 13.88 20.32 15.45C18.22 17.53 15.23 18.35 12.41 17.63L9.77287 20.2612C9.75648 20.2815 9.73886 20.3012 9.72002 20.32C9.70009 20.3399 9.67946 20.3584 9.65822 20.3756L8.01002 22.02C7.59001 22.46 6.84001 22.75 6.18001 22.75ZM11.64 16.26L9.17742 18.7174L7.42002 16.96C7.13002 16.67 6.65002 16.67 6.36002 16.96C6.07002 17.25 6.07002 17.73 6.36002 18.02L8.11629 19.7763L6.92001 20.97C6.75001 21.14 6.31002 21.28 6.07001 21.24L3.89001 20.94C3.51002 20.89 3.10001 20.46 3.04001 20.08L2.74001 17.89C2.71001 17.66 2.85001 17.22 3.02001 17.05L7.72001 12.35C7.92001 12.15 7.99001 11.87 7.91001 11.6C7.16001 9.16002 7.81001 6.54001 9.61001 4.75001C10.94 3.42001 12.68 2.76001 14.43 2.76001C16.18 2.76001 17.93 3.43001 19.23 4.75001C20.51 6.03001 21.22 7.74002 21.22 9.57001C21.22 11.39 20.51 13.11 19.23 14.39C17.43 16.19 14.8 16.84 12.39 16.08C12.13 16 11.84 16.06 11.64 16.26Z" fill="black"/>
</svg>
