<svg viewBox="0 0 24 24" fill="none" xmlns="http://www.w3.org/2000/svg">
<path d="M6.65572 15.3292C7.0262 15.1439 7.47671 15.2941 7.66195 15.6646C8.2532 16.8471 9.57162 17.5 10.9911 17.5C12.4106 17.5 13.7291 16.8471 14.3203 15.6646C14.5056 15.2941 14.9561 15.1439 15.3265 15.3292C15.697 15.5144 15.8472 15.9649 15.6619 16.3354C14.7532 18.1529 12.8216 19 10.9911 19C9.16064 19 7.22906 18.1529 6.32031 16.3354C6.13507 15.9649 6.28524 15.5144 6.65572 15.3292Z" fill="black"/>
<path d="M16.9912 9C17.5435 9 17.9912 8.55231 17.9912 8C17.9912 7.44769 17.5435 7 16.9912 7C16.4389 7 15.9912 7.44769 15.9912 8C15.9912 8.55231 16.4389 9 16.9912 9Z" fill="black"/>
<path fill-rule="evenodd" clip-rule="evenodd" d="M20.9912 8C20.4912 4.5 17.9715 2 13.5715 2C10.0683 2 7.76041 3.95764 6.96517 7.24951C6.76159 8.09222 6.65714 9.02234 6.65714 10.0294C6.59615 9.88934 6.53693 9.74902 6.47812 9.60962C6.16228 8.86121 5.8583 8.14087 5.35413 7.63763C4.92726 7.21161 4.35688 6.94116 3.51429 6.94116C1.49121 6.94116 1 9.90894 1 12.5C1 18.299 5.50274 23 11.0571 23C16.6115 23 21.1055 17.6813 21.1055 11.8824C23.9912 11 23.9912 9 20.9912 8ZM19.6055 10.7725L20.6669 10.4479C21.1738 10.2929 21.4806 10.1212 21.6473 9.99304C21.464 9.83557 21.1117 9.62134 20.5168 9.42303L19.6374 9.12988L19.5062 8.21216C19.2997 6.7666 18.6937 5.61835 17.7689 4.82751C16.8455 4.03778 15.4816 3.5 13.5715 3.5C11.7479 3.5 10.4628 4.12439 9.60831 5.13196C8.72578 6.17261 8.15714 7.79626 8.15714 10.0294C8.15714 10.74 7.65861 11.353 6.96299 11.4979C6.26738 11.6428 5.56554 11.2797 5.28187 10.6283C5.24791 10.5503 5.21555 10.4753 5.18458 10.4031C5.14028 10.2998 5.09883 10.2023 5.05959 10.11C4.80679 9.51538 4.64572 9.13647 4.40842 8.8299C4.29123 8.67847 4.18926 8.59814 4.0902 8.54822C3.99192 8.49866 3.82142 8.44116 3.51427 8.44116L3.50772 8.44104C3.44786 8.43903 3.2011 8.43079 2.91318 9.24762C2.62234 10.0727 2.5 11.2603 2.5 12.5C2.5 17.5321 6.39143 21.5 11.0571 21.5C15.6158 21.5 19.6055 17.0308 19.6055 11.8824V10.7725Z" fill="black"/>
</svg>
