<svg viewBox="0 0 24 24" fill="none" xmlns="http://www.w3.org/2000/svg">
<path fill-rule="evenodd" clip-rule="evenodd" d="M3.55038 18.6273C6.49869 21.7964 11.3435 22.6323 15.2515 20.376C19.7953 17.7527 22.7527 10.9215 22.5243 3.92154C17.5243 1.42154 10.2953 1.29818 5.75152 3.92154C1.12696 6.59152 -0.372429 12.7562 2.49028 17.255C1.95435 18.4726 1.56849 19.7627 1.29001 21.0966C1.20536 21.5021 1.46544 21.8994 1.87091 21.9841C2.27638 22.0687 2.67371 21.8086 2.75835 21.4032C2.9604 20.4353 3.2194 19.5076 3.55038 18.6273ZM21.0357 4.88671C18.9267 3.99446 16.4349 3.51298 13.9591 3.50026C11.1479 3.48581 8.48457 4.07566 6.50152 5.22057C2.83793 7.33575 1.48025 11.9111 3.31045 15.655C5.08908 12.6555 7.98669 10.5893 11.2528 9.4412C11.6435 9.30384 12.0717 9.50927 12.2091 9.90004C12.3464 10.2908 12.141 10.719 11.7502 10.8563C8.54544 11.9829 5.78501 14.0644 4.22155 17.1065C6.64162 20.1799 11.0144 21.0903 14.5015 19.077C19.1855 16.3727 20.9881 9.94201 21.0357 4.88671Z" fill="black"/>
</svg>
