<svg viewBox="0 0 24 24" fill="none" xmlns="http://www.w3.org/2000/svg">
<path fill-rule="evenodd" clip-rule="evenodd" d="M15.8176 5.08714C16.0893 3.79754 15.2529 2.45793 14.0301 2.04286C13.4369 1.82458 12.8091 1.87344 12.2861 2.05323C11.7647 2.23243 11.2659 2.56965 10.9567 3.03264L10.9558 3.03397L7.98493 7.45411C7.87535 7.10106 7.69469 6.78339 7.41359 6.52392C6.87705 6.02865 6.13737 5.90002 5.37988 5.90002H4.37988C3.6224 5.90002 2.88272 6.02865 2.34617 6.52392C1.79489 7.0328 1.62988 7.76551 1.62988 8.55002V18.35C1.62988 19.1345 1.79489 19.8672 2.34617 20.3761C2.88272 20.8714 3.6224 21 4.37988 21H5.37988C6.13737 21 6.87705 20.8714 7.41359 20.3761C7.643 20.1644 7.80551 19.9139 7.91709 19.637L10.0885 21.318C10.4188 21.6285 10.8681 21.8123 11.2488 21.9211C11.6632 22.0395 12.1075 22.1 12.4799 22.1H16.2799C17.0597 22.1 17.8369 21.8114 18.4603 21.3553C19.0769 20.9041 19.5944 20.2505 19.8003 19.4602L22.1896 12.1927C22.5094 11.2886 22.3965 10.3761 21.8837 9.68009C21.3726 8.98643 20.5328 8.59999 19.5799 8.59999H15.5799C15.49 8.59999 15.4216 8.56368 15.3798 8.51628C15.3437 8.4754 15.3029 8.39882 15.3218 8.25994L15.8176 5.08714ZM8.12988 17.9047L11.0766 20.1861L11.1102 20.2197C11.1769 20.2863 11.3569 20.392 11.6609 20.4788C11.9466 20.5605 12.2523 20.6 12.4799 20.6H16.2799C16.7001 20.6 17.1729 20.4386 17.5745 20.1447C17.9756 19.8513 18.253 19.4651 18.3523 19.0681L18.3589 19.0416L20.7704 11.7067L20.7736 11.6977C20.9496 11.205 20.8614 10.8214 20.6761 10.5699C20.4872 10.3136 20.127 10.1 19.5799 10.1H15.5799C14.5365 10.1 13.671 9.20859 13.8374 8.04393L13.8388 8.0342L14.3426 4.81061L14.3477 4.78729C14.4584 4.28927 14.1047 3.64885 13.5427 3.46151L13.5295 3.45711L13.5165 3.45224C13.3136 3.37612 13.0468 3.37787 12.7737 3.47176C12.4955 3.56738 12.2948 3.72969 12.2039 3.86602L12.2024 3.86837L8.12988 9.9274V17.9047ZM3.12988 8.55002C3.12988 7.93454 3.26488 7.71725 3.36359 7.62613C3.47705 7.5214 3.73737 7.40002 4.37988 7.40002H5.37988C6.0224 7.40002 6.28272 7.5214 6.39617 7.62613C6.49489 7.71725 6.62988 7.93454 6.62988 8.55002V18.35C6.62988 18.9655 6.49489 19.1828 6.39617 19.2739C6.28272 19.3787 6.0224 19.5 5.37988 19.5H4.37988C3.73737 19.5 3.47705 19.3787 3.36359 19.2739C3.26488 19.1828 3.12988 18.9655 3.12988 18.35V8.55002Z" fill="black"/>
</svg>
