<svg viewBox="0 0 24 24" fill="none" xmlns="http://www.w3.org/2000/svg">
<path fill-rule="evenodd" clip-rule="evenodd" d="M3.83145 21.7496C3.00303 21.7496 2.33145 21.0781 2.33145 20.2496V9.47811C2.33145 9.06758 2.49637 8.69557 2.76357 8.42472C2.29478 7.87914 2 7.17895 2 6.35926C2 4.30349 3.85234 3 5.6551 3C7.45739 3 9.31154 4.30217 9.31154 6.35926C9.31154 7.19801 9.00286 7.91137 8.51502 8.46206C8.54076 8.49 8.56545 8.51892 8.58903 8.54875C8.61834 8.51158 8.64952 8.47565 8.68252 8.44113C8.96552 8.14497 9.35734 7.97744 9.76697 7.97744H13.2925C13.6029 7.97744 13.8913 8.07173 14.1306 8.23323C14.779 7.91677 15.5538 7.72353 16.4706 7.72353C17.9714 7.72353 19.4202 8.23152 20.4797 9.39861C21.5255 10.5507 22.0289 12.1646 22.0289 14.0715V20.2168C22.0357 20.5388 21.9388 20.8587 21.7458 21.1264C21.4638 21.5173 21.0112 21.749 20.5292 21.749H17.003C16.1746 21.749 15.503 21.0774 15.503 20.249V14.4852C15.503 13.8973 15.3927 13.6351 15.3436 13.5609C15.3235 13.556 15.2833 13.5492 15.216 13.5492C15.1474 13.5492 15.1058 13.5603 15.0809 13.5695C15.0548 13.5792 15.0279 13.5942 14.9981 13.6188C14.9346 13.6713 14.8629 13.7657 14.8102 13.8922C14.8087 13.9012 14.8067 13.9145 14.8046 13.9327C14.7966 14.0025 14.7918 14.1004 14.7918 14.2332V20.249C14.7918 21.0774 14.1202 21.749 13.2918 21.749H9.76697C9.36793 21.749 8.98533 21.59 8.70382 21.3071C8.66309 21.2662 8.62498 21.2232 8.58956 21.1783C8.31486 21.5263 7.88928 21.7496 7.41153 21.7496H3.83145ZM14.7949 13.93L14.7981 13.9221C14.7971 13.9246 14.7961 13.9272 14.7949 13.93ZM20.5289 14.0715C20.5289 10.763 18.7887 9.22353 16.4706 9.22353C15.7825 9.22353 15.2341 9.36456 14.7925 9.5793C14.032 9.94909 13.5881 10.5374 13.2925 11.0006V9.47744H9.76697C9.77612 9.67888 9.78163 10.2277 9.78458 10.9774C9.79278 13.0637 9.78118 16.7057 9.77327 18.749C9.76976 19.6568 9.76697 20.249 9.76697 20.249H13.2918V14.2332C13.2918 13.9111 13.3134 13.589 13.4073 13.3604C13.6612 12.7154 14.2432 12.0492 15.216 12.0492C16.4939 12.0492 17.003 13.0376 17.003 14.4852V20.249H20.5292L20.5289 20.248V14.0715ZM3.83145 9.47811V20.2496H7.41153V9.47811H3.83145ZM6.71469 7.97811C7.3694 7.65893 7.81154 7.05334 7.81154 6.35926C7.81154 5.33196 6.8458 4.5 5.6551 4.5C4.46507 4.5 3.5 5.33229 3.5 6.35926C3.5 7.05334 3.94168 7.65893 4.59579 7.97811C4.90857 8.13072 5.26992 8.21785 5.65477 8.21785C6.03995 8.21785 6.40162 8.13072 6.71469 7.97811Z" fill="black"/>
</svg>
