<svg viewBox="0 0 24 24" fill="none" xmlns="http://www.w3.org/2000/svg">
<path fill-rule="evenodd" clip-rule="evenodd" d="M14.0701 2.25H9.92987C9.06762 2.24996 8.55809 2.24994 8.11895 2.30775C5.09 2.70652 2.70652 5.09 2.30775 8.11895C2.2623 8.4642 2.2526 8.85295 2.25054 9.42239C1.08481 9.83616 0.25 10.9488 0.25 12.2564V18C0.25 19.5188 1.48122 20.75 3 20.75H21C22.5188 20.75 23.75 19.5188 23.75 18V12.2564C23.75 10.9488 22.9152 9.83617 21.7495 9.4224C21.7474 8.85295 21.7377 8.4642 21.6923 8.11895C21.2935 5.09 18.91 2.70652 15.8811 2.30775C15.4419 2.24994 14.9324 2.24996 14.0701 2.25ZM20.2486 9.29056C20.2455 8.81661 20.2357 8.54701 20.2051 8.31474C19.8949 5.95889 18.0411 4.10507 15.6853 3.79492C15.3564 3.75162 14.9527 3.75 14 3.75H10C9.04733 3.75 8.64362 3.75162 8.31474 3.79492C5.95889 4.10507 4.10507 5.95889 3.79492 8.31474C3.76434 8.54701 3.75455 8.81661 3.75144 9.29056C5.1763 9.52662 6.26282 10.7646 6.26282 12.2564V14.1875H17.7372V12.2564C17.7372 10.7646 18.8237 9.52661 20.2486 9.29056ZM1.75 12.2564C1.75 11.4244 2.42444 10.75 3.25641 10.75C4.08838 10.75 4.76282 11.4244 4.76282 12.2564V14.9375C4.76282 15.3517 5.09861 15.6875 5.51282 15.6875H18.4872C18.9014 15.6875 19.2372 15.3517 19.2372 14.9375V12.2564C19.2372 11.4244 19.9116 10.75 20.7436 10.75C21.5756 10.75 22.25 11.4244 22.25 12.2564V18C22.25 18.6904 21.6904 19.25 21 19.25H3C2.30964 19.25 1.75 18.6904 1.75 18V12.2564Z" fill="black"/>
</svg>
