<svg viewBox="0 0 24 24" fill="none" xmlns="http://www.w3.org/2000/svg">
<path fill-rule="evenodd" clip-rule="evenodd" d="M12 6.44C9.86266 6.44 8.13 8.17266 8.13 10.31C8.13 12.4473 9.86266 14.18 12 14.18C14.1373 14.18 15.87 12.4473 15.87 10.31C15.87 8.17266 14.1373 6.44 12 6.44ZM9.63 10.31C9.63 9.00109 10.6911 7.94 12 7.94C13.3089 7.94 14.37 9.00109 14.37 10.31C14.37 11.6189 13.3089 12.68 12 12.68C10.6911 12.68 9.63 11.6189 9.63 10.31Z" fill="black"/>
<path fill-rule="evenodd" clip-rule="evenodd" d="M12.0042 1.25C15.9848 1.25269 20.04 3.60029 21.1115 8.33441C22.3542 13.8239 18.9283 18.3834 16.1204 21.08C13.8191 23.3008 10.1799 23.2989 7.87048 21.0809L7.86953 21.08C5.07178 18.3836 1.6458 13.8139 2.8885 8.32441C3.96543 3.5903 8.02361 1.24731 12.0042 1.25ZM4.35141 8.65591C5.24463 4.73032 8.5865 2.74769 12.0032 2.75C15.4202 2.75231 18.76 4.73971 19.6485 8.66556C20.7056 13.3354 17.8125 17.3756 15.0805 19.999L15.0791 20.0004C13.3607 21.659 10.6407 21.661 8.91018 19.9997C6.18807 17.3762 3.29435 13.3261 4.35141 8.65591Z" fill="black"/>
</svg>
