<svg viewBox="0 0 24 24" fill="none" xmlns="http://www.w3.org/2000/svg">
<path fill-rule="evenodd" clip-rule="evenodd" d="M9.88136 5.48435C9.92194 5.49271 9.95735 5.50001 10.0001 5.50001C10.1301 5.50001 10.2601 5.45001 10.3501 5.35001C10.4801 5.23001 10.5301 5.04001 10.4801 4.86001L10.0801 3.50001L10.4801 2.14001C10.5301 1.97001 10.4801 1.78001 10.3501 1.65001C10.2201 1.52001 10.0401 1.47001 9.86005 1.52001L8.50005 1.92001L7.14005 1.52001C6.97005 1.47001 6.78005 1.52001 6.65005 1.65001C6.52005 1.77001 6.47005 1.96001 6.52005 2.14001L6.92005 3.50001L6.52005 4.86001C6.47005 5.04001 6.52005 5.22001 6.65005 5.35001C6.77005 5.48001 6.96005 5.53001 7.14005 5.48001L8.50005 5.08001L9.86005 5.48001L9.88136 5.48435ZM8.61874 4.07566C8.57817 4.0673 8.54276 4.06001 8.50005 4.06001C8.45735 4.06001 8.42194 4.0673 8.38136 4.07566L8.36005 4.08001L7.74005 4.26001L7.92005 3.64001C7.95005 3.55001 7.95005 3.45001 7.92005 3.36001L7.74005 2.74001L8.36005 2.92001C8.45005 2.95001 8.55005 2.95001 8.64005 2.92001L9.26005 2.74001L9.08005 3.36001C9.05005 3.45001 9.05005 3.55001 9.08005 3.64001L9.26005 4.26001L8.64005 4.08001L8.61874 4.07566Z" fill="black"/>
<path fill-rule="evenodd" clip-rule="evenodd" d="M4.99988 21.87C4.25988 21.87 3.52988 21.59 2.96988 21.03C2.42988 20.49 2.12988 19.77 2.12988 19C2.12988 18.23 2.42988 17.51 2.96988 16.97L15.9699 3.97001C17.0899 2.85 18.9099 2.85 20.0299 3.97001C20.5699 4.51 20.8699 5.23 20.8699 6C20.8699 6.77 20.5699 7.49 20.0299 8.03L18.5454 9.51448L18.54 9.51999L18.5343 9.52563L7.02988 21.03C6.46988 21.59 5.73988 21.87 4.99988 21.87ZM18.9699 6.97L18.0099 7.92996L16.0699 5.98996L17.0299 5.03C17.2999 4.76 17.6499 4.63 17.9999 4.63C18.3499 4.63 18.6999 4.76 18.9699 5.03C19.2299 5.29001 19.3699 5.63 19.3699 6C19.3699 6.37 19.2299 6.71 18.9699 6.97ZM4.02988 18.03L15.0099 7.04997L16.9499 8.98996L5.96988 19.97C5.43988 20.5 4.55988 20.5 4.02988 19.97C3.76988 19.71 3.62988 19.37 3.62988 19C3.62988 18.63 3.76988 18.29 4.02988 18.03Z" fill="black"/>
<path fill-rule="evenodd" clip-rule="evenodd" d="M6.00005 11.5C5.95735 11.5 5.92194 11.4927 5.88136 11.4844L5.86005 11.48L4.50005 11.08L3.14005 11.48C2.96005 11.53 2.78005 11.48 2.65005 11.35C2.52005 11.22 2.47005 11.03 2.52005 10.86L2.92005 9.50001L2.52005 8.14001C2.47005 7.96001 2.52005 7.77001 2.65005 7.65001C2.78005 7.53001 2.97005 7.47001 3.14005 7.52001L4.50005 7.92001L5.86005 7.52001C6.03005 7.47001 6.22005 7.52001 6.35005 7.65001C6.48005 7.78001 6.53005 7.97001 6.48005 8.14001L6.08005 9.50001L6.48005 10.86C6.53005 11.04 6.48005 11.23 6.35005 11.35C6.26005 11.45 6.13005 11.5 6.00005 11.5ZM4.50005 10.06C4.54276 10.06 4.57817 10.0673 4.61875 10.0757L4.64005 10.08L5.26005 10.26L5.08005 9.64001C5.05005 9.55001 5.05005 9.45001 5.08005 9.36001L5.26005 8.74001L4.64005 8.92001C4.55005 8.95001 4.45005 8.95001 4.36005 8.92001L3.74005 8.74001L3.92005 9.36001C3.95005 9.45001 3.95005 9.55001 3.92005 9.64001L3.74005 10.26L4.36005 10.08L4.38135 10.0757C4.42193 10.0673 4.45734 10.06 4.50005 10.06Z" fill="black"/>
<path fill-rule="evenodd" clip-rule="evenodd" d="M20.8814 16.4844C20.9219 16.4927 20.9573 16.5 21.0001 16.5C21.1301 16.5 21.2601 16.45 21.3501 16.35C21.4801 16.23 21.5301 16.04 21.4801 15.86L21.0801 14.5L21.4801 13.14C21.5301 12.97 21.4801 12.78 21.3501 12.65C21.2201 12.52 21.0301 12.47 20.8601 12.52L19.5001 12.92L18.1401 12.52C17.9701 12.47 17.7801 12.53 17.6501 12.65C17.5201 12.77 17.4701 12.96 17.5201 13.14L17.9201 14.5L17.5201 15.86C17.4701 16.03 17.5201 16.22 17.6501 16.35C17.7801 16.48 17.9601 16.53 18.1401 16.48L19.5001 16.08L20.8601 16.48C20.8674 16.4815 20.8744 16.4829 20.8814 16.4844ZM19.6187 15.0757C19.5782 15.0673 19.5428 15.06 19.5001 15.06C19.4573 15.06 19.4219 15.0673 19.3814 15.0757C19.3744 15.0771 19.3673 15.0785 19.3601 15.08L18.7401 15.26L18.9201 14.64C18.9501 14.55 18.9501 14.45 18.9201 14.36L18.7401 13.74L19.3601 13.92C19.4501 13.95 19.5501 13.95 19.6401 13.92L20.2601 13.74L20.0801 14.36C20.0501 14.45 20.0501 14.55 20.0801 14.64L20.2601 15.26L19.6401 15.08C19.6328 15.0785 19.6257 15.0771 19.6187 15.0757Z" fill="black"/>
</svg>
