<svg viewBox="0 0 24 24" fill="none" xmlns="http://www.w3.org/2000/svg">
<path d="M8.1499 8.48999C8.1499 9.03999 8.5999 9.48999 9.1499 9.48999C9.6999 9.48999 10.1599 9.03999 10.1599 8.48999C10.1599 7.93999 9.70991 7.48999 9.15991 7.48999H9.1499C8.5899 7.48999 8.1499 7.93999 8.1499 8.48999Z" fill="black"/>
<path fill-rule="evenodd" clip-rule="evenodd" d="M9.11994 13.31C8.48994 13.31 7.85993 13.08 7.35993 12.61C5.76993 11.1 5.12996 9.43999 5.50996 7.81999C5.88996 6.15999 7.33994 5.03998 9.11994 5.03998C10.8999 5.03998 12.35 6.15999 12.73 7.81999C13.1 9.44999 12.4599 11.1 10.8699 12.61C10.3799 13.07 9.74994 13.31 9.11994 13.31ZM6.96995 8.14998C6.64995 9.50998 7.56994 10.73 8.39994 11.52C8.80994 11.91 9.43994 11.91 9.83994 11.52C10.6599 10.74 11.5799 9.51998 11.2699 8.14998C10.9999 6.95998 9.93994 6.52998 9.11994 6.52998C8.29994 6.52998 7.24995 6.95998 6.96995 8.14998Z" fill="black"/>
<path fill-rule="evenodd" clip-rule="evenodd" d="M6.08554 22.4567C2.78552 21.6931 1.25 19.3237 1.25 15V9C1.25 3.57 3.57 1.25 9 1.25H15C19.33 1.25 21.7 2.79001 22.46 6.10001C22.4621 6.10879 22.464 6.1176 22.4658 6.12643C22.652 6.96969 22.7499 7.91139 22.7499 9.00001V15C22.7499 17.77 22.1699 19.64 20.9099 20.91L20.9037 20.9161C19.6338 22.1719 17.7654 22.75 14.9999 22.75H8.99989C7.89989 22.75 6.95989 22.66 6.09989 22.46L6.08554 22.4567ZM13.4755 13.4645L13.4699 13.47L6.03991 20.9C3.70998 20.2099 2.75 18.4699 2.75 15V9C2.75 4.39 4.39 2.75 9 2.75V2.75999H14.99C18.46 2.75999 20.21 3.71999 20.89 6.04996L13.4755 13.4645ZM7.84997 21.21L13.9999 15.0601L19.2599 20.32C18.2899 20.95 16.9199 21.25 14.9999 21.25H8.99989C8.58992 21.25 8.20995 21.24 7.84997 21.21ZM21.2099 7.85007L15.06 14L20.3199 19.26C20.9499 18.29 21.2499 16.91 21.2499 15V9.00001C21.2499 8.59003 21.2399 8.21006 21.2099 7.85007Z" fill="black"/>
</svg>
