<svg viewBox="0 0 24 24" fill="none" xmlns="http://www.w3.org/2000/svg">
<path d="M12.4194 9.591C12.7123 9.29811 12.7123 8.82324 12.4194 8.53034C12.1265 8.23745 11.6517 8.23745 11.3588 8.53034C11.0659 8.82324 11.0659 9.29811 11.3588 9.591C11.6517 9.8839 12.1265 9.8839 12.4194 9.591Z" fill="black"/>
<path d="M9.59101 12.4194C9.8839 12.1265 9.8839 11.6517 9.59101 11.3588C9.29811 11.0659 8.82324 11.0659 8.53035 11.3588C8.23745 11.6517 8.23745 12.1265 8.53035 12.4194C8.82324 12.7123 9.29811 12.7123 9.59101 12.4194Z" fill="black"/>
<path d="M12.4194 15.2479C12.7123 14.955 12.7123 14.4801 12.4194 14.1872C12.1265 13.8943 11.6517 13.8943 11.3588 14.1872C11.0659 14.4801 11.0659 14.955 11.3588 15.2479C11.6517 15.5408 12.1265 15.5408 12.4194 15.2479Z" fill="black"/>
<path d="M15.2479 12.4194C15.5408 12.1265 15.5408 11.6517 15.2479 11.3588C14.955 11.0659 14.4801 11.0659 14.1872 11.3588C13.8943 11.6517 13.8943 12.1265 14.1872 12.4194C14.4801 12.7123 14.955 12.7123 15.2479 12.4194Z" fill="black"/>
<path fill-rule="evenodd" clip-rule="evenodd" d="M20.1957 11.7104L20.2011 11.7159C22.5323 9.37179 22.5283 5.58179 20.1891 3.24265C17.85 0.903518 14.06 0.899515 11.7159 3.23065L11.7215 3.23621C9.37782 0.899505 5.58365 0.901658 3.24265 3.24265C0.903511 5.58179 0.899512 9.3718 3.23065 11.7159C0.89952 14.06 0.903522 17.85 3.24266 20.1891C5.5818 22.5283 9.3718 22.5323 11.7159 20.2011C14.06 22.5323 17.85 22.5283 20.1891 20.1891C22.5301 17.8482 22.5323 14.0541 20.1957 11.7104ZM10.6552 19.1405L4.29131 12.7766C2.54597 14.5349 2.54997 17.3751 4.30332 19.1285C6.05666 20.8818 8.89691 20.8858 10.6552 19.1405ZM12.7766 4.2913L19.1405 10.6552C20.8858 8.8969 20.8818 6.05666 19.1285 4.30331C17.3751 2.54997 14.5349 2.54596 12.7766 4.2913ZM10.6673 4.30331L19.1285 12.7645C20.8858 14.5219 20.8858 17.3711 19.1285 19.1285C17.3711 20.8858 14.5219 20.8858 12.7645 19.1285L4.30331 10.6673C2.54595 8.90992 2.54595 6.06067 4.30331 4.30331C6.06067 2.54596 8.90991 2.54596 10.6673 4.30331Z" fill="black"/>
</svg>
