<svg viewBox="0 0 24 24" fill="none" xmlns="http://www.w3.org/2000/svg">
<path d="M10 18.5C9.58579 18.5 9.25 18.8358 9.25 19.25C9.25 19.6642 9.58579 20 10 20H14C14.4142 20 14.75 19.6642 14.75 19.25C14.75 18.8358 14.4142 18.5 14 18.5H10Z" fill="black"/>
<path fill-rule="evenodd" clip-rule="evenodd" d="M9 1.25C7.00536 1.25 5.45818 1.48116 4.46967 2.46967C3.48116 3.45818 3.25 5.00536 3.25 7V17C3.25 18.9946 3.48116 20.5418 4.46967 21.5303C5.45818 22.5188 7.00536 22.75 9 22.75H15C16.9946 22.75 18.5418 22.5188 19.5303 21.5303C20.5188 20.5418 20.75 18.9946 20.75 17V7C20.75 5.00536 20.5188 3.45818 19.5303 2.46967C18.5418 1.48116 16.9946 1.25 15 1.25H9ZM4.75 7C4.75 4.99464 5.01884 4.04182 5.53033 3.53033C6.04182 3.01884 6.99464 2.75 9 2.75H15C17.0054 2.75 17.9582 3.01884 18.4697 3.53033C18.9812 4.04182 19.25 4.99464 19.25 7V17C19.25 19.0054 18.9812 19.9582 18.4697 20.4697C17.9582 20.9812 17.0054 21.25 15 21.25H9C6.99464 21.25 6.04182 20.9812 5.53033 20.4697C5.01884 19.9582 4.75 19.0054 4.75 17V7Z" fill="black"/>
</svg>
