<svg viewBox="0 0 24 24" fill="none" xmlns="http://www.w3.org/2000/svg">
<path fill-rule="evenodd" clip-rule="evenodd" d="M4.52872 8.16063C4.68551 9.63667 4.85803 11.2427 5.48163 12.6033C5.59367 12.8477 5.70583 13.0188 5.78124 13.0975C5.77757 13.0939 5.78549 13.1019 5.78124 13.0975C5.77763 13.1002 5.78429 13.0954 5.78124 13.0975C5.82564 13.064 5.90686 12.9746 5.9961 12.8288C6.80631 11.5054 6.80266 9.21011 8.50791 8.64173C9.49658 8.3122 10.5578 8.20782 11.5937 8.14423C10.8422 6.65662 9.84445 3.5448 7.86198 3.50036C5.89495 3.45627 5.11636 6.70357 4.52872 8.16063ZM12.3278 9.61153C11.2139 9.6467 10.0445 9.71071 8.98222 10.0648C8.89255 10.0947 8.72931 10.2153 8.51811 10.6166C7.84191 11.9014 7.60942 14.6033 5.74515 14.6033C4.14395 14.6033 3.67278 12.0824 3.43705 10.9509C3.42937 10.914 3.44451 10.9878 3.43705 10.9509L1.76739 15.0074C0.799067 17.5209 2.5079 20.1033 4.73356 20.1033H18.7728C19.9318 20.1033 20.9207 19.4316 21.4944 18.4046C22.0681 17.3777 22.1934 16.0431 21.6354 14.8175L19.5625 10.44C19.1089 9.44402 18.5834 9.15159 18.2109 9.12708C17.0216 9.04883 16.1576 10.9703 15.4569 11.6892C15.2358 11.9159 14.8144 12.2942 14.2421 12.1911C13.9674 12.1416 13.7615 11.9951 13.6179 11.857C13.0035 11.2662 12.6951 10.3579 12.3278 9.61153ZM3.01054 7.91462C2.99775 7.91572 2.99776 7.91579 2.99776 7.91579L2.99823 7.92136L2.99947 7.93574L2.99994 7.94092L0.374156 14.4516L0.370182 14.4617C-0.901949 17.752 1.23933 21.6033 4.73356 21.6033H18.7728C20.5624 21.6033 22.0106 20.5564 22.8039 19.1361C23.5966 17.7171 23.7687 15.8778 22.9978 14.1898L20.9253 9.81302C20.3555 8.56499 19.4582 7.7059 18.3094 7.63032C16.1862 7.49062 15.5697 9.38237 14.4622 10.6549C14.1253 10.1006 13.8853 9.37646 13.5978 8.79549C12.4383 6.45227 11.0476 2.07139 7.89559 2.00074C4.94467 1.9346 3.90416 5.69889 3.01054 7.91462Z" fill="black"/>
</svg>
