<svg viewBox="0 0 24 24" fill="none" xmlns="http://www.w3.org/2000/svg">
<path fill-rule="evenodd" clip-rule="evenodd" d="M12 6.75C10.4812 6.75 9.25 7.98122 9.25 9.5C9.25 11.0188 10.4812 12.25 12 12.25C13.5188 12.25 14.75 11.0188 14.75 9.5C14.75 7.98122 13.5188 6.75 12 6.75ZM10.75 9.5C10.75 8.80964 11.3096 8.25 12 8.25C12.6904 8.25 13.25 8.80964 13.25 9.5C13.25 10.1904 12.6904 10.75 12 10.75C11.3096 10.75 10.75 10.1904 10.75 9.5Z" fill="black"/>
<path d="M10.3142 12.819C9.93814 12.6455 9.49255 12.8096 9.31897 13.1857C9.14539 13.5618 9.30955 14.0074 9.68564 14.181C9.99359 14.3231 10.307 14.436 10.6237 14.5198L9.41438 16.0315C9.15562 16.3549 9.20806 16.8269 9.53151 17.0857C9.85495 17.3444 10.3269 17.292 10.5857 16.9685L12 15.2006L13.4144 16.9685C13.6731 17.292 14.1451 17.3444 14.4685 17.0857C14.792 16.8269 14.8444 16.3549 14.5857 16.0315L13.3763 14.5197C13.6929 14.436 14.0063 14.3231 14.3142 14.181C14.6903 14.0074 14.8545 13.5618 14.6809 13.1857C14.5073 12.8096 14.0617 12.6455 13.6856 12.819C12.5851 13.327 11.4148 13.327 10.3142 12.819Z" fill="black"/>
<path fill-rule="evenodd" clip-rule="evenodd" d="M12 1.25C6.06294 1.25 1.25 6.06294 1.25 12C1.25 17.9371 6.06294 22.75 12 22.75C17.9371 22.75 22.75 17.9371 22.75 12C22.75 6.06294 17.9371 1.25 12 1.25ZM2.75 12C2.75 6.89137 6.89137 2.75 12 2.75C17.1086 2.75 21.25 6.89137 21.25 12C21.25 17.1086 17.1086 21.25 12 21.25C6.89137 21.25 2.75 17.1086 2.75 12Z" fill="black"/>
</svg>
