<svg viewBox="0 0 24 24" fill="none" xmlns="http://www.w3.org/2000/svg">
<path d="M17.49 10.51C17.4376 10.51 17.3852 10.5024 17.3262 10.4938L17.3 10.49L12.45 9.26001C12.05 9.16001 11.81 8.75001 11.91 8.35001C12.01 7.95001 12.42 7.71001 12.82 7.81001L17.67 9.04001C18.07 9.14001 18.31 9.55001 18.21 9.95001C18.13 10.28 17.82 10.51 17.49 10.51Z" fill="black"/>
<path d="M14.3962 13.8738C14.4552 13.8824 14.5076 13.89 14.56 13.89C14.9 13.89 15.2 13.67 15.28 13.33C15.38 12.93 15.14 12.52 14.74 12.42L11.83 11.68C11.43 11.58 11.02 11.82 10.92 12.22C10.82 12.62 11.06 13.03 11.46 13.13L14.37 13.87C14.3789 13.8713 14.3876 13.8725 14.3962 13.8738Z" fill="black"/>
<path fill-rule="evenodd" clip-rule="evenodd" d="M15.2791 20.1641C15.4624 20.1756 15.6383 20.18 15.8099 20.18C18.77 20.18 20.5599 18.45 21.4199 14.79L22.4 10.61C22.9499 8.27 22.82 6.56 22 5.23C21.1699 3.9 19.6899 3.03 17.3499 2.48L15.6799 2.09C13.4137 1.55733 10.2564 1.2404 8.49718 4.44576C8.23844 4.50806 7.94842 4.59281 7.60005 4.7L6.02005 5.21C1.64005 6.63 0.370052 9.11 1.79005 13.51L3.07005 17.46C4.12005 20.71 5.76005 22.25 8.33005 22.25C9.23005 22.25 10.2301 22.07 11.3801 21.71L12.9601 21.19C13.8961 20.8869 14.6573 20.552 15.2791 20.1641ZM7.7683 6.22383C7.68373 6.50649 7.60454 6.8079 7.52995 7.13L6.54995 11.32C5.46995 15.92 6.97995 18.36 11.59 19.45L12.6517 19.7028C12.6249 19.7119 12.6 19.7209 12.5751 19.73C12.5476 19.74 12.5201 19.75 12.4901 19.76L10.9101 20.28C7.34005 21.43 5.66005 20.57 4.50005 17L3.22005 13.05C2.07005 9.47001 2.92005 7.79 6.49005 6.64L7.7683 6.22383ZM9.71706 5.34401C10.4268 3.91637 11.4788 3.25 13.1199 3.25C13.7599 3.25 14.4999 3.35 15.3299 3.55L16.9999 3.94C18.9399 4.39 20.1199 5.05 20.7199 6.02C21.3199 6.99 21.3799 8.34 20.93 10.27L19.95 14.45C19.19 17.72 17.8399 18.91 15.1199 18.64C14.6599 18.6 14.15 18.52 13.6099 18.39L11.93 17.99C10.4341 17.6338 9.36888 17.1602 8.6829 16.4836C7.64448 15.4508 7.48399 13.9468 8.02005 11.67L9.00005 7.48C9.19005 6.64 9.42005 5.97 9.68005 5.44C9.69458 5.40853 9.70691 5.37647 9.71706 5.34401Z" fill="black"/>
</svg>
