<svg viewBox="0 0 24 24" fill="none" xmlns="http://www.w3.org/2000/svg">
<path fill-rule="evenodd" clip-rule="evenodd" d="M21.25 11.9998C21.25 6.8041 16.9662 2.60872 11.7372 2.75366C6.91722 2.88709 2.88709 6.9172 2.75366 11.7372C2.60872 16.9661 6.8041 21.25 11.9998 21.25H13.4987C14.4761 21.25 15.1826 20.3137 14.9133 19.3731L14.6276 18.3716C14.0851 16.4735 15.5105 14.5832 17.4854 14.5832H19.7777C20.5913 14.5832 21.25 13.9245 21.25 13.1109V11.9998ZM11.6957 1.25423C17.7714 1.08584 22.75 5.9618 22.75 11.9998V13.1109C22.75 14.7529 21.4198 16.0832 19.7777 16.0832H17.4854C16.507 16.0832 15.8012 17.0196 16.0698 17.9594L16.3553 18.9601C16.8991 20.8595 15.4724 22.75 13.4987 22.75H11.9998C5.9618 22.75 1.08584 17.7714 1.25423 11.6957M11.6957 1.25423C6.07983 1.40971 1.40971 6.07983 1.25423 11.6957L11.6957 1.25423ZM8.89709 6.47718C8.89255 5.85704 9.39596 5.36766 9.99922 5.36766C10.6151 5.36766 11.095 5.86501 11.1028 6.45749L11.103 6.4706C11.103 7.07981 10.6091 7.57354 9.99999 7.57354C9.39299 7.57354 8.90066 7.08335 8.89709 6.47718ZM14.7794 7.23042C14.7749 6.61028 15.2783 6.1209 15.8816 6.1209C16.4975 6.1209 16.9774 6.61826 16.9852 7.21074L16.9854 7.22385C16.9854 7.83306 16.4915 8.32679 15.8823 8.32679C15.2753 8.32679 14.783 7.8366 14.7794 7.23042ZM5.36767 11.1831C5.36314 10.5629 5.86655 10.0735 6.4698 10.0735C7.08573 10.0735 7.56562 10.5709 7.57342 11.1634L7.57359 11.1765C7.57359 11.7857 7.07973 12.2794 6.47058 12.2794C5.86358 12.2794 5.37125 11.7892 5.36767 11.1831ZM7.72061 17.0654C7.71608 16.4453 8.21949 15.9559 8.82274 15.9559C9.43864 15.9559 9.91853 16.4532 9.92636 17.0457L9.92653 17.0588C9.92653 17.668 9.43267 18.1618 8.82352 18.1618C8.21652 18.1618 7.72419 17.6716 7.72061 17.0654Z" fill="black"/>
</svg>
