<svg viewBox="0 0 24 24" fill="none" xmlns="http://www.w3.org/2000/svg">
<path fill-rule="evenodd" clip-rule="evenodd" d="M11.862 3.51245C16.3384 1.62762 20.8571 4.00032 22.7888 8.23439C22.9368 8.55881 23.103 8.88268 22.9094 9.23998C22.8059 9.43092 22.6247 9.56763 22.4127 9.61474C20.1594 10.1155 17.5903 10.0178 15.5474 9.79003C16.3834 11.7622 17.5657 15.9091 16.4886 22.0129C16.4253 22.3713 16.1139 22.6326 15.75 22.6326H9.25C8.9798 22.6326 8.73048 22.4873 8.59735 22.2521C8.46422 22.017 8.46786 21.7284 8.60688 21.4967C10.4614 18.4059 11.75 14.599 10.9689 10.9732C10.7928 11.2156 10.6029 11.4675 10.4005 11.7232C9.20282 13.2361 7.45145 15.0337 5.45603 15.6037C5.07746 15.7119 4.67971 15.5089 4.54516 15.1389C3.39718 11.982 4.21543 9.52819 5.26649 7.93206C4.00563 8.21638 1.98331 8.58468 1.12596 7.29862C0.965191 7.05746 0.957763 6.74526 1.10688 6.49673C3.41731 2.64601 7.9616 0.62634 11.862 3.51245ZM12.0518 9.35078C12.1193 9.52356 12.2054 9.76778 12.2925 10.0788C13.3299 13.7838 12.2837 17.82 10.5339 21.1326H15.1138C16.0156 15.2758 14.7105 11.5307 14.0152 10.0347C13.9195 9.82879 13.8352 9.66557 13.7697 9.54549C13.3278 9.47341 12.9371 9.4013 12.6125 9.33717C12.4263 9.3004 12.2617 9.26621 12.1213 9.23611C12.0993 9.27263 12.0761 9.31088 12.0518 9.35078ZM21.1563 8.31812C20.2946 8.44016 19.3918 8.48378 18.5 8.47537V7.38263C18.5 6.96842 18.1642 6.63263 17.75 6.63263C17.3358 6.63263 17 6.96842 17 7.38263V8.41549C15.299 8.29914 13.6035 8.05813 11.9454 7.65835L11.9344 7.65564L11.9317 7.65499C11.6005 7.57228 11.2551 7.72387 11.0916 8.0235C10.928 8.32313 11.0906 8.02534 11.0906 8.02534C11.0906 8.02534 11.0724 8.05804 11.062 8.07658C10.4965 9.0806 9.83108 10.0428 9.10399 10.9428C8.88614 10.4714 8.55887 9.91367 7.93536 10.2018C7.55936 10.3756 7.3954 10.8212 7.56916 11.1972L8.01673 12.1657C7.29993 12.8911 6.5207 13.5182 5.7263 13.8991C5.06728 11.4042 6.01283 8.49529 8.16366 7.0083L8.16791 7.00538C8.48607 6.7919 8.59225 6.37274 8.41376 6.03344C8.23495 5.69352 7.82273 5.54581 7.4661 5.68836C6.00115 6.26016 4.39208 6.948 2.78512 6.6516C4.66795 3.8588 8.47542 2.5123 11.24 4.93277L11.2462 4.93819L11.247 4.93888C11.4706 5.14115 11.7938 5.18982 12.0672 5.06224C15.6645 3.38349 19.3281 4.90655 21.1563 8.31812Z" fill="black"/>
</svg>
