<svg viewBox="0 0 24 24" fill="none" xmlns="http://www.w3.org/2000/svg">
<path d="M11.8854 10C12.2996 10 12.6354 10.3358 12.6354 10.75V13.75C12.6354 14.1642 12.2996 14.5 11.8854 14.5C11.4712 14.5 11.1354 14.1642 11.1354 13.75V10.75C11.1354 10.3358 11.4712 10 11.8854 10Z" fill="black"/>
<path fill-rule="evenodd" clip-rule="evenodd" d="M17.6042 16C16.1387 11.8536 15.2919 7.2113 14.8971 4.61663C14.6715 3.1336 13.4042 2 11.8811 2C10.3625 2 9.09808 3.12753 8.86556 4.60373C8.46099 7.17232 7.59404 11.7827 6.09034 16H5.88538C5.47116 16 5.13538 16.3358 5.13538 16.75C5.13538 17.0443 5.3049 17.299 5.55162 17.4218C5.14875 18.4214 4.70678 19.3811 4.22318 20.2654C3.59132 21.4209 4.35934 23 5.79393 23H8.38536C9.38791 23 10.0461 22.1946 10.2218 21.4232C10.4616 20.3701 11.1203 20 11.6354 20C12.1504 20 12.8091 20.3701 13.0489 21.4232C13.2246 22.1946 13.8828 23 14.8854 23H17.8854C19.3554 23 20.1051 21.3586 19.4569 20.2049C18.9821 19.3598 18.5481 18.4293 18.1525 17.451C18.4348 17.3434 18.6354 17.0701 18.6354 16.75C18.6354 16.3358 18.2996 16 17.8854 16H17.6042ZM11.8811 3.5C11.1249 3.5 10.4687 4.06619 10.3473 4.83712C9.95882 7.30348 9.1303 11.7678 7.67878 16L16.0177 16C14.5996 11.8209 13.7917 7.32368 13.4142 4.84225C13.2966 4.0692 12.64 3.5 11.8811 3.5ZM16.56 17.5L7.13276 17.5C6.65941 18.7243 6.12982 19.9051 5.53926 20.9851C5.48043 21.0927 5.48282 21.2254 5.54625 21.3401C5.6075 21.4508 5.69802 21.5 5.79393 21.5H8.38536C8.4447 21.5 8.51201 21.478 8.58446 21.4097C8.66123 21.3373 8.72878 21.2239 8.75925 21.0901C9.12872 19.4677 10.3102 18.5 11.6354 18.5C12.9605 18.5 14.142 19.4677 14.5115 21.0901C14.5419 21.2239 14.6095 21.3373 14.6863 21.4097C14.7587 21.478 14.826 21.5 14.8854 21.5H17.8854C17.9808 21.5 18.0773 21.4497 18.1437 21.3259C18.2125 21.1976 18.2122 21.0518 18.1491 20.9396C17.5592 19.8894 17.031 18.7218 16.56 17.5Z" fill="black"/>
</svg>
