<svg viewBox="0 0 24 24" fill="none" xmlns="http://www.w3.org/2000/svg">
<path fill-rule="evenodd" clip-rule="evenodd" d="M10.25 15.75C9.83579 15.75 9.5 15.4142 9.5 15V8.75C9.5 8.19772 9.94772 7.75 10.5 7.75H12.5C14.1569 7.75 15.5 9.09315 15.5 10.75C15.5 12.4069 14.1569 13.75 12.5 13.75H11V15C11 15.4142 10.6642 15.75 10.25 15.75ZM11 12.25V9.25H12.5C13.3284 9.25 14 9.92157 14 10.75C14 11.5784 13.3284 12.25 12.5 12.25H11Z" fill="black"/>
<path fill-rule="evenodd" clip-rule="evenodd" d="M21.1115 8.33441C20.04 3.60029 15.9848 1.25269 12.0042 1.25C8.02361 1.24731 3.96543 3.5903 2.8885 8.32441C1.6458 13.8139 5.07178 18.3836 7.86953 21.08L7.87048 21.0809C10.1799 23.2989 13.8191 23.3008 16.1204 21.08C18.9283 18.3834 22.3542 13.8239 21.1115 8.33441ZM12.0032 2.75C8.5865 2.74769 5.24463 4.73032 4.35141 8.65591C3.29435 13.3261 6.18807 17.3762 8.91018 19.9997C10.6407 21.661 13.3607 21.659 15.0791 20.0004L15.0805 19.999C17.8125 17.3756 20.7056 13.3354 19.6485 8.66556C18.76 4.73971 15.4202 2.75231 12.0032 2.75Z" fill="black"/>
</svg>
