<svg viewBox="0 0 24 24" fill="none" xmlns="http://www.w3.org/2000/svg">
<path d="M17.6076 23C16.4492 23 15.2293 22.7237 13.9683 22.1916C12.7381 21.6698 11.4977 20.9535 10.288 20.0837C9.08854 19.2037 7.9301 18.2214 6.83318 17.147C5.74651 16.0521 4.76235 14.8958 3.89096 13.7088C3.00932 12.4809 2.30196 11.253 1.79963 10.066C1.26654 8.79721 1 7.5693 1 6.41302C1 5.61488 1.14352 4.85767 1.42032 4.15163C1.70736 3.42512 2.16869 2.74977 2.79404 2.16651C3.58341 1.38884 4.48555 1 5.44921 1C5.84902 1 6.25909 1.09209 6.60764 1.25581C7.00746 1.44 7.34576 1.71628 7.5918 2.08465L9.97018 5.4307C10.1855 5.72744 10.3495 6.01395 10.4623 6.30047C10.5955 6.60744 10.6673 6.91442 10.6673 7.21116C10.6673 7.6 10.5545 7.9786 10.3392 8.33674C10.1855 8.61302 9.94967 8.90977 9.65238 9.20651L8.95527 9.93302C8.96552 9.96372 8.97577 9.98419 8.98602 10.0047C9.10904 10.2195 9.35508 10.5879 9.82665 11.1405C10.329 11.7135 10.8006 12.2353 11.2721 12.7163C11.877 13.3098 12.3793 13.7805 12.8509 14.1693C13.4352 14.6605 13.8145 14.906 14.0401 15.0186L14.0196 15.0698L14.7679 14.333C15.0857 14.0158 15.3933 13.7805 15.6906 13.627C16.2544 13.2791 16.972 13.2177 17.6897 13.5144C17.9562 13.627 18.2432 13.7805 18.5508 13.9953L21.9543 16.4102C22.3336 16.666 22.6104 16.9935 22.7745 17.3823C22.9282 17.7712 23 18.1293 23 18.4874C23 18.9786 22.8872 19.4698 22.6719 19.9302C22.4567 20.3907 22.1901 20.7898 21.8518 21.1581C21.2675 21.8028 20.6319 22.2633 19.8938 22.56C19.1864 22.8465 18.4175 23 17.6076 23ZM5.44921 2.53488C4.88537 2.53488 4.36254 2.78047 3.86021 3.27163C3.38863 3.71163 3.06058 4.19256 2.85555 4.71442C2.64026 5.24651 2.53774 5.8093 2.53774 6.41302C2.53774 7.36465 2.76328 8.39814 3.21435 9.46233C3.67568 10.547 4.32153 11.6726 5.14166 12.7981C5.96179 13.9237 6.89469 15.0186 7.91985 16.0521C8.94501 17.0651 10.0522 18.0065 11.1901 18.8354C12.2973 19.6437 13.4352 20.2986 14.5629 20.7693C16.3159 21.5163 17.9562 21.6902 19.3094 21.1274C19.8322 20.9126 20.2936 20.5851 20.7139 20.1144C20.9497 19.8586 21.1342 19.5823 21.288 19.2549C21.411 18.9991 21.4725 18.733 21.4725 18.467C21.4725 18.3033 21.4418 18.1395 21.3597 17.9553C21.329 17.894 21.2675 17.7814 21.0727 17.6484L17.6692 15.2335C17.4641 15.0902 17.2796 14.9879 17.1053 14.9163C16.8798 14.8242 16.7875 14.7321 16.439 14.947C16.2339 15.0493 16.0494 15.2028 15.8444 15.4074L15.0652 16.1749C14.6654 16.5637 14.0503 16.6558 13.5788 16.4819L13.302 16.3591C12.8816 16.134 12.3896 15.786 11.8462 15.3256C11.3541 14.906 10.8211 14.4149 10.1752 13.7805C9.67288 13.2688 9.17055 12.7265 8.64772 12.1228C8.16589 11.56 7.81734 11.0791 7.60205 10.68L7.47903 10.373C7.41752 10.1377 7.39702 10.0047 7.39702 9.86139C7.39702 9.49302 7.53029 9.16558 7.78658 8.90977L8.55545 8.11163C8.76049 7.90698 8.91426 7.71256 9.01678 7.5386C9.09879 7.40558 9.12954 7.29302 9.12954 7.1907C9.12954 7.10884 9.09879 6.98605 9.04753 6.86326C8.97577 6.69953 8.863 6.51535 8.71948 6.32093L6.3411 2.96465C6.23858 2.8214 6.11556 2.71907 5.96179 2.64744C5.79776 2.57581 5.62349 2.53488 5.44921 2.53488ZM14.0196 15.08L13.8555 15.7758L14.1323 15.0595C14.0811 15.0493 14.0401 15.0595 14.0196 15.08Z" fill="black"/>
</svg>
