<svg viewBox="0 0 24 24" fill="none" xmlns="http://www.w3.org/2000/svg">
<path fill-rule="evenodd" clip-rule="evenodd" d="M6.54712 4.14273C5.51786 4.73266 4.75 6.06748 4.75 8.23331V15.749C4.75 17.9219 5.51797 19.2575 6.54841 19.8508C7.58117 20.4455 9.13455 20.4429 11.0282 19.376L17.5744 15.6057C19.471 14.5166 20.25 13.187 20.25 12.0123C20.25 10.8375 19.4718 9.5084 17.5752 8.41924L11.0261 4.64733C9.13131 3.55934 7.57803 3.55186 6.54712 4.14273ZM5.80122 2.84133C7.45296 1.89463 9.59975 2.09847 11.7731 3.34656L18.3222 7.11847C20.4937 8.36563 21.75 10.1119 21.75 12.0123C21.75 13.9127 20.4941 15.6588 18.3224 16.9059L11.768 20.6809C9.59469 21.9064 7.44934 22.1005 5.79994 21.1508C4.14765 20.1994 3.25 18.2487 3.25 15.749V8.23331C3.25 5.74055 4.14777 3.78902 5.80122 2.84133Z" fill="black"/>
</svg>
