<svg viewBox="0 0 24 24" fill="none" xmlns="http://www.w3.org/2000/svg">
<path d="M10.5998 7.2506C11.5769 6.4894 12.9478 6.49491 13.9187 7.26393L14.0868 7.39708C15.2414 8.31161 16.8831 8.27654 17.9976 7.31352C18.8766 6.55408 20.1795 6.55408 21.0584 7.31352L22.5097 8.56751C22.8231 8.83832 23.2967 8.80378 23.5675 8.49036C23.8383 8.17693 23.8038 7.70332 23.4904 7.43251L22.0391 6.17852C20.5969 4.93242 18.4591 4.93242 17.0169 6.17852C16.4473 6.67071 15.6083 6.68864 15.0181 6.22122L14.85 6.08807C13.3369 4.88965 11.2006 4.88107 9.67797 6.06731L9.54559 6.17044C8.89281 6.679 7.97488 6.66771 7.3348 6.14326C5.83444 4.91393 3.67897 4.90047 2.16338 6.11098L0.531971 7.41398C0.20832 7.67249 0.155505 8.14441 0.414005 8.46806C0.672506 8.79172 1.14443 8.84453 1.46809 8.58603L3.09949 7.28302C4.06212 6.51417 5.43117 6.52271 6.38413 7.30352C7.56635 8.27219 9.26177 8.29303 10.4674 7.35373L10.5998 7.2506Z" fill="black"/>
<path d="M13.9187 12.2639C12.9478 11.4949 11.5769 11.4894 10.5998 12.2506L10.4674 12.3537C9.26177 13.293 7.56635 13.2722 6.38413 12.3035C5.43117 11.5227 4.06212 11.5142 3.09949 12.283L1.46809 13.586C1.14443 13.8445 0.672506 13.7917 0.414005 13.4681C0.155505 13.1444 0.20832 12.6725 0.531971 12.414L2.16338 11.111C3.67897 9.90047 5.83444 9.91393 7.3348 11.1433C7.97488 11.6677 8.89281 11.679 9.54559 11.1704L9.67797 11.0673C11.2006 9.88107 13.3369 9.88965 14.85 11.0881L15.0181 11.2212C15.6083 11.6886 16.4473 11.6707 17.0169 11.1785C18.4591 9.93242 20.5969 9.93242 22.0391 11.1785L23.4904 12.4325C23.8038 12.7033 23.8383 13.1769 23.5675 13.4904C23.2967 13.8038 22.8231 13.8383 22.5097 13.5675L21.0584 12.3135C20.1795 11.5541 18.8766 11.5541 17.9976 12.3135C16.8831 13.2765 15.2414 13.3116 14.0868 12.3971L13.9187 12.2639Z" fill="black"/>
<path d="M13.9187 17.2639C12.9478 16.4949 11.5769 16.4894 10.5998 17.2506L10.4674 17.3537C9.26177 18.293 7.56635 18.2722 6.38413 17.3035C5.43117 16.5227 4.06212 16.5142 3.09949 17.283L1.46809 18.586C1.14443 18.8445 0.672506 18.7917 0.414005 18.4681C0.155505 18.1444 0.20832 17.6725 0.531971 17.414L2.16338 16.111C3.67897 14.9005 5.83444 14.9139 7.3348 16.1433C7.97488 16.6677 8.89281 16.679 9.54559 16.1704L9.67797 16.0673C11.2006 14.8811 13.3369 14.8897 14.85 16.0881L15.0181 16.2212C15.6083 16.6886 16.4473 16.6707 17.0169 16.1785C18.4591 14.9324 20.5969 14.9324 22.0391 16.1785L23.4904 17.4325C23.8038 17.7033 23.8383 18.1769 23.5675 18.4904C23.2967 18.8038 22.8231 18.8383 22.5097 18.5675L21.0584 17.3135C20.1795 16.5541 18.8766 16.5541 17.9976 17.3135C16.8831 18.2765 15.2414 18.3116 14.0868 17.3971L13.9187 17.2639Z" fill="black"/>
</svg>
