<svg viewBox="0 0 24 24" fill="none" xmlns="http://www.w3.org/2000/svg">
<path d="M14.5217 2.77966C15.2276 2.07377 16.3724 2.07377 17.0783 2.77966L21.7197 7.42102C22.4262 8.12585 22.4262 9.27072 21.7199 9.97876L21.1136 10.5841C20.752 10.9474 20.2501 11.1393 19.7382 11.1119L17.629 10.9992L15.0633 13.5653C15.0345 13.5942 15.0134 13.6291 15.0014 13.6672L14.9905 13.7262L14.7284 17.8873C14.7004 18.3118 14.5199 18.7117 14.2193 19.0123L13.5549 19.6768C12.6757 20.5544 11.2522 20.5549 10.3737 19.6763C10.3094 19.6121 10.2501 19.5528 10.195 19.4977L9.68509 18.9878C9.58326 18.8859 9.49149 18.7942 9.38913 18.6918L9.16419 18.4669C9.03854 18.3412 8.88855 18.1912 8.69355 17.9962C8.64371 17.9464 8.59721 17.8998 8.55368 17.8563L8.32593 17.6286C8.29311 17.5957 8.26262 17.5653 8.23417 17.5368L8.129 17.4312L4.03034 21.5293C3.76407 21.7956 3.34742 21.8198 3.05381 21.602L2.96967 21.5293C2.67678 21.2364 2.67678 20.7616 2.96967 20.4687L7.06702 16.3702L7.02338 16.3265L6.89609 16.1992C6.8497 16.1529 6.80718 16.1103 6.76783 16.071L5.05945 14.3629C4.97983 14.2833 4.90482 14.2084 4.82123 14.1249C3.94367 13.2458 3.94505 11.8223 4.82367 10.9437L5.48667 10.2807C5.78726 9.98008 6.18722 9.79957 6.61387 9.77149L10.7717 9.50961C10.8341 9.5055 10.8919 9.47944 10.9347 9.43668L13.5 6.87024L13.3882 4.76444C13.3623 4.30761 13.5111 3.86106 13.7996 3.51358L13.9142 3.38809L14.5217 2.77966ZM14.263 8.23026L11.9953 10.4973C11.6947 10.7979 11.2948 10.9784 10.8681 11.0065L6.71027 11.2684C6.64787 11.2725 6.5901 11.2986 6.54734 11.3413L5.88434 12.0043C5.59089 12.2978 5.59042 12.7723 5.88208 13.0644L6.7609 13.9428C7.4001 14.5819 7.40011 14.5819 7.95673 15.1386L8.08368 15.2655C8.16377 15.3456 8.23488 15.4167 8.29767 15.4794L8.46186 15.6435C8.4853 15.6669 8.50683 15.6885 8.52655 15.7082L9.75422 16.9355C9.88422 17.0655 9.99422 17.1756 10.0903 17.2717L10.8517 18.0331C10.9256 18.1069 11.007 18.1883 11.1021 18.2834L11.4343 18.6157C11.7271 18.9084 12.2016 18.9083 12.4947 18.6157L13.1587 17.9517C13.2014 17.9089 13.2275 17.8511 13.2315 17.7908L13.4934 13.6328C13.5197 13.2073 13.7012 12.8061 14.0027 12.5047L16.27 10.2372L14.263 8.23026ZM16.0177 3.84033C15.8976 3.72023 15.7024 3.72024 15.5828 3.83991L14.9741 4.44959C14.9128 4.51058 14.881 4.59374 14.886 4.68216L15 6.84525L17.653 9.49826L19.8181 9.61408C19.8832 9.61756 19.9478 9.59997 20.0019 9.56494L20.0521 9.52423L20.659 8.91831C20.7798 8.79727 20.7798 8.60215 20.6597 8.48233L16.0177 3.84033Z" fill="black"/>
</svg>
