<svg viewBox="0 0 24 24" fill="none" xmlns="http://www.w3.org/2000/svg">
<path d="M8 9H16C16.41 9 16.75 8.66 16.75 8.25C16.75 7.84 16.41 7.5 16 7.5H8C7.59 7.5 7.25 7.84 7.25 8.25C7.25 8.66 7.59 9 8 9Z" fill="black"/>
<path fill-rule="evenodd" clip-rule="evenodd" d="M10.19 21.4C10.71 22.1 11.47 22.5 12.25 22.5C13.03 22.5 13.79 22.1 14.31 21.4L15.32 20.05C15.53 19.77 15.82 19.61 16.12 19.59C16.44 19.56 16.73 19.7 16.97 19.96C18.42 21.5 19.52 21.38 20.05 21.17C20.59 20.95 21.5 20.26 21.5 18.05V6.79C21.5 2.35 20.22 1 16.03 1H8.47C4.28 1 3 2.35 3 6.79V18.05C3 20.27 3.91 20.96 4.45 21.17C4.98 21.38 6.09 21.5 7.53 19.96L6.98 19.45L7.55 19.96C7.79 19.71 8.09 19.58 8.39 19.59C8.69 19.61 8.97 19.77 9.18 20.05L10.19 21.4ZM8.46 18.08H8.33C7.64 18.08 6.97 18.38 6.43 18.93C5.67 19.74 5.17 19.84 5 19.77C4.76 19.68 4.5 19.1 4.5 18.05C4.5 11.9854 4.5 8.92597 4.5 6.79C4.5 3.18 5.13 2.5 8.47 2.5H16.02C19.36 2.5 19.99 3.18 19.99 6.79C19.99 8.92885 19.99 12 19.99 18.05C19.99 19.09 19.73 19.67 19.49 19.77C19.32 19.84 18.82 19.74 18.06 18.93C17.52 18.35 16.78 18.04 16.04 18.08C15.29 18.12 14.6 18.51 14.12 19.14L13.11 20.49C12.62 21.14 11.87 21.14 11.38 20.49L10.37 19.14C9.9 18.51 9.2 18.12 8.46 18.08Z" fill="black"/>
<path d="M8 13H14C14.41 13 14.75 12.66 14.75 12.25C14.75 11.84 14.41 11.5 14 11.5H8C7.59 11.5 7.25 11.84 7.25 12.25C7.25 12.66 7.59 13 8 13Z" fill="black"/>
</svg>
