<svg viewBox="0 0 24 24" fill="none" xmlns="http://www.w3.org/2000/svg">
<path d="M12.0011 2C13.8389 2 15.4523 3.06935 16.1848 4.64586L16.2469 4.79135C17.9825 4.3449 19.853 4.91223 21.02 6.3586L21.1681 6.55227C22.1781 7.9456 22.2752 9.86811 21.4223 11.3718C20.8638 12.3568 20.0198 13.0389 19.0086 13.3955L18.9421 13.4162L18.9386 17.9502C18.936 20.115 17.2369 21.8826 15.0996 21.9944L14.8844 22H9.11025C6.86991 22 5.05474 20.1828 5.05609 17.942L5.05956 13.4194L4.95193 13.3841C4.04856 13.0535 3.27884 12.4595 2.73152 11.6233L2.58783 11.3892C1.7261 9.89152 1.81767 7.96555 2.82393 6.56741C3.93549 5.02321 5.8035 4.3697 7.55741 4.7451L7.75368 4.79135L7.81808 4.6454C8.52057 3.13468 10.0309 2.08998 11.7727 2.00554L12.0011 2ZM17.3161 17.4054H6.6769L6.67775 17.9432C6.67689 19.232 7.67726 20.2871 8.94363 20.3728L9.11025 20.3784H14.8844C16.2267 20.3784 17.3153 19.2906 17.3169 17.9485L17.3161 17.4054ZM12.0011 3.62162C10.5582 3.62162 9.335 4.63072 9.07303 5.99701C8.97259 6.52086 8.40241 6.80668 7.92257 6.57371C6.60354 5.93331 5.01414 6.30049 4.14011 7.51471C3.50721 8.39408 3.44831 9.63306 3.99352 10.5807C4.44025 11.3574 5.15064 11.8357 6.02344 12.0025C6.40591 12.0756 6.6824 12.4102 6.68208 12.7996L6.67904 15.7838H17.3182L17.3213 12.7928C17.3216 12.4425 17.5459 12.1368 17.8696 12.0263L17.9811 11.9969C18.8606 11.8301 19.5682 11.354 20.0117 10.5719C20.5528 9.61792 20.4903 8.38022 19.8552 7.50412C18.9811 6.29886 17.3952 5.9355 16.0795 6.57381C15.5995 6.80668 15.0293 6.52053 14.9291 5.99652C14.6682 4.63098 13.4444 3.62162 12.0011 3.62162Z" fill="black"/>
</svg>
