<svg viewBox="0 0 24 24" fill="none" xmlns="http://www.w3.org/2000/svg">
<path d="M12.75 12.5C13.1642 12.5 13.5 12.8358 13.5 13.25V15.25C13.5 15.6642 13.1642 16 12.75 16C12.3358 16 12 15.6642 12 15.25V13.25C12 12.8358 12.3358 12.5 12.75 12.5Z" fill="black"/>
<path d="M9.5 13.25C9.5 12.8358 9.16421 12.5 8.75 12.5C8.33579 12.5 8 12.8358 8 13.25V15.25C8 15.6642 8.33579 16 8.75 16C9.16421 16 9.5 15.6642 9.5 15.25V13.25Z" fill="black"/>
<path fill-rule="evenodd" clip-rule="evenodd" d="M18.4238 4.65191C18.599 3.27884 19.7674 2.25 21.1516 2.25H23C23.4142 2.25 23.75 2.58579 23.75 3C23.75 3.41421 23.4142 3.75 23 3.75H21.1516C20.5225 3.75 19.9913 4.21765 19.9117 4.84178L19.5447 7.71801L18.4368 17.5328C18.1656 19.9347 16.1339 21.75 13.7168 21.75H7.52084C5.18201 21.75 3.19122 20.0475 2.82835 17.737L1.62192 10.0552C1.35989 8.38677 2.64972 6.87857 4.33863 6.87857H18.1396L18.4238 4.65191ZM17.9606 8.37857H4.33863C3.57094 8.37857 2.98466 9.06412 3.10376 9.82251L4.31019 17.5042C4.55847 19.0851 5.92058 20.25 7.52084 20.25H13.7168C15.3706 20.25 16.7607 19.008 16.9462 17.3646L17.9606 8.37857Z" fill="black"/>
</svg>
