<svg viewBox="0 0 24 24" fill="none" xmlns="http://www.w3.org/2000/svg">
<path d="M3.98326 13.4071C4.70645 10.0323 6.13849 7.56282 7.99379 5.93943C9.84543 4.31925 12.1655 3.5 14.7499 3.5C15.8608 3.5 16.9505 3.83551 17.7439 4.4173C18.5244 4.98971 18.9999 5.77998 18.9999 6.75C18.9999 7.76143 18.4926 8.62975 17.8015 9.04438C17.1594 9.42966 16.2487 9.48858 15.2184 8.66435L14.9455 8.44602L14.6028 8.51456C13.7962 8.67588 13.1766 9.10143 12.8276 9.71521C12.4847 10.3183 12.4501 11.0206 12.6454 11.6574C13.0408 12.9468 14.3607 14 16.2499 14H21.7499C22.1641 14 22.4999 13.6642 22.4999 13.25C22.4999 12.8358 22.1641 12.5 21.7499 12.5H16.2499C14.9391 12.5 14.259 11.8032 14.0795 11.2176C13.9872 10.9169 14.0213 10.6505 14.1316 10.4567C14.2092 10.3201 14.3501 10.1745 14.6007 10.0725C15.9782 11.0158 17.4292 11.0171 18.5733 10.3306C19.7572 9.62025 20.4999 8.23857 20.4999 6.75C20.4999 5.22002 19.7254 4.01029 18.6309 3.2077C17.5493 2.41449 16.1391 2 14.7499 2C11.8343 2 9.15439 2.93075 7.00603 4.81057C4.86133 6.68718 3.29337 9.46772 2.51656 13.0929C2.42977 13.4979 2.68775 13.8966 3.09276 13.9834C3.49778 14.0701 3.89647 13.8122 3.98326 13.4071Z" fill="black"/>
<path d="M10.6742 16.9258C11.5728 16.2269 12.8409 16.2635 13.6976 17.0132L13.823 17.123C15.2126 18.3388 17.2874 18.3388 18.677 17.123C19.543 16.3653 20.8481 16.4087 21.6617 17.2223L21.7197 17.2803C22.0126 17.5732 22.4875 17.5732 22.7804 17.2803C23.0732 16.9874 23.0732 16.5126 22.7804 16.2197L22.7224 16.1617C21.3503 14.7896 19.1495 14.7164 17.6893 15.9941C16.8652 16.7151 15.6348 16.7151 14.8108 15.9941L14.6854 15.8843C13.2878 14.6614 11.2192 14.6016 9.75325 15.7418L9.09624 16.2528C8.32621 16.8517 7.24101 16.8259 6.50034 16.191C5.20448 15.0803 3.30187 15.048 1.96913 16.1142L1.28151 16.6643C0.95806 16.9231 0.905619 17.3951 1.16438 17.7185C1.42313 18.042 1.8951 18.0944 2.21855 17.8356L2.90617 17.2855C3.67619 16.6695 4.77545 16.6882 5.52415 17.3299C6.80611 18.4287 8.68437 18.4734 10.0172 17.4368L10.6742 16.9258Z" fill="black"/>
<path d="M13.6976 21.0132C12.8409 20.2635 11.5728 20.2269 10.6742 20.9258L10.0172 21.4368C8.68437 22.4734 6.80611 22.4287 5.52415 21.3299C4.77545 20.6882 3.67619 20.6695 2.90617 21.2855L2.21855 21.8356C1.8951 22.0944 1.42313 22.042 1.16438 21.7185C0.905619 21.3951 0.95806 20.9231 1.28151 20.6643L1.96913 20.1142C3.30187 19.048 5.20448 19.0803 6.50034 20.191C7.24101 20.8259 8.32621 20.8517 9.09624 20.2528L9.75325 19.7418C11.2192 18.6016 13.2878 18.6614 14.6854 19.8843L14.8108 19.9941C15.6348 20.7151 16.8652 20.7151 17.6893 19.9941C19.1495 18.7164 21.3503 18.7896 22.7224 20.1617L22.7804 20.2197C23.0732 20.5126 23.0732 20.9874 22.7804 21.2803C22.4875 21.5732 22.0126 21.5732 21.7197 21.2803L21.6617 21.2223C20.8481 20.4087 19.543 20.3653 18.677 21.123C17.2874 22.3388 15.2126 22.3388 13.823 21.123L13.6976 21.0132Z" fill="black"/>
<path d="M8.78026 9.28033C9.07316 8.98744 9.07316 8.51256 8.78026 8.21967C8.48737 7.92678 8.0125 7.92678 7.7196 8.21967C6.55453 9.38474 6.01849 11.0834 5.52233 13.0681C5.42186 13.4699 5.66619 13.8771 6.06803 13.9776C6.46988 14.0781 6.87708 13.8337 6.97754 13.4319C7.48138 11.4166 7.94533 10.1153 8.78026 9.28033Z" fill="black"/>
</svg>
