<svg viewBox="0 0 24 24" fill="none" xmlns="http://www.w3.org/2000/svg">
<path d="M15.4903 9.71032C15.7832 9.41743 15.7832 8.94256 15.4903 8.64966C15.1974 8.35677 14.7226 8.35677 14.4297 8.64966L10.66 12.4193L9.58032 11.3397C9.28742 11.0468 8.81255 11.0468 8.51966 11.3397C8.22676 11.6326 8.22676 12.1074 8.51966 12.4003L10.1297 14.0103C10.4226 14.3032 10.8974 14.3032 11.1903 14.0103L15.4903 9.71032Z" fill="black"/>
<path fill-rule="evenodd" clip-rule="evenodd" d="M13.7869 1.52539C13.2559 1.33171 12.6107 1.2475 12.0025 1.2475C11.3951 1.2475 10.7522 1.33146 10.2276 1.5274L10.2256 1.52816L5.2373 3.4075L5.23635 3.40785C4.48986 3.68725 3.85376 4.24762 3.40738 4.8914C2.96092 5.53531 2.65997 6.32655 2.65997 7.12V14.55C2.65997 15.2889 2.89887 16.0878 3.24871 16.7833C3.59868 17.479 4.09832 18.1478 4.69132 18.591L8.98929 21.7995L8.99065 21.8005C9.84834 22.4447 10.9467 22.745 12.01 22.745C13.0733 22.745 14.1717 22.4447 15.0294 21.8004L15.0307 21.7995L19.329 18.5908C19.922 18.1476 20.4213 17.479 20.7712 16.7833C21.1211 16.0878 21.36 15.2889 21.36 14.55V7.12C21.36 6.32267 21.0598 5.52916 20.613 4.88331C20.1663 4.23759 19.5296 3.67684 18.7826 3.3975L13.7932 1.52767L13.7869 1.52539ZM10.7524 2.93259L10.7533 2.93223C11.0587 2.81838 11.5103 2.7475 12.0025 2.7475C12.4927 2.7475 12.9513 2.81786 13.2701 2.93356L18.2573 4.8025C18.6603 4.95318 19.0686 5.28744 19.3794 5.73669C19.6901 6.18584 19.86 6.68733 19.86 7.12V14.55C19.86 14.9911 19.7089 15.5572 19.4312 16.1092C19.1537 16.661 18.788 17.1224 18.431 17.3892L14.1313 20.599L14.1293 20.6005C13.5772 21.0156 12.8112 21.245 12.01 21.245C11.2088 21.245 10.4428 21.0156 9.89066 20.6005L5.58863 17.389C5.23173 17.1221 4.86618 16.6608 4.58874 16.1092C4.31108 15.5572 4.15997 14.9911 4.15997 14.55V7.12C4.15997 6.69344 4.32903 6.19468 4.64006 5.74609C4.951 5.29765 5.35955 4.96322 5.76265 4.8125L10.7524 2.93259Z" fill="black"/>
</svg>
