<svg viewBox="0 0 24 24" fill="none" xmlns="http://www.w3.org/2000/svg">
<path fill-rule="evenodd" clip-rule="evenodd" d="M12 8.25C9.92893 8.25 8.25 9.92893 8.25 12C8.25 14.0711 9.92893 15.75 12 15.75C14.0711 15.75 15.75 14.0711 15.75 12C15.75 9.92893 14.0711 8.25 12 8.25ZM9.75 12C9.75 10.7574 10.7574 9.75 12 9.75C13.2426 9.75 14.25 10.7574 14.25 12C14.25 13.2426 13.2426 14.25 12 14.25C10.7574 14.25 9.75 13.2426 9.75 12Z" fill="black"/>
<path fill-rule="evenodd" clip-rule="evenodd" d="M10.8946 3.00653C10.2226 1.87702 8.75191 1.45655 7.59248 2.14191L5.86749 3.12905C4.59518 3.85638 4.16378 5.48725 4.8906 6.7452L4.89112 6.7461C5.26606 7.39297 5.20721 7.80618 5.09018 8.00927C4.97308 8.21248 4.64521 8.47 3.9 8.47C2.43322 8.47 1.25 9.66835 1.25 11.12V12.88C1.25 14.3316 2.43322 15.53 3.9 15.53C4.64521 15.53 4.97308 15.7875 5.09018 15.9907C5.20721 16.1938 5.26606 16.607 4.89112 17.2539L4.8906 17.2548C4.16378 18.5127 4.59558 20.1438 5.8679 20.8712L7.59257 21.8581C8.75199 22.5434 10.2226 22.123 10.8946 20.9935L11.0091 20.7958C11.3841 20.1489 11.773 19.9925 12.0087 19.9925C12.2434 19.9925 12.6293 20.1475 12.9993 20.793L13.0009 20.7958L13.1109 20.9858L13.1154 20.9935C13.7874 22.1229 15.258 22.5434 16.4174 21.8581L18.1425 20.8709C19.4157 20.1431 19.8444 18.5235 19.1212 17.2579L19.1189 17.2539C18.7439 16.607 18.8028 16.1938 18.9198 15.9907C19.0369 15.7875 19.3648 15.53 20.11 15.53C21.5768 15.53 22.76 14.3316 22.76 12.88V11.12C22.76 9.65322 21.5616 8.47 20.11 8.47C19.3648 8.47 19.0369 8.21248 18.9198 8.00927C18.8028 7.80618 18.7439 7.39297 19.1189 6.7461L19.1194 6.7452C19.8463 5.48711 19.4147 3.85603 18.1421 3.12881L16.4175 2.14192C15.2581 1.45654 13.7874 1.87699 13.1154 3.0065L13.0009 3.20422C12.6259 3.85114 12.237 4.0075 12.0012 4.0075C11.7666 4.0075 11.3807 3.85246 11.0107 3.207L11.0091 3.20422L10.8991 3.01419L10.8946 3.00653ZM8.35347 3.43455C8.77209 3.1855 9.3358 3.32422 9.60347 3.77017L9.70933 3.95299L9.71021 3.95453C10.2402 4.87823 11.0439 5.5075 12.0012 5.5075C12.958 5.5075 13.7642 4.87858 14.2991 3.95577L14.4065 3.77017C14.6742 3.32422 15.2379 3.18559 15.6565 3.43464L17.3979 4.43118C17.9451 4.74389 18.1336 5.45257 17.8208 5.99443C17.286 6.91742 17.1423 7.92897 17.6202 8.75822C18.0981 9.58751 19.0452 9.97 20.11 9.97C20.7384 9.97 21.26 10.4868 21.26 11.12V12.88C21.26 13.5084 20.7432 14.03 20.11 14.03C19.0452 14.03 18.0981 14.4125 17.6202 15.2418C17.1426 16.0705 17.2858 17.0813 17.8198 18.0038C18.1351 18.5578 17.9434 19.2571 17.3975 19.569L15.6674 20.559L15.6565 20.5654C15.2379 20.8145 14.6742 20.6758 14.4065 20.2298L14.3007 20.047L14.3 20.0457C13.77 19.1219 12.9662 18.4925 12.0087 18.4925C11.052 18.4925 10.2458 19.1214 9.71093 20.0442L9.60345 20.2299C9.33578 20.6758 8.77214 20.8144 8.35352 20.5653L6.6121 19.5688C6.06491 19.2561 5.87642 18.5476 6.18909 18.0057C6.72398 17.0827 6.86773 16.0711 6.38982 15.2418C5.91192 14.4125 4.96479 14.03 3.9 14.03C3.26678 14.03 2.75 13.5084 2.75 12.88V11.12C2.75 10.4916 3.26678 9.97 3.9 9.97C4.96479 9.97 5.91192 9.58751 6.38982 8.75822C6.86771 7.92895 6.72399 6.91737 6.18916 5.99437C5.87639 5.45251 6.06528 4.74365 6.61251 4.43095L8.34256 3.44104L8.35347 3.43455Z" fill="black"/>
</svg>
