<svg viewBox="0 0 24 24" fill="none" xmlns="http://www.w3.org/2000/svg">
<path fill-rule="evenodd" clip-rule="evenodd" d="M5.93326 2.27696C7.04422 2.38289 8.36283 2.81658 9.84571 3.55929L18.4055 7.83916C20.4342 8.85354 21.7 10.3185 21.7 12C21.7 13.6815 20.4342 15.1464 18.4055 16.1608L9.84545 20.4408C8.36016 21.1834 7.04035 21.6171 5.92901 21.723C4.82089 21.8286 3.81579 21.6135 3.12436 20.9212C2.43301 20.2289 2.21919 19.2237 2.32567 18.1162C2.43247 17.0054 2.86676 15.6869 3.60945 14.2041L4.47952 12.474C4.52286 12.3869 4.56504 12.218 4.56504 12.005C4.56504 11.7915 4.52266 11.6223 4.47922 11.5354L3.60922 9.79539C2.86659 8.31261 2.43295 6.99409 2.32702 5.8832C2.22138 4.77533 2.43657 3.77028 3.12846 3.0784C3.82035 2.38651 4.82539 2.17132 5.93326 2.27696ZM4.95063 9.1241C4.2534 7.73206 3.90213 6.5995 3.82025 5.74082C3.73807 4.879 3.93226 4.39592 4.18912 4.13906C4.44598 3.88219 4.92907 3.68801 5.79088 3.77018C6.64956 3.85206 7.7826 4.20357 9.17463 4.9008L17.7346 9.1808C19.5459 10.0864 20.2 11.1515 20.2 12C20.2 12.8485 19.5459 13.9135 17.7346 14.8192L9.17463 19.0992C7.77992 19.7965 6.64599 20.1479 5.7867 20.2298C4.9242 20.312 4.44179 20.1177 4.18572 19.8612C3.92957 19.6048 3.73589 19.1219 3.81879 18.2597C3.90135 17.4009 4.25354 16.2678 4.95063 14.8759L5.82009 13.1469L5.82086 13.1454C5.8836 13.0199 5.93259 12.8865 5.96967 12.75H10.8399C11.2542 12.75 11.5899 12.4142 11.5899 12C11.5899 11.5858 11.2542 11.25 10.8399 11.25H5.96694C5.9302 11.117 5.88208 10.987 5.82086 10.8646L4.95063 9.1241Z" fill="black"/>
</svg>
