<svg viewBox="0 0 24 24" fill="none" xmlns="http://www.w3.org/2000/svg">
<path fill-rule="evenodd" clip-rule="evenodd" d="M19.196 2.63084C19.1025 2.05949 18.5622 1.6699 17.988 1.76386C17.5415 1.83714 17.1931 2.18757 17.1201 2.63258L16.8303 4.37284C16.7748 4.70643 16.515 4.96705 16.1839 5.02222L14.4462 5.3133C13.8753 5.40672 13.4865 5.94706 13.5799 6.5214C13.6533 6.96864 14.0037 7.31712 14.4487 7.39011L16.1832 7.6807C16.515 7.736 16.7748 7.99659 16.8303 8.33012L17.1203 10.0722C17.2138 10.6435 17.7541 11.0331 18.3283 10.9392C18.7748 10.8659 19.1233 10.5155 19.1963 10.0704L19.486 8.33018C19.5415 7.99665 19.8013 7.73591 20.1317 7.68076L21.87 7.38972C22.4418 7.29615 22.8291 6.75394 22.7353 6.18089C22.6622 5.73496 22.3132 5.38602 21.8676 5.3129L20.132 5.02232C19.8013 4.96711 19.5415 4.7064 19.486 4.3729L19.196 2.63084ZM18.103 5.26075L18.1581 5.13798L18.2133 5.26063C18.435 5.70826 18.7977 6.072 19.2444 6.29429L19.3691 6.35099L19.2442 6.40873C18.7976 6.63099 18.435 6.99476 18.2133 7.44239L18.1571 7.564L18.1029 7.44224C17.8812 6.99458 17.5183 6.63084 17.0713 6.40861L16.9451 6.35099L17.0715 6.29435C17.5183 6.07215 17.8812 5.70844 18.103 5.26075ZM10.0193 6.48188C9.8985 5.74342 9.20206 5.24174 8.46369 5.36292C7.88968 5.4571 7.43988 5.90751 7.34598 6.48203L6.76731 9.96406C6.60379 10.9467 5.83673 11.7161 4.85877 11.8792L1.38272 12.4592C0.64551 12.5825 0.147555 13.2787 0.267947 14.0168C0.362093 14.5906 0.811587 15.0407 1.38428 15.135L4.85852 15.7157C5.83673 15.8789 6.60379 16.6483 6.76734 17.6311L7.34632 21.115C7.46686 21.8516 8.1633 22.3533 8.90164 22.2321C9.47568 22.1379 9.92548 21.6875 10.0194 21.113L10.598 17.631C10.7615 16.6487 11.5293 15.879 12.5075 15.7158L15.9828 15.1347C16.7188 15.0139 17.2181 14.3159 17.0973 13.5779C17.0033 13.005 16.5558 12.5555 15.9834 12.4594L12.5076 11.8792C11.529 11.7152 10.7614 10.9459 10.598 9.96391L10.0193 6.48188ZM8.24698 10.2101L8.6821 7.58598L9.11832 10.21L9.15701 10.4098C9.49265 11.9274 10.7161 13.0999 12.2602 13.3587L14.8861 13.796L12.2605 14.2363L12.061 14.275C10.5461 14.611 9.37573 15.8381 9.11832 17.3849L8.6821 20.007L8.24701 17.385L8.20832 17.1851C7.87262 15.6669 6.64948 14.4937 5.10556 14.2362L2.47611 13.797L5.10559 13.3588C6.71659 13.0901 7.97837 11.8244 8.24698 10.2101Z" fill="black"/>
</svg>
