<svg viewBox="0 0 24 24" fill="none" xmlns="http://www.w3.org/2000/svg">
<path fill-rule="evenodd" clip-rule="evenodd" d="M3.24366 2.27407C4.06936 1.51137 5.20323 1.25 6.59006 1.25H9.64006L9.655 1.25015L9.67004 1.25H17.3501C18.7369 1.25 19.8707 1.51137 20.6964 2.27407C21.5123 3.02763 21.8853 4.14208 22.073 5.49714C22.0742 5.50608 22.0753 5.51505 22.0762 5.52403L22.3564 8.27574C22.4575 9.29175 22.2028 10.2346 21.6941 10.9902C21.7174 11.0626 21.73 11.1398 21.73 11.22V15.71C21.73 18.0294 21.2696 19.8485 20.0491 21.0691C18.8285 22.2896 17.0094 22.75 14.69 22.75H9.30001C6.98063 22.75 5.16148 22.2896 3.94093 21.0691C2.72038 19.8485 2.26001 18.0294 2.26001 15.71V11.22C2.26001 11.1548 2.26833 11.0915 2.28398 11.0312C1.75683 10.269 1.4909 9.31055 1.59369 8.27627L1.86365 5.52672C1.86462 5.51683 1.86578 5.50697 1.86715 5.49714C2.05477 4.14208 2.42785 3.02763 3.24366 2.27407ZM10.25 21.25H13.75V19.5C13.75 18.7795 13.5713 18.3795 13.3459 18.1541C13.1205 17.9287 12.7205 17.75 12 17.75C11.2795 17.75 10.8795 17.9287 10.6541 18.1541C10.4287 18.3795 10.25 18.7795 10.25 19.5V21.25ZM15.25 21.2396V19.5C15.25 18.5505 15.0137 17.7005 14.4066 17.0934C13.7995 16.4863 12.9495 16.25 12 16.25C11.0505 16.25 10.2005 16.4863 9.59342 17.0934C8.98634 17.7005 8.75 18.5505 8.75 19.5V21.24C6.90163 21.1704 5.73345 20.7403 5.00159 20.0084C4.19964 19.2065 3.76001 17.8806 3.76001 15.71V12.3134C4.31645 12.5929 4.95342 12.75 5.64006 12.75C6.91866 12.75 8.11117 12.1049 8.86942 11.1196C9.53508 12.1076 10.6681 12.75 12 12.75C13.3156 12.75 14.4372 12.1232 15.1059 11.1556C15.8673 12.1202 17.0458 12.75 18.3101 12.75C19.0132 12.75 19.6642 12.5853 20.23 12.293V15.71C20.23 17.8806 19.7904 19.2065 18.9884 20.0084C18.2579 20.739 17.0926 21.1688 15.25 21.2396ZM3.35499 5.68835L3.08647 8.42328C2.93024 9.9934 4.06514 11.25 5.64006 11.25C6.90667 11.25 8.0711 10.2005 8.19356 8.93761L8.19375 8.93571L8.81132 2.75H6.59006C5.35689 2.75 4.68075 2.98863 4.26145 3.37593C3.83394 3.77082 3.52774 4.45258 3.35499 5.68835ZM13.6212 2.75L14.2538 9.08452L14.254 9.08687C14.2563 9.10949 14.2589 9.13207 14.2616 9.1546C14.189 10.3508 13.2489 11.25 12 11.25C10.6152 11.25 9.61005 10.1437 9.74644 8.75342L10.3486 2.75H13.6212ZM15.7655 9.07726C15.966 10.2791 17.0927 11.25 18.3101 11.25C19.8847 11.25 21.0196 9.99482 20.8638 8.4251L20.5853 5.68966C20.4126 4.45307 20.1063 3.77096 19.6787 3.37593C19.2594 2.98863 18.5832 2.75 17.3501 2.75H15.1678L15.7464 8.60626C15.7621 8.76537 15.7683 8.92254 15.7655 9.07726Z" fill="black"/>
</svg>
