<svg viewBox="0 0 24 24" fill="none" xmlns="http://www.w3.org/2000/svg">
<path d="M8.97 9.75H5.5C5.09 9.75 4.75 9.41 4.75 9C4.75 8.59 5.09 8.25 5.5 8.25H8.97C9.38 8.25 9.72 8.59 9.72 9C9.72 9.41 9.39 9.75 8.97 9.75Z" fill="black"/>
<path d="M5.5 13.75H8.97C9.39 13.75 9.72 13.41 9.72 13C9.72 12.59 9.38 12.25 8.97 12.25H5.5C5.09 12.25 4.75 12.59 4.75 13C4.75 13.41 5.09 13.75 5.5 13.75Z" fill="black"/>
<path fill-rule="evenodd" clip-rule="evenodd" d="M4.07997 22.75H12.5L12.5041 22.75H18.81C21.37 22.75 22.72 21.4 22.73 18.84V15.06C22.73 14.95 22.73 14.85 22.72 14.85C22.66 12.86 21.66 11.69 19.67 11.25L17.702 10.8107C17.6785 10.8027 17.6545 10.7958 17.63 10.79L13.25 9.80693V7.41C13.25 6.07 12.3 4.56 11.09 3.96L6.64997 1.78C5.23997 1.08 3.87997 1.06 2.82997 1.72C1.78997 2.37 1.21997 3.56 1.21997 5.09V19.93C1.21997 21.49 2.50997 22.75 4.07997 22.75ZM15.22 17.75C14.4678 17.75 13.778 17.4695 13.25 17.0079V21.25H18.81C20.57 21.25 21.22 20.6 21.22 18.84V17.3491C20.7787 17.6043 20.2663 17.75 19.72 17.75C18.8269 17.75 18.0218 17.3545 17.471 16.7301C16.9218 17.3552 16.1177 17.75 15.22 17.75ZM16.72 14.75V12.13L13.72 11.46V14.75C13.72 15.58 14.39 16.25 15.22 16.25C16.05 16.25 16.72 15.58 16.72 14.75ZM20.0996 12.9555C20.7681 13.2667 21.0985 13.7745 21.194 14.6205C21.2014 14.6976 21.2067 14.7774 21.21 14.86C21.16 15.64 20.51 16.25 19.72 16.25C18.89 16.25 18.22 15.58 18.22 14.75V12.46L19.34 12.71C19.6312 12.775 19.8832 12.8555 20.0996 12.9555ZM3.61997 3C3.88997 2.83 4.20997 2.75 4.55997 2.75C4.98997 2.75 5.46997 2.88 5.97997 3.13L10.42 5.31C11.13 5.65 11.75 6.64 11.75 7.41V21.25H4.07997C3.32997 21.25 2.71997 20.66 2.71997 19.93V5.09C2.71997 4.11 3.03997 3.36 3.61997 3Z" fill="black"/>
</svg>
