<svg viewBox="0 0 24 24" fill="none" xmlns="http://www.w3.org/2000/svg">
<path fill-rule="evenodd" clip-rule="evenodd" d="M1.25 12C1.25 6.06294 6.06294 1.25 12 1.25C17.9371 1.25 22.75 6.06294 22.75 12C22.75 17.9371 17.9371 22.75 12 22.75C6.06294 22.75 1.25 17.9371 1.25 12ZM5.52208 5.39704C3.81128 7.07564 2.75 9.41388 2.75 12C2.75 14.5861 3.81128 16.9244 5.52208 18.603C5.52798 18.5953 5.53406 18.5876 5.54031 18.5801C6.85794 16.9911 7.72059 14.6508 7.72059 12C7.72059 9.34915 6.85794 7.00894 5.54031 5.41991C5.53406 5.41237 5.52798 5.40475 5.52208 5.39704ZM6.67292 4.437C6.68043 4.44528 6.68778 4.45376 6.69498 4.46245C8.25892 6.34852 9.22059 9.03753 9.22059 12C9.22059 14.9625 8.25892 17.6515 6.69498 19.5376C6.68778 19.5462 6.68043 19.5547 6.67292 19.563C8.17897 20.6257 10.0166 21.25 12 21.25C13.9834 21.25 15.821 20.6257 17.3271 19.563C17.3196 19.5547 17.3122 19.5462 17.305 19.5376C15.7411 17.6515 14.7794 14.9625 14.7794 12C14.7794 9.03753 15.7411 6.34852 17.305 4.46245C17.3122 4.45376 17.3196 4.44528 17.3271 4.437C15.821 3.37425 13.9834 2.75 12 2.75C10.0166 2.75 8.17897 3.37425 6.67292 4.437ZM18.4779 5.39704C18.472 5.40475 18.4659 5.41237 18.4597 5.41991C17.1421 7.00894 16.2794 9.34915 16.2794 12C16.2794 14.6508 17.1421 16.9911 18.4597 18.5801C18.4659 18.5876 18.472 18.5953 18.4779 18.603C20.1887 16.9244 21.25 14.5861 21.25 12C21.25 9.41388 20.1887 7.07564 18.4779 5.39704Z" fill="black"/>
</svg>
