<svg viewBox="0 0 24 24" fill="none" xmlns="http://www.w3.org/2000/svg">
<path fill-rule="evenodd" clip-rule="evenodd" d="M10.5701 11.25V9C10.5701 8.10784 10.4124 7.14568 9.79786 6.40307C9.15943 5.63164 8.15978 5.25 6.82007 5.25C5.48035 5.25 4.48071 5.63164 3.84227 6.40307C3.2277 7.14568 3.07007 8.10784 3.07007 9V15C3.07007 15.8922 3.2277 16.8543 3.84227 17.5969C4.48071 18.3684 5.48035 18.75 6.82007 18.75C8.15978 18.75 9.15943 18.3684 9.79786 17.5969C10.4124 16.8543 10.5701 15.8922 10.5701 15V12.75H13.4299V15C13.4299 15.8922 13.5876 16.8543 14.2021 17.5969C14.8406 18.3684 15.8402 18.75 17.1799 18.75C18.5196 18.75 19.5193 18.3684 20.1577 17.5969C20.7723 16.8543 20.9299 15.8922 20.9299 15V9C20.9299 8.10784 20.7723 7.14568 20.1577 6.40307C19.5193 5.63164 18.5196 5.25 17.1799 5.25C15.8402 5.25 14.8406 5.63164 14.2021 6.40307C13.5876 7.14568 13.4299 8.10784 13.4299 9V11.25H10.5701ZM4.99786 7.35943C4.71244 7.70432 4.57007 8.24216 4.57007 9V15C4.57007 15.7578 4.71244 16.2957 4.99786 16.6406C5.25943 16.9566 5.75978 17.25 6.82007 17.25C7.88035 17.25 8.3807 16.9566 8.64227 16.6406C8.9277 16.2957 9.07007 15.7578 9.07007 15V9C9.07007 8.24216 8.9277 7.70432 8.64227 7.35943C8.3807 7.04336 7.88035 6.75 6.82007 6.75C5.75978 6.75 5.25943 7.04336 4.99786 7.35943ZM14.9299 12.0145L14.9301 12L14.9299 11.9855V9C14.9299 8.24216 15.0723 7.70432 15.3577 7.35943C15.6193 7.04336 16.1196 6.75 17.1799 6.75C18.2402 6.75 18.7406 7.04336 19.0021 7.35943C19.2876 7.70432 19.4299 8.24216 19.4299 9V15C19.4299 15.7578 19.2876 16.2957 19.0021 16.6406C18.7406 16.9566 18.2402 17.25 17.1799 17.25C16.1196 17.25 15.6193 16.9566 15.3577 16.6406C15.0723 16.2957 14.9299 15.7578 14.9299 15V12.0145Z" fill="black"/>
<path d="M22.5 8.75C22.9142 8.75 23.25 9.08579 23.25 9.5V14.5C23.25 14.9142 22.9142 15.25 22.5 15.25C22.0858 15.25 21.75 14.9142 21.75 14.5V9.5C21.75 9.08579 22.0858 8.75 22.5 8.75Z" fill="black"/>
<path d="M2.25 9.5C2.25 9.08579 1.91421 8.75 1.5 8.75C1.08579 8.75 0.75 9.08579 0.75 9.5V14.5C0.75 14.9142 1.08579 15.25 1.5 15.25C1.91421 15.25 2.25 14.9142 2.25 14.5V9.5Z" fill="black"/>
</svg>
