<svg viewBox="0 0 24 24" fill="none" xmlns="http://www.w3.org/2000/svg">
<path fill-rule="evenodd" clip-rule="evenodd" d="M10.0901 22.59C10.7301 22.7 11.3601 22.75 11.9701 22.75C12.2901 22.75 12.6001 22.74 12.9001 22.71C13.1301 22.69 13.3501 22.65 13.5701 22.59C13.6024 22.5809 13.6338 22.57 13.664 22.5574C14.2445 22.3738 14.7687 22.0613 15.21 21.62L21.59 15.24C22.0332 14.7968 22.3465 14.2792 22.5297 13.6874C22.5415 13.6592 22.5516 13.63 22.5601 13.6C22.6201 13.38 22.6601 13.16 22.6801 12.93V12.92C22.7601 12.02 22.7201 11.07 22.5601 10.1C21.8101 5.7 18.2001 2.12 13.7901 1.39C10.2901 0.820001 6.86005 1.9 4.37005 4.39C1.88005 6.88 0.790052 10.31 1.37005 13.82C2.10005 18.24 5.69005 21.84 10.0901 22.59ZM17.9803 11.25L17.9901 11.25C19.1301 11.25 20.2501 11.54 21.2401 12.08C21.2501 11.53 21.2001 10.96 21.1001 10.36C20.4601 6.58 17.3601 3.5 13.5701 2.88C13.0201 2.79 12.4901 2.75 11.9701 2.75C9.52005 2.75 7.20005 3.7 5.44005 5.46C3.30005 7.6 2.36005 10.56 2.86005 13.58C3.49005 17.37 6.56005 20.47 10.3501 21.11C10.9466 21.2094 11.5136 21.2693 12.0607 21.2503C11.5151 20.2623 11.22 19.1441 11.22 18C11.22 14.28 14.25 11.25 17.97 11.25L17.9803 11.25ZM20.53 14.18C20.69 14.02 20.82 13.85 20.92 13.66C20.5037 13.3744 18.5473 12.75 17.9701 12.75C15.1265 12.8941 12.72 15.0327 12.72 18C12.72 19.06 13.04 20.09 13.63 20.95C13.82 20.85 13.99 20.72 14.15 20.56L20.53 14.18Z" fill="black"/>
</svg>
