<svg viewBox="0 0 24 24" fill="none" xmlns="http://www.w3.org/2000/svg">
<path fill-rule="evenodd" clip-rule="evenodd" d="M12.5 2C12.5 1.58579 12.8358 1.25 13.25 1.25H15.25C18.9779 1.25 22 4.27208 22 8V10C22 13.1756 19.4256 15.75 16.25 15.75H8.75001C6.12666 15.75 4.00001 13.6234 4.00001 11V9.29698C4.00001 7.59686 2.98682 6.06032 1.42417 5.39061L0.95457 5.18936C0.573847 5.02619 0.397484 4.58528 0.56065 4.20456C0.723817 3.82384 1.16473 3.64747 1.54545 3.81064L2.01504 4.0119C4.11482 4.9118 5.4813 6.96855 5.49982 9.25H12.5V2ZM5.50001 10.75V11C5.50001 12.7949 6.95508 14.25 8.75001 14.25H16.25C18.5972 14.25 20.5 12.3472 20.5 10V8C20.5 5.1005 18.1495 2.75 15.25 2.75H14V10C14 10.4142 13.6642 10.75 13.25 10.75H5.50001Z" fill="black"/>
<path fill-rule="evenodd" clip-rule="evenodd" d="M8 22.5C9.30622 22.5 10.4175 21.6652 10.8293 20.5H14.6707C15.0825 21.6652 16.1938 22.5 17.5 22.5C19.1569 22.5 20.5 21.1569 20.5 19.5C20.5 17.8431 19.1569 16.5 17.5 16.5C16.0135 16.5 14.7795 17.5811 14.5415 19H10.9585C10.7205 17.5811 9.4865 16.5 8 16.5C6.34315 16.5 5 17.8431 5 19.5C5 21.1569 6.34315 22.5 8 22.5ZM9.5 19.5C9.5 20.3284 8.82843 21 8 21C7.17157 21 6.5 20.3284 6.5 19.5C6.5 18.6716 7.17157 18 8 18C8.82843 18 9.5 18.6716 9.5 19.5ZM19 19.5C19 20.3284 18.3284 21 17.5 21C16.6716 21 16 20.3284 16 19.5C16 18.6716 16.6716 18 17.5 18C18.3284 18 19 18.6716 19 19.5Z" fill="black"/>
</svg>
