<svg viewBox="0 0 24 24" fill="none" xmlns="http://www.w3.org/2000/svg">
<path d="M6.87 12.92C6.99 12.97 7.12 13 7.25 13C7.38 13 7.51 12.97 7.63 12.92C7.75 12.87 7.86001 12.8 7.96001 12.71C8.15001 12.52 8.25 12.27 8.25 12C8.25 11.74 8.14001 11.48 7.96001 11.29C7.87001 11.2 7.76 11.13 7.63 11.08C7.26 10.92 6.81999 11.02 6.53999 11.29C6.35999 11.48 6.25 11.74 6.25 12C6.25 12.27 6.34999 12.52 6.53999 12.71C6.63999 12.8 6.75 12.87 6.87 12.92Z" fill="black"/>
<path fill-rule="evenodd" clip-rule="evenodd" d="M8 19.75H16C18.42 19.75 19.75 18.42 19.75 16V8C19.75 5.58 18.42 4.25 16 4.25H8C5.58 4.25 4.25 5.58 4.25 8V16C4.25 18.42 5.58 19.75 8 19.75ZM18.25 16V14.75H16C15.59 14.75 15.25 14.41 15.25 14C15.25 13.59 15.59 13.25 16 13.25H18.25V10.74H16C15.59 10.74 15.25 10.4 15.25 9.98999C15.25 9.57999 15.59 9.23999 16 9.23999H18.25V8C18.25 6.42 17.58 5.75 16 5.75H8C6.42 5.75 5.75 6.42 5.75 8V8.75H7.48C9.27 8.75 10.73 10.21 10.73 12C10.73 13.79 9.28 15.25 7.48 15.25H5.75V16C5.75 17.58 6.42 18.25 8 18.25H16C17.58 18.25 18.25 17.58 18.25 16ZM5.75 13.75V10.25H7.48C8.44 10.25 9.23 11.04 9.23 12C9.23 12.96 8.45 13.75 7.48 13.75H5.75Z" fill="black"/>
<path fill-rule="evenodd" clip-rule="evenodd" d="M9 22.75H15C20.43 22.75 22.75 20.43 22.75 15V9C22.75 3.57 20.43 1.25 15 1.25H9C3.57 1.25 1.25 3.57 1.25 9V15C1.25 20.43 3.57 22.75 9 22.75ZM2.75 9C2.75 4.39 4.39 2.75 9 2.75H15C19.61 2.75 21.25 4.39 21.25 9V15C21.25 19.61 19.61 21.25 15 21.25H9C4.39 21.25 2.75 19.61 2.75 15V9Z" fill="black"/>
</svg>
