<svg viewBox="0 0 24 24" fill="none" xmlns="http://www.w3.org/2000/svg">
<path d="M12.3077 5.73652L20.323 3.62209C20.0076 3.31325 19.6524 3.16613 19.4023 3.09403C19.1509 3.02155 18.9071 2.99619 18.7065 3.00045C18.0057 3.01535 17.2754 3.31309 16.0997 3.86442C14.8279 4.46075 13.5593 5.09919 12.3077 5.73652Z" fill="black"/>
<path d="M20.9552 4.93386C20.9298 4.75476 20.841 4.12929 20.323 3.62209L20.9552 4.93386Z" fill="black"/>
<path d="M8.10417 15.0857C8.60703 15.0988 9.0766 14.9768 9.5058 14.779L8.10417 15.0857Z" fill="black"/>
<path fill-rule="evenodd" clip-rule="evenodd" d="M8.10417 15.0857L9.5058 14.779C9.54045 15.5627 9.97512 16.1866 10.4722 16.6496C11.5345 17.639 12.7376 18.5014 13.8659 19.4149L14.323 19.7987C14.5807 20.0206 14.9433 20.333 15.3434 20.5667C15.7979 20.8323 16.4105 21.0655 17.15 20.9834C17.9085 20.8992 18.4571 20.4275 18.7955 19.8843C19.1127 19.3749 19.2992 18.733 19.4107 18.0136C20.0707 13.7567 20.7942 8.67912 20.9552 4.93386L20.323 3.62209L12.3077 5.73652C7.73555 8.0647 4.5 9.5 3.78281 10.3058C3.4749 10.5817 3.08159 11.0499 3.01162 11.7231C2.96858 12.1375 3.04373 12.5599 3.25977 12.9433C3.46183 13.3019 3.73794 13.5392 3.9613 13.6925C4.33058 13.946 4.7977 14.1222 5.09743 14.2352L5.44852 14.3695L6.24867 14.6637C6.32697 14.6885 6.40516 14.7136 6.48339 14.7385C7.01458 14.8965 7.55602 14.9848 8.10417 15.0857ZM14.4508 9.03659L14.3801 9.09242C14.0349 9.36537 13.6081 9.70638 13.0994 10.1154L13.0361 10.1664C12.5913 10.5243 12.0846 10.9337 11.5183 11.3928L11.3198 11.5537C11.1239 11.7127 10.9209 11.8775 10.711 12.048L10.3606 12.3329C10.1286 12.5216 9.88881 12.7168 9.64109 12.9185C9.08986 13.3753 8.59058 13.5978 8.14325 13.5862L7.59974 13.5014C7.49527 13.4767 7.38533 13.4474 7.27221 13.4149C7.09733 13.3645 6.91488 13.3061 6.73334 13.2442C6.69132 13.2298 6.64935 13.2153 6.60754 13.2006C6.39518 13.126 6.1868 13.0478 5.9962 12.9731C5.46229 12.7637 4.43171 12.5701 4.50359 11.8782C4.53478 11.5781 4.87729 11.2711 5.53113 10.9574C5.91093 10.7577 6.27902 10.5644 6.63494 10.3775L7.29723 10.0301C8.11597 9.60075 8.86581 9.20848 9.54677 8.85324C11.0064 8.0918 12.1495 7.50053 12.9761 7.07945L13.0009 7.06683C13.2181 6.95619 13.4132 6.8575 13.5861 6.77074C14.0622 6.53179 14.4915 6.31732 14.8792 6.12496C15.6478 5.74368 16.2532 5.44916 16.7365 5.22252C17.9739 4.64231 18.4112 4.50707 18.7384 4.50011C18.8526 4.49769 19.1081 4.53186 19.2736 4.69389C19.4133 4.8307 19.4518 5.01552 19.4702 5.14524C19.4886 5.27496 19.5115 5.57046 19.4933 5.80135C19 11.8782 17.9284 17.7838 17.9284 17.7838C17.7348 19.0328 17.3536 19.4516 16.9845 19.4926C16.3493 19.5631 15.8352 19.1208 15.2629 18.6285L14.7964 18.2384C14.1624 17.7369 13.671 17.3331 13.1797 16.9294C12.7294 16.5594 12.278 16.1885 11.7141 15.74C11.6332 15.6757 11.5602 15.613 11.4946 15.552C11.1085 15.1924 10.9796 14.8861 11.0076 14.5962C11.0084 14.5878 11.0094 14.5795 11.0104 14.5711C11.0572 14.2055 11.3504 13.8644 11.6868 13.4731C11.7929 13.3497 11.9032 13.2213 12.0115 13.0856C12.0539 13.0325 12.2409 12.8221 12.5109 12.5191L12.6285 12.3872L12.6308 12.3845C12.9652 12.0094 13.3968 11.5252 13.8338 11.0286L13.9138 10.9375C14.3098 10.4868 14.7057 10.0306 15.033 9.64093L15.0514 9.61899L15.1403 9.51269C15.3057 9.31393 15.4496 9.13621 15.5618 8.99032C15.5886 8.95542 15.6137 8.92233 15.6367 8.89122C15.7438 8.74683 15.8087 8.64482 15.8174 8.60001C15.826 8.55601 15.8339 8.39196 15.7531 8.30535C15.6723 8.21872 15.5532 8.24835 15.4671 8.27191C15.4427 8.2786 15.3449 8.34639 15.1743 8.47477L15.1251 8.51194C14.9995 8.60725 14.8398 8.73088 14.6461 8.88283C14.5844 8.93121 14.5193 8.98247 14.4508 9.03659Z" fill="black"/>
<path d="M7.73555 15.0537C7.84813 15.0695 7.97338 15.0822 8.10417 15.0857C7.55602 14.9848 7.01458 14.8965 6.48339 14.7385C6.73833 14.8198 6.99365 14.8994 7.25431 14.9611C7.40887 14.9977 7.57236 15.0308 7.73555 15.0537Z" fill="black"/>
</svg>
