<svg viewBox="0 0 24 24" fill="none" xmlns="http://www.w3.org/2000/svg">
<path d="M12.5 14.25C12.5 13.8358 12.1642 13.5 11.75 13.5C11.3358 13.5 11 13.8358 11 14.25V17.25C11 17.6642 11.3358 18 11.75 18C12.1642 18 12.5 17.6642 12.5 17.25V14.25Z" fill="black"/>
<path fill-rule="evenodd" clip-rule="evenodd" d="M11.7604 2.00007C12.0604 2.00422 12.3477 2.23079 12.462 2.50823C14.5464 7.3907 17.6374 12.2632 21.7301 15.6738C21.9011 15.8163 22 16.0274 22 16.25V20.25C22 20.6642 21.6642 21 21.25 21H2.75C2.33579 21 2 20.6642 2 20.25V16.25C2 16.0374 2.09024 15.8348 2.24828 15.6925C6.13202 12.1972 8.89174 7.21745 11.043 2.49333C11.1649 2.2191 11.4603 1.99593 11.7604 2.00007ZM11.7274 4.54244C13.8818 8.99805 16.7325 13.356 20.5 16.5976V19.5H3.5V16.5798C7.04618 13.2672 9.5858 8.86252 11.7274 4.54244Z" fill="black"/>
</svg>
