<svg viewBox="0 0 24 24" fill="none" xmlns="http://www.w3.org/2000/svg">
<path fill-rule="evenodd" clip-rule="evenodd" d="M9.51061 9.98162C9.8392 9.98162 10.1621 9.99165 10.4895 10.0324V13.2278C9.09102 12.823 7.46411 13.4845 6.96842 14.9397L6.96744 14.9426C6.51981 16.2621 7.58321 17.5746 9 17.5C10.3477 17.4291 11.4413 16.4409 11.4955 15.041L11.5001 2.5L14.8536 2.5C14.8536 2.77011 14.8806 3.036 14.9304 3.29347L14.9308 3.2946C15.5664 3.29347 15.5 3.2946 15.8324 3.29347C15.8324 3.6649 15.8823 4.02555 15.9765 4.3699C16.3296 5.66152 17.0113 6.37409 18.2853 6.70135C18.6788 6.80244 19.093 6.85621 19.5213 6.85621V7.55141C19.5247 7.55211 19.5286 7.55291 19.532 7.5536C19.8414 7.61559 20.164 7.64867 20.5 7.64867V10.7765C19.0548 10.7765 17.6133 10.4099 16.3536 9.69828C16.1752 9.59751 16.0012 9.49039 15.8323 9.3774V15.7388C15.8323 18.9174 13.0589 21.5 9.65557 21.5C9.32263 21.5 8.99571 21.4752 8.67682 21.4275C5.63527 20.9722 2.5 18.1573 2.5 14.9414C2.5 11.2931 6.0757 8.81898 9.4901 9.23751C9.49513 9.23812 9.50105 9.23886 9.50607 9.23948V9.97912M9.69139 7.75097C9.79775 7.76421 9.90035 7.78838 9.99813 7.82227L10.0001 2.49946C10.0004 1.67124 10.6718 1 11.5001 1H14.8536C15.4447 1 15.956 1.342 16.2004 1.83895C16.8509 2.00303 17.3324 2.59203 17.3324 3.29347C17.3324 4.66914 18.2119 5.3562 19.5213 5.3562C20.1121 5.3562 20.6231 5.6977 20.8676 6.19405C21.5183 6.35799 22 6.94707 22 7.64867V10.7765C22 11.6049 21.3284 12.2765 20.5 12.2765C19.3925 12.2765 18.3256 12.0968 17.3323 11.7659V15.7388C17.3323 19.8432 13.7864 23 9.65557 23C5.45535 23 1 19.2886 1 14.9414C1 10.3986 5.37454 7.21353 9.69139 7.75097Z" fill="black"/>
</svg>
