<svg viewBox="0 0 24 24" fill="none" xmlns="http://www.w3.org/2000/svg">
<path d="M6.5 13.25C6.5 12.8358 6.83579 12.5 7.25 12.5H9.17969C9.5939 12.5 9.92969 12.8358 9.92969 13.25C9.92969 13.6642 9.5939 14 9.17969 14H7.25C6.83579 14 6.5 13.6642 6.5 13.25Z" fill="black"/>
<path d="M12.75 12.5C12.3358 12.5 12 12.8358 12 13.25C12 13.6642 12.3358 14 12.75 14H12.759C13.1732 14 13.509 13.6642 13.509 13.25C13.509 12.8358 13.1732 12.5 12.759 12.5H12.75Z" fill="black"/>
<path fill-rule="evenodd" clip-rule="evenodd" d="M3.05736 2.43106C3.86215 1.49912 5.09646 1 6.75 1H18.75L18.7569 1.00003L18.77 1L18.7769 1.00003C19.6154 1.00772 20.5522 1.54652 21.2507 2.40562C21.9737 3.29495 22.5 4.58671 22.5 6.25C22.5 7.78754 22.2532 9.39868 21.3194 10.4881C20.4665 11.4832 19.1882 11.891 17.5 11.6599V20.75C17.5 22.1917 15.8535 23.0064 14.7029 22.1522L14.7006 22.1504L12.9827 20.8645C12.8965 20.7982 12.7586 20.8021 12.6703 20.8903L10.9904 22.5703C10.3075 23.2532 9.19254 23.2532 8.50965 22.5703L8.50805 22.5687L6.84967 20.9003C6.75044 20.8015 6.60768 20.7967 6.51 20.87L4.80287 22.1478L4.80086 22.1493C3.64267 23.0244 2 22.1934 2 20.75V5.75C2 4.54713 2.27033 3.34244 3.05736 2.43106ZM17.5 10.1432V3.76C17.5 3.07033 18.0673 2.5021 18.7661 2.50001C19.0191 2.50396 19.5699 2.71601 20.0868 3.35188C20.5813 3.96005 21 4.91329 21 6.25C21 7.71246 20.7468 8.85132 20.1806 9.51191C19.7379 10.0283 18.9683 10.3961 17.5 10.1432ZM16.3017 2.5C16.1089 2.87542 16 3.30044 16 3.75V20.75C16 20.9479 15.7673 21.0732 15.5979 20.9484L15.5971 20.9478L13.8928 19.6721C13.1993 19.1422 12.2201 19.2193 11.6097 19.8297L9.92969 21.5097C9.83274 21.6066 9.66747 21.6063 9.57031 21.5097L7.91193 19.8413L7.91034 19.8397C7.28959 19.2189 6.31216 19.1434 5.61 19.67L3.90054 20.9496L3.89708 20.9522C3.73538 21.0747 3.5 20.9657 3.5 20.75V14H4.5C4.91421 14 5.25 13.6642 5.25 13.25C5.25 12.8358 4.91421 12.5 4.5 12.5H3.5V5.75C3.5 4.74287 3.72967 3.94756 4.19264 3.41144C4.63785 2.89588 5.40354 2.5 6.75 2.5H16.3017Z" fill="black"/>
</svg>
