<svg viewBox="0 0 24 24" fill="none" xmlns="http://www.w3.org/2000/svg">
<path fill-rule="evenodd" clip-rule="evenodd" d="M8.25 4.16129C8.25 3.08272 9.14642 2.25 10.2 2.25H13.8C14.8536 2.25 15.75 3.08272 15.75 4.16129C15.75 4.5755 15.4142 4.91129 15 4.91129C14.5858 4.91129 14.25 4.5755 14.25 4.16129C14.25 3.95713 14.0719 3.75 13.8 3.75H10.2C9.9281 3.75 9.75 3.95713 9.75 4.16129C9.75 4.5755 9.41421 4.91129 9 4.91129C8.58579 4.91129 8.25 4.5755 8.25 4.16129ZM2.25 6.01705C2.25 5.60284 2.58579 5.26705 3 5.26705H21C21.4142 5.26705 21.75 5.60284 21.75 6.01705C21.75 6.43127 21.4142 6.76705 21 6.76705H20.0673L19.1029 17.8728C18.9108 20.085 17.0084 21.75 14.7684 21.75H9.23286C6.99285 21.75 5.09042 20.085 4.89832 17.8728L3.93396 6.76705H3C2.58579 6.76705 2.25 6.43127 2.25 6.01705ZM5.4396 6.76705L6.3927 17.743C6.51401 19.14 7.73016 20.25 9.23286 20.25H14.7684C16.2711 20.25 17.4872 19.14 17.6085 17.743L18.5616 6.76705H5.4396ZM9.54497 10.3791C9.95919 10.3791 10.295 10.7148 10.295 11.1291V16.0645C10.295 16.4787 9.95919 16.8145 9.54497 16.8145C9.13076 16.8145 8.79497 16.4787 8.79497 16.0645V11.1291C8.79497 10.7148 9.13076 10.3791 9.54497 10.3791ZM14.4551 10.3791C14.8693 10.3791 15.2051 10.7148 15.2051 11.1291V16.0645C15.2051 16.4787 14.8693 16.8145 14.4551 16.8145C14.0409 16.8145 13.7051 16.4787 13.7051 16.0645V11.1291C13.7051 10.7148 14.0409 10.3791 14.4551 10.3791Z" fill="black"/>
</svg>
