<svg viewBox="0 0 24 24" fill="none" xmlns="http://www.w3.org/2000/svg">
<path fill-rule="evenodd" clip-rule="evenodd" d="M6.0122 9.88878C6.35071 10.5451 7.06471 10.7953 7.76677 10.8094L4.62101 15.2324C4.08135 15.9767 3.81451 16.8719 4.21623 17.6567C4.61794 18.4416 5.50117 18.75 6.42011 18.75H11.25V22C11.25 22.4142 11.5858 22.75 12 22.75C12.4142 22.75 12.75 22.4142 12.75 22V18.75H17.5901C18.509 18.75 19.3923 18.4416 19.794 17.6567C20.1957 16.8719 19.9289 15.9767 19.3892 15.2324L16.2433 10.8092C16.9413 10.793 17.6521 10.5423 17.9877 9.8867C18.3353 9.20751 18.0946 8.45738 17.6684 7.87134L13.5041 2.0394C13.149 1.52521 12.6105 1.19501 11.9988 1.19501C11.3871 1.19501 10.8472 1.52509 10.4878 2.03676L6.32101 7.87228L6.32025 7.87333C5.89809 8.46119 5.66298 9.21166 6.0122 9.88878ZM11.9988 2.69501C11.9592 2.69501 11.845 2.71357 11.7145 2.9001L11.7104 2.90586L7.53904 8.74773C7.33892 9.02616 7.34214 9.16567 7.34723 9.20041C7.37225 9.22459 7.48428 9.31 7.83002 9.31H9.21716L9.2201 9.31H14.7901L14.793 9.31H16.17C16.5107 9.31 16.6237 9.22722 16.6502 9.20235C16.6547 9.1658 16.6542 9.02641 16.454 8.75188L16.4496 8.74585L12.2797 2.90584L12.2715 2.89415C12.1466 2.71204 12.037 2.69501 11.9988 2.69501ZM17.5901 17.25C18.2511 17.25 18.4279 17.0334 18.4587 16.9733C18.4889 16.9143 18.5621 16.6459 18.1733 16.1108L18.1689 16.1047L14.4032 10.81L9.60702 10.81L5.83689 16.1109C5.44812 16.646 5.52128 16.9143 5.55149 16.9733C5.58227 17.0334 5.75905 17.25 6.42011 17.25H17.5901Z" fill="black"/>
</svg>
