<svg viewBox="0 0 24 24" fill="none" xmlns="http://www.w3.org/2000/svg">
<path fill-rule="evenodd" clip-rule="evenodd" d="M23.3023 6.61921C22.8203 7.46266 22.1587 8.21051 21.3814 8.79873C21.2291 15.1114 16.5145 21.75 8.24992 21.75C5.66271 21.75 3.27304 20.8882 1.22818 19.6612C0.62194 19.2975 0.351991 18.5598 0.58026 17.8907C0.808528 17.2216 1.47304 16.8027 2.17518 16.8853C2.79908 16.9587 3.43594 16.939 4.05071 16.8436C3.27908 16.1047 2.18156 14.6744 2.58158 13.5118C1.67753 12.4868 0.337085 9.99409 1.53185 8.72274C0.978837 7.21944 1.05321 5.49572 1.96368 3.97826C2.21232 3.56387 2.64537 3.29465 3.127 3.25505C3.60864 3.21545 4.07985 3.41032 4.39283 3.77853C5.91892 5.57393 7.92947 6.83396 10.1868 7.30412C10.7891 3.10225 15.7863 1.21697 19.1155 3.60126C20.1167 3.31338 21.2174 2.30395 22.239 3.02388C22.7456 3.38086 22.9804 4.0126 22.8301 4.61381C22.8293 4.61717 22.8285 4.62053 22.8276 4.62389C23.4735 5.05137 23.6894 5.94176 23.3023 6.61921ZM20.9416 5.27025C20.6206 5.77773 20.1715 6.18765 19.6249 6.5C19.8148 6.47288 19.9988 6.44576 20.1782 6.41608C20.8254 6.30898 21.4127 6.16863 21.9999 5.875C21.5089 6.73424 20.7769 7.47294 19.9221 7.97274C19.9064 7.98191 19.8907 7.991 19.8749 8C20.1249 13.875 15.8749 20.25 8.24992 20.25C5.99992 20.25 3.87492 19.5 1.99992 18.375C4.00908 18.6114 6.24102 18.1004 7.87492 16.875C6.00631 16.875 4.49985 15.6248 3.99992 14C4.62492 14.125 5.24992 14 5.87492 13.875C4.04943 13.3882 2.62492 11.6651 2.62492 9.75C3.24992 10 3.87492 10.25 4.49992 10.25C2.77276 9.01632 2.14768 6.58708 3.24992 4.75C5.37492 7.25 8.37492 8.875 11.7499 9C10.7342 4.93714 15.9914 2.49147 18.7499 5.25C19.659 5.02275 20.5864 4.7757 21.3749 4.25C21.3488 4.35449 21.3186 4.45626 21.2844 4.55529C21.1959 4.81195 21.0808 5.05026 20.9416 5.27025Z" fill="black"/>
</svg>
