<svg viewBox="0 0 24 24" fill="none" xmlns="http://www.w3.org/2000/svg">
<path d="M12 22.25C12.4142 22.25 12.75 21.9142 12.75 21.5V9.31077L14.8196 11.3803C15.1125 11.6732 15.5873 11.6732 15.8802 11.3803C16.1731 11.0875 16.1731 10.6126 15.8802 10.3197L12.5302 6.96968C12.2373 6.67679 11.7625 6.67679 11.4696 6.96968L8.11957 10.3197C7.82668 10.6126 7.82668 11.0875 8.11957 11.3803C8.41247 11.6732 8.88734 11.6732 9.18023 11.3803L11.25 9.31058V21.5C11.25 21.9142 11.5858 22.25 12 22.25Z" fill="black"/>
<path d="M15.6927 14.6643C15.7283 15.077 16.0916 15.3828 16.5043 15.3472C18.4163 15.1826 19.9137 14.5947 20.9074 13.3701C21.8842 12.1662 22.26 10.4837 22.26 8.39V8.26C22.26 5.95082 21.8022 4.13905 20.5866 2.92342C19.3709 1.70779 17.5592 1.25 15.25 1.25H8.73998C6.4308 1.25 4.61903 1.70779 3.4034 2.92342C2.18777 4.13905 1.72998 5.95082 1.72998 8.26V8.39C1.72998 10.4685 2.10069 12.1408 3.06183 13.3423C4.04031 14.5654 5.51591 15.1611 7.40037 15.3368C7.81279 15.3752 8.1783 15.072 8.21674 14.6596C8.25519 14.2472 7.95202 13.8817 7.53959 13.8432C5.88405 13.6889 4.86465 13.1946 4.23313 12.4052C3.58427 11.5942 3.22998 10.3315 3.22998 8.39V8.26C3.22998 6.09918 3.66719 4.78095 4.46406 3.98408C5.26093 3.18721 6.57916 2.75 8.73998 2.75H15.25C17.4108 2.75 18.729 3.18721 19.5259 3.98408C20.3228 4.78095 20.76 6.09918 20.76 8.26V8.39C20.76 10.3463 20.4007 11.6138 19.7426 12.4249C19.1012 13.2154 18.0637 13.7074 16.3756 13.8528C15.9629 13.8883 15.6572 14.2517 15.6927 14.6643Z" fill="black"/>
</svg>
