<svg viewBox="0 0 24 24" fill="none" xmlns="http://www.w3.org/2000/svg">
<path fill-rule="evenodd" clip-rule="evenodd" d="M18.6587 11.8819C18.4034 12.307 18.3183 12.5431 18.6587 13.0154C19.6983 14.3616 22.0625 16.1727 22.0625 17.9743C22.0625 18.4466 21.8072 18.5882 21.5519 18.5882H18.9565C18.381 18.5882 18.1363 18.2857 17.5642 17.5785C17.2905 17.2401 16.9419 16.809 16.4462 16.2741C15.1698 14.81 14.5741 14.7156 14.2763 14.7156C14.021 14.7156 13.8083 14.9045 13.8083 15.4712V17.6437C13.8083 18.3049 13.4679 18.541 12.1064 18.541C9.85135 18.541 7.34104 16.9825 5.46895 14.1489C2.66081 9.89838 1.9375 6.73413 1.9375 6.07295C1.9375 5.69513 2.19279 5.45899 2.53317 5.45899H4.83073C5.4264 5.45899 5.63914 5.6479 5.85188 6.35631C6.87302 9.7567 8.74511 12.7793 9.55351 12.7793C9.85135 12.7793 9.8939 12.4959 9.8939 11.7875V8.29264C9.8939 7.57767 9.74341 7.13831 9.56901 6.82353L9.56782 6.82138C9.32774 6.38912 9.04294 6.192 9.04294 5.83681C9.04294 5.60068 9.21313 5.41176 9.51097 5.41176H13.2126C13.6806 5.41176 13.7657 5.60068 13.7657 6.26186V10.9846C13.7657 11.5513 13.8508 11.7402 14.0636 11.7402C14.3188 11.7402 14.5741 11.5986 15.0422 10.9846C15.0617 10.9611 15.0812 10.9374 15.1007 10.9135C15.135 10.8714 15.1692 10.8288 15.2032 10.7856C16.6594 8.93964 17.8077 6.21463 17.8077 6.21463C17.9779 5.83681 18.1907 5.60067 18.7012 5.60067H20.9988C21.4668 5.60067 21.637 5.88404 21.5519 6.35631C21.2966 7.72591 18.6587 11.8819 18.6587 11.8819ZM16.4787 5.67671C16.6449 5.28232 16.9 4.91618 17.241 4.65412C17.6899 4.30919 18.2067 4.18891 18.7012 4.18891H20.9988C21.5219 4.18891 22.2211 4.36053 22.6695 5.0046C23.0686 5.57798 23.038 6.21081 22.9674 6.60231L22.966 6.61053C22.8638 7.15852 22.5703 7.82823 22.2893 8.40604C21.6831 9.65221 20.8182 11.1022 20.3073 11.9379C20.1896 12.1304 20.0903 12.2906 20.0171 12.4081C21.2823 13.8208 23.5 15.9418 23.5 17.9743C23.5 18.4524 23.3672 19.0148 22.9218 19.4543C22.4802 19.89 21.9386 20 21.5519 20H18.9565C18.3386 20 17.8122 19.8127 17.3501 19.4422C16.9969 19.1592 16.6845 18.7606 16.4386 18.4565C16.0547 17.9819 15.6528 17.524 15.2458 17.0694V17.6437C15.2458 17.9122 15.214 18.2757 15.0429 18.6462C14.8554 19.0519 14.5497 19.3615 14.1751 19.5694C13.5541 19.9141 12.7712 19.9528 12.1064 19.9528C9.18931 19.9528 6.28823 17.9826 4.26305 14.9173C2.80136 12.7048 1.87114 10.7584 1.30277 9.25686C0.757086 7.81529 0.5 6.66456 0.5 6.07295C0.5 5.56366 0.678339 5.03842 1.08259 4.63457C1.48553 4.23204 2.0167 4.04723 2.53317 4.04723H4.83073C5.25572 4.04723 5.89592 4.10791 6.4444 4.59075C6.92263 5.01176 7.11772 5.58085 7.23066 5.95695C7.56825 7.08112 8.00487 8.1587 8.4564 9.07523V8.29264C8.4564 7.91169 8.39791 7.7091 8.35666 7.60472C8.31398 7.49676 8.26483 7.42326 8.14514 7.25962M16.4787 5.67671C16.107 6.54504 15.676 7.39143 15.2032 8.20912C15.2032 7.37084 15.2847 6.49401 15.1696 5.66031C15.142 5.4607 15.0796 5.15933 14.8955 4.85963C14.4126 4.07338 13.5919 4 13.2126 4H9.51097C9.04419 4 8.54674 4.15455 8.15936 4.5272C7.77524 4.89673 7.60544 5.38003 7.60544 5.83681C7.60544 6.59274 8.04195 7.11856 8.14514 7.25962" fill="black"/>
</svg>
