<svg viewBox="0 0 24 24" fill="none" xmlns="http://www.w3.org/2000/svg">
<path fill-rule="evenodd" clip-rule="evenodd" d="M6.21587 4.76753C6.19446 4.8083 6.17631 4.84854 6.16125 4.88514C3.32938 5.63129 1.25 8.20766 1.25 11.2681V14.1981C1.25 14.2434 1.25402 14.2878 1.26172 14.3309V16.1484C1.26172 16.4201 1.28359 16.6853 1.31494 16.9315C1.4312 18.6321 1.95297 20.0378 2.96264 21.0474C3.9723 22.0571 5.37794 22.5789 7.07859 22.6951C7.32483 22.7265 7.58995 22.7484 7.86172 22.7484H15.6617C17.6216 22.7484 19.2409 22.2823 20.3997 21.2396C21.565 20.1909 22.1485 18.6639 22.2506 16.7891L22.2508 16.7858L22.2512 16.7778C22.2609 16.583 22.2717 16.3672 22.2717 16.1484V14.1984C22.2717 14.135 22.2707 14.0719 22.2686 14.009V11.2677C22.2686 8.83584 20.942 6.6844 18.9665 5.55815C18.9203 5.46074 18.869 5.37037 18.8161 5.28654C18.7191 5.11136 18.6121 4.96745 18.4991 4.83153C17.8599 4.04679 16.8609 3.45946 15.5991 2.93609L13.3909 2.00674L13.3785 2.00178C13.3624 1.99532 13.3336 1.9829 13.2969 1.96706C13.1964 1.92366 13.0365 1.85464 12.9148 1.81261C11.3725 1.22441 10.0213 1.02807 8.84037 1.56071C7.677 2.08543 6.88624 3.22659 6.21587 4.76753ZM9.4571 2.92806C8.81625 3.2171 8.21497 3.9234 7.5784 5.39577C7.56895 5.41763 7.55846 5.43902 7.54698 5.45987L7.54361 5.46939L7.5315 5.5053C7.52433 5.52681 7.51619 5.54798 7.5071 5.56875L7.4419 5.71779L7.40189 5.81781L6.23497 8.60483C6.44682 8.58062 6.66208 8.56813 6.87998 8.56813H9.2365L11.6504 2.96619C10.6438 2.67173 9.96875 2.69729 9.4571 2.92806ZM20.6689 10.2617C20.1953 9.7757 19.6356 9.37513 19.0163 9.08469C19.1695 8.6077 19.2744 8.14971 19.3204 7.70953C19.9924 8.39726 20.4718 9.28009 20.6689 10.2617ZM17.7506 10.2115C17.7117 10.2005 17.6724 10.1901 17.6327 10.1804C17.3229 10.1077 16.9911 10.0684 16.6517 10.0684H6.89172C6.31908 10.0684 5.77821 10.1854 5.26442 10.3989C3.7908 11.036 2.76172 12.501 2.76172 14.1984V16.1484C2.76172 16.3478 2.77841 16.5543 2.80542 16.7614C2.80748 16.7772 2.80904 16.793 2.81009 16.8089C2.90708 18.2776 3.34015 19.3036 4.0233 19.9868C4.70644 20.6699 5.73243 21.103 7.20114 21.2C7.21705 21.201 7.23292 21.2026 7.24872 21.2047C7.45578 21.2317 7.66229 21.2484 7.86172 21.2484H15.6617C17.4018 21.2484 18.6075 20.8344 19.3963 20.1246C20.1782 19.421 20.6646 18.3234 20.7528 16.7089C20.7629 16.5066 20.7717 16.3259 20.7717 16.1484V14.2666C20.7697 14.2439 20.7686 14.2209 20.7686 14.1977C20.7686 12.3354 19.5322 10.7528 17.8431 10.246C17.8113 10.2365 17.7805 10.225 17.7506 10.2115ZM2.8472 10.2712C3.14088 8.78627 4.0781 7.53247 5.35813 6.81505L4.38027 9.15074C3.80733 9.43637 3.28938 9.81669 2.8472 10.2712ZM16.64 8.56814H10.8698L13.0565 3.49354L15.0191 4.31943L15.0227 4.32094C16.2181 4.81658 16.9373 5.28807 17.3379 5.78112L17.3438 5.78828C17.4241 5.88465 17.4712 5.95232 17.5096 6.02371C17.5188 6.04075 17.5286 6.05743 17.5391 6.07371C17.6027 6.1726 17.6317 6.24024 17.6453 6.29138C17.6555 6.32948 17.6686 6.36671 17.6846 6.40274C17.7065 6.45195 17.7226 6.5008 17.7324 6.54004C17.7364 6.55605 17.7409 6.57193 17.746 6.58764C17.9024 7.07433 17.8733 7.72507 17.5739 8.63977C17.262 8.59005 16.9483 8.56814 16.64 8.56814Z" fill="black"/>
</svg>
