<svg viewBox="0 0 24 24" fill="none" xmlns="http://www.w3.org/2000/svg">
<path d="M11.9999 8.25C12.4141 8.25 12.7499 8.58579 12.7499 9V14C12.7499 14.4142 12.4141 14.75 11.9999 14.75C11.5857 14.75 11.2499 14.4142 11.2499 14V9C11.2499 8.58579 11.5857 8.25 11.9999 8.25Z" fill="black"/>
<path d="M11.9944 16.25C11.5802 16.25 11.2444 16.5858 11.2444 17C11.2444 17.4142 11.5802 17.75 11.9944 17.75H12.0034C12.4176 17.75 12.7534 17.4142 12.7534 17C12.7534 16.5858 12.4176 16.25 12.0034 16.25H11.9944Z" fill="black"/>
<path fill-rule="evenodd" clip-rule="evenodd" d="M11.8771 22.16H5.93985C4.04009 22.16 2.50711 21.4747 1.7418 20.1709C0.976903 18.8678 1.12442 17.1947 2.04393 15.5363L8.10394 4.63629C9.0675 2.899 10.4499 1.8425 11.9999 1.8425C13.5498 1.8425 14.9319 2.89835 15.8954 4.63566L21.9556 15.546C22.8757 17.2054 23.02 18.879 22.2538 20.1815C21.4875 21.4843 19.9554 22.17 18.0599 22.17H11.9999C11.958 22.17 11.917 22.1666 11.8771 22.16ZM11.9999 3.3425C11.2 3.3425 10.2322 3.89139 9.41576 5.36371L3.35577 16.2637C2.59528 17.6353 2.6278 18.7172 3.0354 19.4116C3.44259 20.1053 4.36961 20.66 5.93985 20.66H11.9999C12.0417 20.66 12.0827 20.6634 12.1226 20.67H18.0599C19.6243 20.67 20.5522 20.1157 20.9609 19.421C21.3697 18.726 21.4039 17.6443 20.6439 16.2737L14.5843 5.36434C13.7679 3.89202 12.7997 3.3425 11.9999 3.3425Z" fill="black"/>
</svg>
