<svg viewBox="0 0 24 24" fill="none" xmlns="http://www.w3.org/2000/svg">
<path fill-rule="evenodd" clip-rule="evenodd" d="M12.5649 17.09C13.2349 17.38 13.8749 17.52 14.4949 17.52C14.9349 17.52 15.3649 17.44 15.7649 17.27C16.1649 17.1 16.5349 16.84 16.8549 16.49C17.0349 16.28 17.1849 16.05 17.3149 15.79C17.4449 15.51 17.5149 15.22 17.5149 14.92C17.5149 14.69 17.4749 14.47 17.3749 14.22C17.2549 13.97 17.0749 13.75 16.8449 13.59L15.1749 12.41C15.0049 12.29 14.8449 12.2 14.6849 12.14C14.2349 11.95 13.7249 12 13.3949 12.21C13.2149 12.3 13.0349 12.44 12.8549 12.62L12.7149 12.76C12.6349 12.71 12.5349 12.63 12.4149 12.53C11.9098 12.1058 11.3907 11.5652 10.9749 11.09C10.8825 10.9892 10.8183 10.9026 10.7646 10.83C10.7544 10.8162 10.7445 10.8028 10.7349 10.79L10.8649 10.65C11.0349 10.48 11.1649 10.3 11.2549 10.15C11.3949 9.92004 11.4649 9.66004 11.4649 9.40004C11.4649 9.21004 11.4149 9.01001 11.3349 8.81001C11.2649 8.64001 11.1749 8.47001 11.0549 8.31001L9.8949 6.68003C9.7349 6.44003 9.5249 6.26004 9.2749 6.15004C8.5449 5.80004 7.62486 6.03001 6.98486 6.66002C6.64486 6.98001 6.38485 7.35002 6.22485 7.76002C6.07485 8.15002 5.99487 8.57002 5.99487 9.01002C5.99487 9.63002 6.13486 10.28 6.41486 10.94C6.67486 11.55 7.03486 12.17 7.48486 12.8C7.92486 13.4 8.4249 13.98 8.9649 14.53C9.50491 15.07 10.0949 15.57 10.6949 16.01C11.3049 16.46 11.9349 16.82 12.5649 17.09ZM8.03491 7.75001C8.28491 7.50001 8.48486 7.50001 8.54486 7.50001L8.66486 7.58003L9.8349 9.23002C9.8849 9.30002 9.92489 9.36003 9.95489 9.43003C9.93489 9.47003 9.89491 9.53003 9.78491 9.64003L9.40491 10.03C9.21491 10.23 9.11487 10.48 9.11487 10.76C9.11487 10.86 9.12491 10.97 9.15491 11.07L9.26489 11.33C9.38489 11.54 9.56489 11.79 9.82489 12.1C10.0649 12.38 10.3149 12.65 10.5949 12.94C10.8849 13.22 11.1549 13.47 11.4349 13.71C11.7249 13.96 11.9849 14.14 12.2149 14.26L12.3949 14.34C12.7649 14.47 13.2249 14.39 13.5149 14.1L13.8949 13.72C14.0049 13.61 14.0649 13.58 14.1049 13.56C14.1649 13.58 14.2349 13.62 14.3049 13.67L15.9749 14.83C16.0049 14.89 16.0049 14.92 16.0049 14.94C16.0049 15.01 15.9849 15.09 15.9549 15.16C15.8949 15.29 15.8249 15.39 15.7349 15.49C15.5549 15.67 15.3749 15.81 15.1749 15.89C14.6049 16.13 13.9049 16.05 13.1449 15.72C12.6149 15.49 12.0849 15.19 11.5649 14.81C11.0249 14.41 10.5049 13.96 10.0149 13.48C9.52489 12.99 9.08489 12.46 8.69489 11.93C8.31489 11.4 8.00486 10.87 7.79486 10.37C7.59486 9.89001 7.49487 9.44003 7.49487 9.02003C7.49487 8.78003 7.53488 8.54003 7.62488 8.33003C7.71488 8.12003 7.84491 7.93001 8.03491 7.75001Z" fill="black"/>
<path fill-rule="evenodd" clip-rule="evenodd" d="M1.22499 22.29C1.36499 22.43 1.55502 22.51 1.75502 22.51C1.82502 22.51 1.88503 22.5 1.95503 22.48L6.59505 21.19C8.17505 22.05 9.94502 22.5 11.755 22.5C17.685 22.5 22.505 17.68 22.505 11.75C22.505 5.82 17.685 1 11.755 1C5.82502 1 1.00502 5.82 1.00502 11.75C1.00502 13.53 1.44505 15.29 2.28505 16.85L1.02504 21.56C0.955041 21.82 1.03499 22.1 1.22499 22.29ZM7.07503 19.74C6.95503 19.68 6.82502 19.64 6.69502 19.64C6.63502 19.64 6.56502 19.65 6.50502 19.67L2.82503 20.69L3.82503 16.95C3.87503 16.76 3.84501 16.55 3.74501 16.38C2.93501 14.98 2.50502 13.39 2.50502 11.76C2.50502 6.66001 6.65502 2.51001 11.755 2.51001C16.855 2.51001 21.005 6.66001 21.005 11.76C21.005 16.86 16.855 21.01 11.755 21.01C10.105 21.01 8.48503 20.57 7.07503 19.74Z" fill="black"/>
</svg>
