<svg viewBox="0 0 24 24" fill="none" xmlns="http://www.w3.org/2000/svg">
<path fill-rule="evenodd" clip-rule="evenodd" d="M9.60909 20.5H6.5L10.2636 14.7462C8.1 13.1582 6.88182 11.6077 6.88182 8.99231C6.88182 5.72308 9.1 3.5 13.3 3.5H17.4818L17.5 20.5H14.6091V5.7978C14.1275 5.7978 13.6147 5.80644 13.1091 5.85249C11.3707 6.01082 9.71818 6.61147 9.71818 8.82418C9.71818 10.8791 10.5727 11.8319 12.3364 13.0462L13.7909 14.0549L9.60909 20.5ZM13.1091 11.7568V7.35983C12.6572 7.40775 12.2623 7.48934 11.9408 7.62378C11.6556 7.74305 11.5019 7.8759 11.4118 8.00497C11.3263 8.12743 11.2182 8.35977 11.2182 8.82418C11.2182 9.62173 11.3774 10.0658 11.6114 10.4145C11.8717 10.8023 12.3079 11.1993 13.1091 11.7568ZM13.1091 17.8616V20.5C13.1091 21.3284 13.7807 22 14.6091 22H17.5C17.8981 22 18.2799 21.8417 18.5612 21.5601C18.8426 21.2784 19.0004 20.8965 19 20.4984L18.9818 3.4984C18.9809 2.6706 18.3096 2 17.4818 2H13.3C10.9463 2 8.94614 2.62445 7.51657 3.90157C6.06777 5.19587 5.38182 7.00361 5.38182 8.99231C5.38182 10.5562 5.75277 11.8799 6.49209 13.0539C6.96786 13.8093 7.57332 14.4659 8.26095 15.0677L5.2447 19.6789C4.94317 20.1399 4.91856 20.729 5.1806 21.2136C5.44264 21.6981 5.94916 22 6.5 22H9.60909C10.1172 22 10.5908 21.7427 10.8674 21.3165L13.1091 17.8616Z" fill="black"/>
</svg>
