<svg viewBox="0 0 24 24" fill="none" xmlns="http://www.w3.org/2000/svg">
<path fill-rule="evenodd" clip-rule="evenodd" d="M11.786 8.85689C11.1766 8.49125 10.4145 8.3047 9.75031 8.68787C9.08744 9.0703 8.8501 9.8318 8.8501 10.6V13.6C8.8501 14.3153 9.11606 15.0212 9.75031 15.3872C10.3907 15.7566 11.1434 15.6287 11.786 15.2431L14.286 13.7431C14.2962 13.737 14.3062 13.7306 14.3161 13.7241C14.9024 13.3332 15.3251 12.7518 15.3251 12.05C15.3251 11.3482 14.9024 10.7668 14.3161 10.376C14.3062 10.3694 14.2962 10.363 14.286 10.3569L11.786 8.85689ZM10.3501 10.6C10.3501 10.3473 10.3896 10.185 10.4298 10.0914C10.4493 10.046 10.4675 10.0199 10.4791 10.0062C10.4902 9.99311 10.4973 9.98865 10.4999 9.98715C10.5025 9.98566 10.5086 9.98249 10.5222 9.98007C10.5367 9.9775 10.5635 9.97517 10.6053 9.98032C10.6919 9.991 10.8298 10.0325 11.0142 10.1431L13.4975 11.6331C13.7986 11.8381 13.8251 12.0025 13.8251 12.05C13.8251 12.0975 13.7986 12.262 13.4975 12.4669L11.0142 13.9569C10.6568 14.1713 10.5095 14.0934 10.4999 14.0879C10.4841 14.0788 10.3501 13.9848 10.3501 13.6V10.6Z" fill="black"/>
<path fill-rule="evenodd" clip-rule="evenodd" d="M7 3.25C5.32956 3.25 3.87925 3.81009 2.84467 4.84467C1.81009 5.87925 1.25 7.32956 1.25 9V15C1.25 16.6704 1.81009 18.1207 2.84467 19.1553C3.87925 20.1899 5.32956 20.75 7 20.75H17C18.6704 20.75 20.1207 20.1899 21.1553 19.1553C22.1899 18.1207 22.75 16.6704 22.75 15V9C22.75 7.32956 22.1899 5.87925 21.1553 4.84467C20.1207 3.81009 18.6704 3.25 17 3.25H7ZM2.75 9C2.75 7.67044 3.18991 6.62075 3.90533 5.90533C4.62075 5.18991 5.67044 4.75 7 4.75H17C18.3296 4.75 19.3793 5.18991 20.0947 5.90533C20.8101 6.62075 21.25 7.67044 21.25 9V15C21.25 16.3296 20.8101 17.3793 20.0947 18.0947C19.3793 18.8101 18.3296 19.25 17 19.25H7C5.67044 19.25 4.62075 18.8101 3.90533 18.0947C3.18991 17.3793 2.75 16.3296 2.75 15V9Z" fill="black"/>
</svg>
