<svg viewBox="0 0 24 24" fill="none" xmlns="http://www.w3.org/2000/svg">
<path fill-rule="evenodd" clip-rule="evenodd" d="M10.47 8.25C8.67997 8.25 7.21997 6.79 7.21997 5C7.21997 3.21 8.67997 1.75 10.47 1.75C12.26 1.75 13.72 3.21 13.72 5C13.72 6.79 12.27 8.25 10.47 8.25ZM10.47 3.25C9.50997 3.25 8.71997 4.04 8.71997 5C8.71997 5.96 9.50997 6.75 10.47 6.75C11.43 6.75 12.22 5.96 12.22 5C12.22 4.04 11.44 3.25 10.47 3.25Z" fill="black"/>
<path fill-rule="evenodd" clip-rule="evenodd" d="M14.04 22.75H9.24996C7.62996 22.75 6.15996 22.12 5.09996 20.96C4.03996 19.81 3.52996 18.29 3.66996 16.68C4.00996 12.58 7.62996 9.25 11.75 9.25C15.54 9.25 19.12 12.29 19.75 16.02C20.05 17.8 19.61 19.48 18.53 20.76C17.43 22.04 15.84 22.75 14.04 22.75ZM11.74 10.75C8.38996 10.75 5.43996 13.47 5.15996 16.81C5.05996 18 5.42996 19.11 6.19996 19.95C6.96996 20.79 8.04996 21.25 9.23996 21.25H14.03C15.38 21.25 16.57 20.73 17.36 19.8C18.15 18.87 18.47 17.61 18.25 16.27C17.75 13.23 14.83 10.75 11.74 10.75Z" fill="black"/>
<path fill-rule="evenodd" clip-rule="evenodd" d="M14.55 6.70001C14.55 8.22001 15.78 9.45001 17.3 9.45001C18.82 9.45001 20.05 8.22001 20.05 6.70001C20.05 5.18001 18.82 3.95001 17.3 3.95001C15.78 3.95001 14.55 5.18001 14.55 6.70001ZM16.05 6.70001C16.05 6.01001 16.61 5.45001 17.3 5.45001C17.99 5.45001 18.55 6.01001 18.55 6.70001C18.55 7.39001 17.99 7.95001 17.3 7.95001C16.61 7.95001 16.05 7.39001 16.05 6.70001Z" fill="black"/>
<path fill-rule="evenodd" clip-rule="evenodd" d="M21 13.45C19.76 13.45 18.75 12.44 18.75 11.2C18.75 9.96001 19.76 8.95001 21 8.95001C22.24 8.95001 23.25 9.96001 23.25 11.2C23.25 12.44 22.24 13.45 21 13.45ZM21 10.45C20.59 10.45 20.25 10.79 20.25 11.2C20.25 11.61 20.59 11.95 21 11.95C21.41 11.95 21.75 11.61 21.75 11.2C21.75 10.79 21.41 10.45 21 10.45Z" fill="black"/>
<path fill-rule="evenodd" clip-rule="evenodd" d="M1.21997 8.70001C1.21997 10.22 2.44997 11.45 3.96997 11.45C5.48997 11.45 6.71997 10.22 6.71997 8.70001C6.71997 7.18001 5.48997 5.95001 3.96997 5.95001C2.44997 5.95001 1.21997 7.18001 1.21997 8.70001ZM2.71997 8.70001C2.71997 8.01001 3.27997 7.45001 3.96997 7.45001C4.65997 7.45001 5.21997 8.01001 5.21997 8.70001C5.21997 9.39001 4.65997 9.95001 3.96997 9.95001C3.27997 9.95001 2.71997 9.39001 2.71997 8.70001Z" fill="black"/>
</svg>
